G75*
G70*
%OFA0B0*%
%FSLAX24Y24*%
%IPPOS*%
%LPD*%
%AMOC8*
5,1,8,0,0,1.08239X$1,22.5*
%
%ADD10R,0.0591X0.0114*%
%ADD11R,0.0114X0.0591*%
%ADD12R,0.0276X0.0354*%
%ADD13R,0.0354X0.0276*%
%ADD14R,0.0315X0.0472*%
%ADD15R,0.0315X0.0630*%
%ADD16R,0.0630X0.0315*%
%ADD17R,0.0315X0.0315*%
%ADD18R,0.0394X0.0551*%
%ADD19R,0.0630X0.1181*%
%ADD20R,0.2283X0.2441*%
%ADD21R,0.0945X0.0945*%
%ADD22R,0.0472X0.0315*%
%ADD23R,0.0689X0.0709*%
%ADD24R,0.0551X0.0276*%
%ADD25R,0.0413X0.0512*%
%ADD26R,0.0472X0.0236*%
%ADD27R,0.0315X0.0354*%
%ADD28R,0.0650X0.0650*%
%ADD29C,0.0650*%
%ADD30C,0.0080*%
%ADD31R,0.0250X0.0500*%
%ADD32R,0.0500X0.0250*%
%ADD33R,0.0700X0.0280*%
%ADD34R,0.0906X0.1220*%
%ADD35C,0.0600*%
%ADD36R,0.0600X0.0600*%
%ADD37R,0.0630X0.0906*%
%ADD38C,0.0795*%
%ADD39C,0.0540*%
%ADD40R,0.0906X0.0630*%
%ADD41C,0.0740*%
%ADD42C,0.0709*%
%ADD43R,0.0787X0.0472*%
%ADD44R,0.0157X0.0276*%
%ADD45R,0.0276X0.0197*%
%ADD46R,0.0710X0.0630*%
%ADD47R,0.0134X0.0102*%
%ADD48R,0.0102X0.0134*%
%ADD49C,0.0100*%
%ADD50C,0.0360*%
%ADD51C,0.0300*%
%ADD52C,0.0160*%
%ADD53C,0.0450*%
%ADD54C,0.0240*%
%ADD55C,0.0180*%
%ADD56C,0.0500*%
%ADD57C,0.0560*%
%ADD58C,0.0300*%
%ADD59C,0.0320*%
%ADD60C,0.0280*%
%ADD61C,0.0860*%
%ADD62C,0.0660*%
%ADD63C,0.0120*%
D10*
X033550Y030588D03*
X033550Y030785D03*
X033550Y030981D03*
X033550Y031178D03*
X033550Y031375D03*
X033550Y031572D03*
X033550Y031769D03*
X033550Y031966D03*
X033550Y032163D03*
X033550Y032359D03*
X033550Y032556D03*
X033550Y032753D03*
X033550Y032950D03*
X033550Y033147D03*
X033550Y033344D03*
X033550Y033541D03*
X033550Y033737D03*
X033550Y033934D03*
X033550Y034131D03*
X033550Y034328D03*
X033550Y034525D03*
X033550Y034722D03*
X033550Y034919D03*
X033550Y035115D03*
X033550Y035312D03*
X039850Y035312D03*
X039850Y035115D03*
X039850Y034919D03*
X039850Y034722D03*
X039850Y034525D03*
X039850Y034328D03*
X039850Y034131D03*
X039850Y033934D03*
X039850Y033737D03*
X039850Y033541D03*
X039850Y033344D03*
X039850Y033147D03*
X039850Y032950D03*
X039850Y032753D03*
X039850Y032556D03*
X039850Y032359D03*
X039850Y032163D03*
X039850Y031966D03*
X039850Y031769D03*
X039850Y031572D03*
X039850Y031375D03*
X039850Y031178D03*
X039850Y030981D03*
X039850Y030785D03*
X039850Y030588D03*
D11*
X039062Y029800D03*
X038865Y029800D03*
X038669Y029800D03*
X038472Y029800D03*
X038275Y029800D03*
X038078Y029800D03*
X037881Y029800D03*
X037684Y029800D03*
X037487Y029800D03*
X037291Y029800D03*
X037094Y029800D03*
X036897Y029800D03*
X036700Y029800D03*
X036503Y029800D03*
X036306Y029800D03*
X036109Y029800D03*
X035913Y029800D03*
X035716Y029800D03*
X035519Y029800D03*
X035322Y029800D03*
X035125Y029800D03*
X034928Y029800D03*
X034731Y029800D03*
X034535Y029800D03*
X034338Y029800D03*
X034338Y036100D03*
X034535Y036100D03*
X034731Y036100D03*
X034928Y036100D03*
X035125Y036100D03*
X035322Y036100D03*
X035519Y036100D03*
X035716Y036100D03*
X035913Y036100D03*
X036109Y036100D03*
X036306Y036100D03*
X036503Y036100D03*
X036700Y036100D03*
X036897Y036100D03*
X037094Y036100D03*
X037291Y036100D03*
X037487Y036100D03*
X037684Y036100D03*
X037881Y036100D03*
X038078Y036100D03*
X038275Y036100D03*
X038472Y036100D03*
X038669Y036100D03*
X038865Y036100D03*
X039062Y036100D03*
D12*
X039344Y036590D03*
X039856Y036590D03*
X042144Y034550D03*
X042656Y034550D03*
X042356Y033750D03*
X041844Y033750D03*
X041844Y033150D03*
X042356Y033150D03*
X042944Y032950D03*
X043456Y032950D03*
X043456Y033550D03*
X042944Y033550D03*
X041356Y031950D03*
X041344Y031450D03*
X041856Y031450D03*
X041856Y030850D03*
X041856Y030350D03*
X041856Y029850D03*
X041344Y029850D03*
X041344Y030350D03*
X041344Y030850D03*
X040844Y031950D03*
X038256Y029240D03*
X037744Y029240D03*
X036856Y029220D03*
X036344Y029220D03*
X033256Y029050D03*
X033256Y028550D03*
X032744Y028550D03*
X032744Y029050D03*
X032744Y029550D03*
X033256Y029550D03*
X029076Y026390D03*
X028564Y026390D03*
X024856Y029650D03*
X024344Y029650D03*
X023656Y029650D03*
X023144Y029650D03*
X023194Y032850D03*
X023706Y032850D03*
X024144Y032850D03*
X024656Y032850D03*
X023956Y034530D03*
X023444Y034530D03*
X030944Y038350D03*
X031456Y038350D03*
X032114Y035310D03*
X032626Y035310D03*
X037244Y040750D03*
X037756Y040750D03*
X023656Y025050D03*
X023144Y025050D03*
X022944Y024150D03*
X023456Y024150D03*
X038010Y021646D03*
X038522Y021646D03*
D13*
X042500Y027894D03*
X043000Y027894D03*
X043500Y027894D03*
X043500Y028406D03*
X043000Y028406D03*
X042500Y028406D03*
X043300Y034994D03*
X043300Y035506D03*
X041300Y035994D03*
X041300Y036506D03*
X040700Y037594D03*
X040700Y038106D03*
X041500Y037994D03*
X042000Y037994D03*
X042500Y037994D03*
X042500Y038506D03*
X042000Y038506D03*
X041500Y038506D03*
X039800Y038106D03*
X039300Y038106D03*
X039300Y037594D03*
X039800Y037594D03*
X037280Y038494D03*
X037280Y039006D03*
X037700Y039564D03*
X037700Y040076D03*
X036300Y039006D03*
X036300Y038494D03*
X035900Y037406D03*
X035900Y036894D03*
X033160Y036406D03*
X032660Y036406D03*
X032660Y035894D03*
X033160Y035894D03*
X032100Y038294D03*
X032100Y038806D03*
X027800Y036606D03*
X027800Y036094D03*
X032930Y031976D03*
X032930Y031464D03*
X024900Y024306D03*
X024900Y023794D03*
X029900Y022956D03*
X029900Y022444D03*
D14*
X040846Y032550D03*
X041554Y032550D03*
X024854Y035950D03*
X024146Y035950D03*
X023654Y035950D03*
X022946Y035950D03*
D15*
X033002Y027448D03*
X033474Y027448D03*
X033946Y027448D03*
X034419Y027448D03*
X034891Y027448D03*
X035364Y027448D03*
X035836Y027448D03*
X036309Y027448D03*
X036781Y027448D03*
X037254Y027448D03*
X037726Y027448D03*
X038198Y027448D03*
X038198Y022252D03*
X037726Y022252D03*
X037254Y022252D03*
X036781Y022252D03*
X036309Y022252D03*
X035836Y022252D03*
X035364Y022252D03*
X034891Y022252D03*
X034419Y022252D03*
X033946Y022252D03*
X033474Y022252D03*
X033002Y022252D03*
D16*
X031899Y023227D03*
X031899Y023630D03*
X031899Y024102D03*
X031899Y024574D03*
X031899Y025126D03*
X031899Y025598D03*
X031899Y026070D03*
X031899Y026473D03*
X039301Y024220D03*
X039301Y023590D03*
X039301Y022960D03*
D17*
X037395Y021650D03*
X036805Y021650D03*
X038300Y040295D03*
X038300Y040885D03*
D18*
X025910Y025313D03*
X025536Y024447D03*
X026284Y024447D03*
X026274Y022683D03*
X025526Y022683D03*
X025900Y021817D03*
D19*
X026902Y030740D03*
X028698Y030740D03*
X028698Y036240D03*
X026902Y036240D03*
D20*
X027800Y033413D03*
X027800Y027913D03*
D21*
X024966Y038050D03*
X023234Y038050D03*
D22*
X026080Y037524D03*
X026080Y036816D03*
X026080Y036404D03*
X026080Y035696D03*
X026100Y034804D03*
X026100Y034096D03*
X026100Y033604D03*
X026100Y032896D03*
D23*
X026048Y038350D03*
X027552Y038350D03*
D24*
X041300Y033745D03*
X041300Y033155D03*
D25*
X040936Y034557D03*
X041664Y034557D03*
X041664Y035463D03*
X040936Y035463D03*
D26*
X029102Y025250D03*
X029102Y024750D03*
X029102Y024250D03*
X029102Y023750D03*
X029102Y023250D03*
X029102Y022750D03*
X029102Y022250D03*
X026898Y022250D03*
X026898Y022750D03*
X026898Y023250D03*
X026898Y023750D03*
X026898Y024250D03*
X026898Y024750D03*
X026898Y025250D03*
D27*
X036800Y039117D03*
X036426Y039944D03*
X037174Y039944D03*
D28*
X029650Y034476D03*
X026940Y037366D03*
D29*
X026940Y039334D03*
X029650Y035264D03*
D30*
X034250Y028250D02*
X034550Y028250D01*
X039600Y030150D02*
X039809Y029941D01*
X039831Y029942D01*
X039831Y029758D02*
X039831Y029581D01*
X039800Y029550D01*
X039600Y030150D02*
X039600Y030250D01*
X040100Y030250D02*
X040679Y030250D01*
X040808Y030179D01*
X040809Y030141D01*
X040800Y030150D01*
X040992Y030179D02*
X040991Y030371D01*
X041030Y030450D01*
X040711Y031068D02*
X040581Y031069D01*
X040457Y030946D01*
X040711Y031252D02*
X040711Y031439D01*
X040700Y031450D01*
X041049Y031160D02*
X041110Y031150D01*
X042200Y031150D01*
X042050Y031920D02*
X042020Y031950D01*
X041800Y031950D01*
X024900Y025000D02*
X024900Y024700D01*
X024150Y024150D02*
X023850Y024150D01*
D31*
X023800Y024150D03*
X024200Y024150D03*
X034200Y028250D03*
X034600Y028250D03*
X035523Y028350D03*
X035877Y028350D03*
D32*
X024900Y025050D03*
X024900Y024650D03*
D33*
X029252Y038900D03*
X029252Y039400D03*
X029252Y039900D03*
X029252Y040400D03*
X031348Y040400D03*
X031348Y039900D03*
X031348Y039400D03*
X031348Y038900D03*
D34*
X030300Y039650D03*
D35*
X033410Y038500D03*
D36*
X034590Y038500D03*
D37*
X043000Y032190D03*
X043000Y029710D03*
D38*
X024630Y030463D03*
X023370Y030463D03*
X023370Y032037D03*
X024630Y032037D03*
X024630Y033612D03*
X023370Y033612D03*
X023370Y035187D03*
X024630Y035187D03*
X024630Y036762D03*
X023370Y036762D03*
X023370Y028888D03*
X024630Y028888D03*
X024630Y027313D03*
X023370Y027313D03*
X023370Y025738D03*
X024630Y025738D03*
D39*
X042500Y025940D03*
X042500Y025320D03*
X042500Y026560D03*
X042500Y027180D03*
X042500Y035320D03*
X042500Y035940D03*
X042500Y036560D03*
X042500Y037180D03*
D40*
X034840Y037450D03*
X032360Y037450D03*
D41*
X031300Y036250D03*
X031300Y035250D03*
X040565Y036273D03*
X043394Y039101D03*
X041700Y028450D03*
X040700Y028450D03*
X039700Y028450D03*
X038700Y028450D03*
X037700Y028450D03*
X036700Y028450D03*
D42*
X039001Y040680D03*
X041599Y040680D03*
D43*
X027800Y031860D03*
X027800Y030600D03*
D44*
X039682Y039270D03*
X039958Y039270D03*
X040302Y039270D03*
X040578Y039270D03*
D45*
X037720Y038707D03*
X037720Y038393D03*
D46*
X030200Y037310D03*
X030200Y036190D03*
D47*
X039831Y029942D03*
X039831Y029758D03*
X040169Y029850D03*
X040711Y031068D03*
X040711Y031252D03*
X041049Y031160D03*
D48*
X040992Y030179D03*
X040808Y030179D03*
X040900Y029841D03*
D49*
X022750Y023845D02*
X022750Y021500D01*
X025559Y021500D01*
X025553Y021522D01*
X025553Y021769D01*
X025852Y021769D01*
X025852Y021865D01*
X025553Y021865D01*
X025553Y022070D01*
X025125Y022070D01*
X024925Y022270D01*
X024820Y022375D01*
X024820Y022675D01*
X024225Y023270D01*
X023719Y023270D01*
X023570Y023270D01*
X022997Y023843D01*
X022752Y023843D01*
X022750Y023845D01*
X022750Y023811D02*
X023029Y023811D01*
X023127Y023713D02*
X022750Y023713D01*
X022750Y023614D02*
X023226Y023614D01*
X023324Y023516D02*
X022750Y023516D01*
X022750Y023417D02*
X023423Y023417D01*
X023521Y023319D02*
X022750Y023319D01*
X022750Y023220D02*
X024275Y023220D01*
X024374Y023122D02*
X024039Y023122D01*
X024125Y023086D02*
X023849Y023200D01*
X023551Y023200D01*
X023275Y023086D01*
X023064Y022875D01*
X022950Y022599D01*
X022950Y022301D01*
X023064Y022025D01*
X023275Y021814D01*
X023551Y021700D01*
X023849Y021700D01*
X024125Y021814D01*
X024336Y022025D01*
X024450Y022301D01*
X024450Y022599D01*
X024336Y022875D01*
X024125Y023086D01*
X024188Y023023D02*
X024472Y023023D01*
X024571Y022925D02*
X024286Y022925D01*
X024356Y022826D02*
X024669Y022826D01*
X024768Y022728D02*
X024397Y022728D01*
X024438Y022629D02*
X024820Y022629D01*
X024820Y022531D02*
X024450Y022531D01*
X024450Y022432D02*
X024820Y022432D01*
X024862Y022334D02*
X024450Y022334D01*
X024423Y022235D02*
X024960Y022235D01*
X025059Y022137D02*
X024382Y022137D01*
X024341Y022038D02*
X025553Y022038D01*
X025553Y021940D02*
X024250Y021940D01*
X024152Y021841D02*
X025852Y021841D01*
X025948Y021841D02*
X027994Y021841D01*
X027882Y021940D02*
X026247Y021940D01*
X026247Y021865D02*
X026247Y022112D01*
X026237Y022150D01*
X026217Y022185D01*
X026189Y022213D01*
X026155Y022232D01*
X026117Y022243D01*
X026088Y022243D01*
X026123Y022277D01*
X026525Y022277D01*
X026531Y022284D01*
X026531Y022078D01*
X026608Y022002D01*
X027188Y022002D01*
X027256Y022070D01*
X027732Y022070D01*
X028384Y021500D01*
X026241Y021500D01*
X026247Y021522D01*
X026247Y021769D01*
X025948Y021769D01*
X025948Y021865D01*
X026247Y021865D01*
X026247Y021743D02*
X028107Y021743D01*
X028219Y021644D02*
X026247Y021644D01*
X026247Y021546D02*
X028332Y021546D01*
X028600Y021550D02*
X029600Y021550D01*
X030300Y022250D01*
X030300Y032950D01*
X031087Y033737D01*
X033550Y033737D01*
X033550Y033541D02*
X031891Y033541D01*
X030700Y032350D01*
X030700Y028650D01*
X030800Y028550D01*
X030510Y028441D02*
X030480Y028441D01*
X030490Y028488D02*
X030537Y028374D01*
X030624Y028287D01*
X030738Y028240D01*
X030765Y028240D01*
X030720Y028132D01*
X030720Y028008D01*
X030767Y027894D01*
X030854Y027807D01*
X030968Y027760D01*
X031092Y027760D01*
X031201Y027805D01*
X030625Y027230D01*
X030520Y027125D01*
X030520Y022275D01*
X030625Y022170D01*
X030625Y022170D01*
X031120Y021675D01*
X031225Y021570D01*
X032698Y021570D01*
X032727Y021500D01*
X029805Y021500D01*
X030375Y022070D01*
X030480Y022175D01*
X030480Y032875D01*
X031162Y033557D01*
X031653Y033557D01*
X030625Y032530D01*
X030520Y032425D01*
X030520Y028684D01*
X030490Y028612D01*
X030490Y028488D01*
X030480Y028539D02*
X030490Y028539D01*
X030480Y028638D02*
X030501Y028638D01*
X030520Y028736D02*
X030480Y028736D01*
X030480Y028835D02*
X030520Y028835D01*
X030520Y028933D02*
X030480Y028933D01*
X030480Y029032D02*
X030520Y029032D01*
X030520Y029130D02*
X030480Y029130D01*
X030480Y029229D02*
X030520Y029229D01*
X030520Y029327D02*
X030480Y029327D01*
X030480Y029426D02*
X030520Y029426D01*
X030520Y029524D02*
X030480Y029524D01*
X030480Y029623D02*
X030520Y029623D01*
X030520Y029721D02*
X030480Y029721D01*
X030480Y029820D02*
X030520Y029820D01*
X030520Y029918D02*
X030480Y029918D01*
X030480Y030017D02*
X030520Y030017D01*
X030520Y030115D02*
X030480Y030115D01*
X030480Y030214D02*
X030520Y030214D01*
X030520Y030312D02*
X030480Y030312D01*
X030480Y030411D02*
X030520Y030411D01*
X030520Y030509D02*
X030480Y030509D01*
X030480Y030608D02*
X030520Y030608D01*
X030520Y030706D02*
X030480Y030706D01*
X030480Y030805D02*
X030520Y030805D01*
X030520Y030903D02*
X030480Y030903D01*
X030480Y031002D02*
X030520Y031002D01*
X030520Y031100D02*
X030480Y031100D01*
X030480Y031199D02*
X030520Y031199D01*
X030520Y031297D02*
X030480Y031297D01*
X030480Y031396D02*
X030520Y031396D01*
X030520Y031494D02*
X030480Y031494D01*
X030480Y031593D02*
X030520Y031593D01*
X030520Y031691D02*
X030480Y031691D01*
X030480Y031790D02*
X030520Y031790D01*
X030520Y031888D02*
X030480Y031888D01*
X030480Y031987D02*
X030520Y031987D01*
X030520Y032085D02*
X030480Y032085D01*
X030480Y032184D02*
X030520Y032184D01*
X030520Y032282D02*
X030480Y032282D01*
X030480Y032381D02*
X030520Y032381D01*
X030480Y032479D02*
X030574Y032479D01*
X030480Y032578D02*
X030673Y032578D01*
X030771Y032676D02*
X030480Y032676D01*
X030480Y032775D02*
X030870Y032775D01*
X030968Y032873D02*
X030480Y032873D01*
X030576Y032972D02*
X031067Y032972D01*
X031165Y033070D02*
X030675Y033070D01*
X030773Y033169D02*
X031264Y033169D01*
X031362Y033267D02*
X030872Y033267D01*
X030970Y033366D02*
X031461Y033366D01*
X031559Y033464D02*
X031069Y033464D01*
X030971Y034131D02*
X030000Y033160D01*
X030000Y024050D01*
X029800Y023850D01*
X029202Y023850D01*
X029102Y023750D01*
X029340Y023502D02*
X028812Y023502D01*
X028736Y023578D01*
X028736Y023922D01*
X028807Y023993D01*
X028774Y024012D01*
X028746Y024040D01*
X028726Y024074D01*
X028716Y024112D01*
X028716Y024241D01*
X029093Y024241D01*
X029093Y024259D01*
X028716Y024259D01*
X028716Y024388D01*
X028726Y024426D01*
X028746Y024460D01*
X028774Y024488D01*
X028807Y024507D01*
X028744Y024570D01*
X028675Y024570D01*
X028525Y024570D01*
X028325Y024770D01*
X028280Y024815D01*
X028280Y023125D01*
X028716Y022688D01*
X028716Y022741D01*
X029093Y022741D01*
X029093Y022759D01*
X028716Y022759D01*
X028716Y022888D01*
X028726Y022926D01*
X028746Y022960D01*
X028774Y022988D01*
X028807Y023007D01*
X028736Y023078D01*
X028736Y023422D01*
X028812Y023498D01*
X029338Y023498D01*
X029340Y023502D01*
X029431Y023040D02*
X029585Y023040D01*
X029593Y023028D01*
X029593Y022764D01*
X029646Y022711D01*
X029631Y022702D01*
X029603Y022674D01*
X029583Y022640D01*
X029573Y022602D01*
X029573Y022463D01*
X029881Y022463D01*
X029881Y022425D01*
X029919Y022425D01*
X029919Y022156D01*
X029952Y022156D01*
X029525Y021730D01*
X028668Y021730D01*
X027923Y022382D01*
X027875Y022430D01*
X027868Y022430D01*
X027862Y022435D01*
X027794Y022430D01*
X027256Y022430D01*
X027188Y022498D01*
X026608Y022498D01*
X026601Y022491D01*
X026601Y022509D01*
X026608Y022502D01*
X027188Y022502D01*
X027216Y022530D01*
X027391Y022530D01*
X027520Y022659D01*
X027920Y023059D01*
X027920Y022975D01*
X028025Y022870D01*
X028736Y022159D01*
X028736Y022078D01*
X028812Y022002D01*
X029392Y022002D01*
X029469Y022078D01*
X029469Y022422D01*
X029398Y022493D01*
X029431Y022512D01*
X029459Y022540D01*
X029478Y022574D01*
X029489Y022612D01*
X029489Y022741D01*
X029111Y022741D01*
X029111Y022759D01*
X029489Y022759D01*
X029489Y022888D01*
X029478Y022926D01*
X029459Y022960D01*
X029431Y022988D01*
X029398Y023007D01*
X029431Y023040D01*
X029414Y023023D02*
X029593Y023023D01*
X029593Y022925D02*
X029479Y022925D01*
X029489Y022826D02*
X029593Y022826D01*
X029630Y022728D02*
X029489Y022728D01*
X029489Y022629D02*
X029580Y022629D01*
X029573Y022531D02*
X029449Y022531D01*
X029459Y022432D02*
X029881Y022432D01*
X029881Y022425D02*
X029573Y022425D01*
X029573Y022287D01*
X029583Y022248D01*
X029603Y022214D01*
X029631Y022186D01*
X029665Y022167D01*
X029703Y022156D01*
X029881Y022156D01*
X029881Y022425D01*
X029881Y022334D02*
X029919Y022334D01*
X029919Y022235D02*
X029881Y022235D01*
X029932Y022137D02*
X029469Y022137D01*
X029469Y022235D02*
X029591Y022235D01*
X029573Y022334D02*
X029469Y022334D01*
X029429Y022038D02*
X029833Y022038D01*
X029735Y021940D02*
X028428Y021940D01*
X028316Y022038D02*
X028776Y022038D01*
X028736Y022137D02*
X028203Y022137D01*
X028090Y022235D02*
X028660Y022235D01*
X028562Y022334D02*
X027978Y022334D01*
X027865Y022432D02*
X028463Y022432D01*
X028365Y022531D02*
X027392Y022531D01*
X027490Y022629D02*
X028266Y022629D01*
X028168Y022728D02*
X027589Y022728D01*
X027687Y022826D02*
X028069Y022826D01*
X027971Y022925D02*
X027786Y022925D01*
X027884Y023023D02*
X027920Y023023D01*
X028100Y023050D02*
X028100Y025850D01*
X028320Y026070D01*
X029290Y026070D01*
X029700Y026350D01*
X029700Y033350D01*
X030670Y034330D01*
X030680Y034330D01*
X030672Y034328D02*
X030670Y034330D01*
X030672Y034328D02*
X033550Y034328D01*
X033550Y034525D02*
X033105Y034525D01*
X033550Y034525D01*
X033550Y034525D01*
X033996Y034525D01*
X033996Y034602D01*
X033985Y034640D01*
X033976Y034657D01*
X033976Y035423D01*
X033900Y035499D01*
X033505Y035499D01*
X033480Y035525D01*
X033480Y035625D01*
X033435Y035670D01*
X033467Y035702D01*
X033467Y035763D01*
X033575Y035870D01*
X033680Y035975D01*
X033680Y037025D01*
X033180Y037525D01*
X033075Y037630D01*
X032943Y037630D01*
X032943Y037770D01*
X033025Y037770D01*
X034158Y036638D01*
X034158Y036456D01*
X034151Y036449D01*
X034151Y035750D01*
X034227Y035674D01*
X035978Y035674D01*
X035994Y035665D01*
X036033Y035654D01*
X036109Y035654D01*
X036109Y036100D01*
X036109Y036545D01*
X036093Y036545D01*
X036093Y036613D01*
X036097Y036618D01*
X036096Y036626D01*
X036126Y036626D01*
X036126Y036545D01*
X036109Y036545D01*
X036109Y036100D01*
X036109Y036100D01*
X036109Y036100D01*
X036109Y035654D01*
X036186Y035654D01*
X036224Y035665D01*
X036241Y035674D01*
X037946Y035674D01*
X037963Y035665D01*
X038001Y035654D01*
X038078Y035654D01*
X038155Y035654D01*
X038193Y035665D01*
X038210Y035674D01*
X039173Y035674D01*
X039249Y035750D01*
X039249Y035812D01*
X039264Y035797D01*
X039378Y035750D01*
X039502Y035750D01*
X039616Y035797D01*
X039703Y035884D01*
X039750Y035998D01*
X039750Y036122D01*
X039703Y036236D01*
X039667Y036271D01*
X039698Y036263D01*
X039837Y036263D01*
X039837Y036571D01*
X039875Y036571D01*
X039875Y036609D01*
X040144Y036609D01*
X040144Y036787D01*
X040133Y036825D01*
X040114Y036859D01*
X040086Y036887D01*
X040052Y036907D01*
X040013Y036917D01*
X039875Y036917D01*
X039875Y036609D01*
X039837Y036609D01*
X039837Y036917D01*
X039698Y036917D01*
X039660Y036907D01*
X039626Y036887D01*
X039598Y036859D01*
X039589Y036844D01*
X039536Y036897D01*
X039152Y036897D01*
X039076Y036821D01*
X039076Y036780D01*
X038935Y036780D01*
X039275Y037120D01*
X039540Y037120D01*
X039555Y037110D01*
X039612Y037120D01*
X039670Y037120D01*
X039683Y037133D01*
X039701Y037136D01*
X039735Y037184D01*
X039776Y037225D01*
X039776Y037244D01*
X039833Y037326D01*
X040031Y037326D01*
X040107Y037402D01*
X040107Y037786D01*
X040043Y037850D01*
X040107Y037914D01*
X040107Y038298D01*
X040031Y038374D01*
X039980Y038374D01*
X039980Y038375D01*
X040145Y038540D01*
X040262Y038540D01*
X040376Y038587D01*
X040450Y038662D01*
X040520Y038592D01*
X040520Y038374D01*
X040469Y038374D01*
X040393Y038298D01*
X040393Y037914D01*
X040446Y037861D01*
X040431Y037852D01*
X040403Y037824D01*
X040383Y037790D01*
X040373Y037752D01*
X040373Y037613D01*
X040681Y037613D01*
X040681Y037575D01*
X040719Y037575D01*
X040719Y037306D01*
X040788Y037306D01*
X040521Y037040D01*
X040410Y036929D01*
X040410Y036750D01*
X040282Y036697D01*
X040144Y036558D01*
X040144Y036571D01*
X039875Y036571D01*
X039875Y036263D01*
X040013Y036263D01*
X040052Y036273D01*
X040065Y036281D01*
X040065Y036174D01*
X040142Y035990D01*
X040282Y035849D01*
X040466Y035773D01*
X040600Y035773D01*
X040599Y035773D01*
X040599Y035631D01*
X033474Y035631D01*
X033480Y035533D02*
X040428Y035533D01*
X040420Y035525D02*
X040420Y035515D01*
X040275Y035341D01*
X040275Y035423D01*
X040199Y035499D01*
X039500Y035499D01*
X039424Y035423D01*
X039424Y033476D01*
X039415Y033459D01*
X039404Y033421D01*
X039404Y033344D01*
X039850Y033344D01*
X039850Y033344D01*
X039404Y033344D01*
X039404Y033267D01*
X033976Y033267D01*
X033976Y033169D02*
X039424Y033169D01*
X039424Y033212D02*
X039424Y032930D01*
X039325Y032930D01*
X039220Y032825D01*
X039120Y032725D01*
X039120Y032375D01*
X039225Y032270D01*
X039316Y032179D01*
X039424Y032179D01*
X039424Y031555D01*
X039351Y031555D01*
X039225Y031430D01*
X039120Y031325D01*
X039120Y030475D01*
X039320Y030275D01*
X039320Y030194D01*
X039363Y030091D01*
X039441Y030013D01*
X039536Y029973D01*
X039634Y029876D01*
X039634Y029779D01*
X039617Y029819D01*
X039539Y029897D01*
X039436Y029940D01*
X039324Y029940D01*
X039272Y029918D01*
X039249Y029926D01*
X039249Y030150D01*
X039173Y030226D01*
X038604Y030226D01*
X038587Y030235D01*
X038548Y030246D01*
X038472Y030246D01*
X038472Y029800D01*
X038472Y029800D01*
X038472Y030246D01*
X038455Y030246D01*
X038455Y030350D01*
X038275Y030530D01*
X035925Y030530D01*
X035733Y030337D01*
X035733Y030246D01*
X035716Y030246D01*
X035716Y029800D01*
X035716Y029800D01*
X035716Y030246D01*
X035639Y030246D01*
X035601Y030235D01*
X035584Y030226D01*
X034227Y030226D01*
X034151Y030150D01*
X034151Y029631D01*
X034101Y029751D01*
X034001Y029851D01*
X033871Y029905D01*
X033742Y029905D01*
X033610Y030037D01*
X033487Y030160D01*
X032748Y030160D01*
X032763Y030174D01*
X032810Y030288D01*
X032810Y030412D01*
X032763Y030526D01*
X032718Y030570D01*
X032775Y030570D01*
X033006Y030801D01*
X033125Y030801D01*
X033125Y030477D01*
X033201Y030401D01*
X033900Y030401D01*
X033976Y030477D01*
X033976Y031046D01*
X033985Y031063D01*
X033996Y031102D01*
X033996Y031178D01*
X033550Y031178D01*
X033105Y031178D01*
X033105Y031161D01*
X032857Y031161D01*
X032625Y030930D01*
X032225Y030930D01*
X032120Y030825D01*
X031880Y030585D01*
X031880Y031875D01*
X032191Y032186D01*
X032237Y032074D01*
X032324Y031987D01*
X032438Y031940D01*
X032562Y031940D01*
X032676Y031987D01*
X032683Y031995D01*
X032911Y031995D01*
X032911Y031957D01*
X032603Y031957D01*
X032603Y031856D01*
X032522Y031890D01*
X032398Y031890D01*
X032284Y031843D01*
X032197Y031756D01*
X032150Y031642D01*
X032150Y031518D01*
X032197Y031404D01*
X032284Y031317D01*
X032398Y031270D01*
X032522Y031270D01*
X032573Y031291D01*
X032660Y031235D01*
X032699Y031196D01*
X032699Y031196D01*
X032700Y031195D01*
X032721Y031195D01*
X032739Y031184D01*
X032794Y031195D01*
X033105Y031195D01*
X033105Y031178D01*
X033550Y031178D01*
X033550Y031178D01*
X033550Y031178D01*
X033996Y031178D01*
X033996Y031255D01*
X033985Y031293D01*
X033976Y031310D01*
X033976Y034393D01*
X033985Y034410D01*
X033996Y034448D01*
X033996Y034525D01*
X033550Y034525D01*
X033550Y034525D01*
X033550Y034722D02*
X032478Y034722D01*
X032472Y034722D01*
X032626Y034876D01*
X032626Y035310D01*
X032682Y035617D02*
X032434Y035617D01*
X032381Y035564D01*
X032372Y035579D01*
X032344Y035607D01*
X032310Y035627D01*
X032272Y035637D01*
X032133Y035637D01*
X032133Y035329D01*
X032095Y035329D01*
X032095Y035291D01*
X031826Y035291D01*
X031826Y035113D01*
X031837Y035075D01*
X031856Y035041D01*
X031884Y035013D01*
X031918Y034993D01*
X031957Y034983D01*
X032069Y034983D01*
X032040Y034912D01*
X032040Y034788D01*
X032087Y034674D01*
X032174Y034587D01*
X032288Y034540D01*
X032412Y034540D01*
X032416Y034542D01*
X033105Y034542D01*
X033105Y034525D01*
X033105Y034508D01*
X030757Y034508D01*
X030755Y034510D01*
X030744Y034510D01*
X030744Y034510D01*
X030670Y034510D01*
X030595Y034510D01*
X030595Y034510D01*
X030595Y034510D01*
X030542Y034457D01*
X030490Y034405D01*
X030490Y034404D01*
X029572Y033477D01*
X029520Y033425D01*
X029520Y033424D01*
X029520Y033424D01*
X029520Y033350D01*
X029520Y026445D01*
X029364Y026338D01*
X029364Y026371D01*
X029095Y026371D01*
X029095Y026409D01*
X029364Y026409D01*
X029364Y026587D01*
X029353Y026625D01*
X029334Y026659D01*
X029306Y026687D01*
X029272Y026707D01*
X029233Y026717D01*
X029095Y026717D01*
X029095Y026409D01*
X029057Y026409D01*
X029057Y026624D01*
X029072Y026639D01*
X029072Y029187D01*
X028996Y029263D01*
X028180Y029263D01*
X028180Y029572D01*
X028315Y029628D01*
X028422Y029735D01*
X028480Y029874D01*
X028480Y029999D01*
X028648Y029999D01*
X028648Y030690D01*
X028748Y030690D01*
X028748Y030790D01*
X029163Y030790D01*
X029163Y031350D01*
X029152Y031388D01*
X029133Y031422D01*
X029105Y031450D01*
X029070Y031470D01*
X029032Y031480D01*
X028748Y031480D01*
X028748Y030790D01*
X028648Y030790D01*
X028648Y031480D01*
X028363Y031480D01*
X028325Y031470D01*
X028291Y031450D01*
X028263Y031422D01*
X028243Y031388D01*
X028233Y031350D01*
X028233Y030966D01*
X027909Y030966D01*
X027876Y030980D01*
X027724Y030980D01*
X027691Y030966D01*
X027352Y030966D01*
X027347Y030961D01*
X027347Y031384D01*
X027312Y031419D01*
X027312Y031506D01*
X027314Y031504D01*
X027348Y031484D01*
X027387Y031474D01*
X027750Y031474D01*
X027750Y031810D01*
X027850Y031810D01*
X027850Y031910D01*
X028344Y031910D01*
X028344Y032063D01*
X028996Y032063D01*
X029072Y032139D01*
X029072Y033484D01*
X029609Y034021D01*
X030029Y034021D01*
X030105Y034097D01*
X030105Y034445D01*
X030646Y034986D01*
X030690Y035092D01*
X030690Y035908D01*
X030685Y035920D01*
X030685Y036559D01*
X030609Y036635D01*
X029791Y036635D01*
X029715Y036559D01*
X029715Y035821D01*
X029791Y035745D01*
X030095Y035745D01*
X030110Y035730D01*
X030110Y035385D01*
X030090Y035446D01*
X030056Y035513D01*
X030012Y035573D01*
X029959Y035626D01*
X029899Y035670D01*
X029832Y035704D01*
X029761Y035727D01*
X029687Y035739D01*
X029673Y035739D01*
X029673Y035286D01*
X029627Y035286D01*
X029627Y035241D01*
X029175Y035241D01*
X029175Y035226D01*
X029187Y035152D01*
X029210Y035081D01*
X029244Y035015D01*
X029288Y034954D01*
X029311Y034931D01*
X029271Y034931D01*
X029195Y034855D01*
X029195Y034682D01*
X029072Y034559D01*
X029072Y034687D01*
X028996Y034763D01*
X028050Y034763D01*
X028050Y035845D01*
X028107Y035902D01*
X028107Y036286D01*
X028054Y036339D01*
X028069Y036348D01*
X028097Y036376D01*
X028117Y036410D01*
X028127Y036448D01*
X028127Y036587D01*
X027819Y036587D01*
X027819Y036625D01*
X027781Y036625D01*
X027781Y036894D01*
X027603Y036894D01*
X027565Y036883D01*
X027531Y036864D01*
X027503Y036836D01*
X027483Y036802D01*
X027473Y036763D01*
X027473Y036625D01*
X027781Y036625D01*
X027781Y036587D01*
X027473Y036587D01*
X027473Y036448D01*
X027483Y036410D01*
X027503Y036376D01*
X027531Y036348D01*
X027546Y036339D01*
X027493Y036286D01*
X027493Y035902D01*
X027550Y035845D01*
X027550Y034763D01*
X026604Y034763D01*
X026528Y034687D01*
X026528Y033146D01*
X026428Y033146D01*
X026390Y033183D01*
X025810Y033183D01*
X025780Y033153D01*
X025780Y033347D01*
X025810Y033317D01*
X026390Y033317D01*
X026466Y033393D01*
X026466Y033816D01*
X026432Y033850D01*
X026466Y033884D01*
X026466Y034307D01*
X026390Y034383D01*
X025810Y034383D01*
X025734Y034307D01*
X025734Y033884D01*
X025768Y033850D01*
X025734Y033816D01*
X025734Y033697D01*
X025651Y033780D01*
X025021Y034410D01*
X024249Y034410D01*
X024244Y034405D01*
X024244Y034511D01*
X023975Y034511D01*
X023975Y034549D01*
X024244Y034549D01*
X024244Y034727D01*
X024233Y034765D01*
X024214Y034799D01*
X024186Y034827D01*
X024152Y034847D01*
X024113Y034857D01*
X023975Y034857D01*
X023975Y034549D01*
X023937Y034549D01*
X023937Y034857D01*
X023798Y034857D01*
X023782Y034853D01*
X023817Y034888D01*
X023897Y035082D01*
X023897Y035292D01*
X023817Y035486D01*
X023719Y035584D01*
X023866Y035584D01*
X023900Y035618D01*
X023934Y035584D01*
X024281Y035584D01*
X024183Y035486D01*
X024102Y035292D01*
X024102Y035082D01*
X024183Y034888D01*
X024331Y034740D01*
X024525Y034660D01*
X024735Y034660D01*
X024929Y034740D01*
X025077Y034888D01*
X025157Y035082D01*
X025157Y035292D01*
X025077Y035486D01*
X024979Y035584D01*
X025066Y035584D01*
X025142Y035660D01*
X025142Y036070D01*
X025175Y036070D01*
X025280Y036175D01*
X025280Y037175D01*
X025714Y037609D01*
X025714Y037313D01*
X025790Y037237D01*
X026370Y037237D01*
X026408Y037274D01*
X026480Y037274D01*
X026485Y037262D01*
X026485Y036987D01*
X026522Y036950D01*
X026522Y036949D01*
X026457Y036884D01*
X026457Y035906D01*
X026456Y035911D01*
X026436Y035945D01*
X026408Y035973D01*
X026374Y035993D01*
X026336Y036003D01*
X026109Y036003D01*
X026109Y035724D01*
X026051Y035724D01*
X026051Y035667D01*
X025694Y035667D01*
X025694Y035518D01*
X025704Y035480D01*
X025724Y035446D01*
X025752Y035418D01*
X025786Y035398D01*
X025824Y035388D01*
X026051Y035388D01*
X026051Y035667D01*
X026109Y035667D01*
X026109Y035388D01*
X026336Y035388D01*
X026374Y035398D01*
X026408Y035418D01*
X026436Y035446D01*
X026456Y035480D01*
X026466Y035518D01*
X026466Y035587D01*
X026534Y035519D01*
X027271Y035519D01*
X027347Y035595D01*
X027347Y036884D01*
X027320Y036912D01*
X027395Y036987D01*
X027395Y036994D01*
X027813Y037412D01*
X027942Y037541D01*
X028012Y037710D01*
X028012Y037927D01*
X028026Y037942D01*
X028026Y038758D01*
X027950Y038834D01*
X027154Y038834D01*
X027077Y038758D01*
X027077Y037978D01*
X026925Y037826D01*
X026848Y037826D01*
X026836Y037821D01*
X026725Y037821D01*
X026980Y038075D01*
X026980Y038675D01*
X027275Y038970D01*
X027795Y038970D01*
X027989Y038890D01*
X028211Y038890D01*
X028405Y038970D01*
X028752Y038970D01*
X028752Y038920D01*
X029232Y038920D01*
X029232Y038880D01*
X029272Y038880D01*
X029272Y038920D01*
X029752Y038920D01*
X029752Y039060D01*
X029742Y039098D01*
X029722Y039132D01*
X029694Y039160D01*
X029689Y039163D01*
X029732Y039206D01*
X029732Y039594D01*
X029680Y039646D01*
X029680Y039654D01*
X029732Y039706D01*
X029732Y040094D01*
X029680Y040146D01*
X029680Y040154D01*
X029732Y040206D01*
X029732Y040594D01*
X029680Y040646D01*
X029680Y040725D01*
X029575Y040830D01*
X029405Y041000D01*
X031327Y041000D01*
X031290Y040912D01*
X031290Y040795D01*
X031168Y040673D01*
X031168Y040670D01*
X030944Y040670D01*
X030868Y040594D01*
X030868Y040206D01*
X030924Y040150D01*
X030868Y040094D01*
X030868Y039706D01*
X030924Y039650D01*
X030868Y039594D01*
X030868Y039206D01*
X030924Y039150D01*
X030868Y039094D01*
X030868Y038706D01*
X030897Y038677D01*
X030787Y038677D01*
X030748Y038667D01*
X030714Y038647D01*
X030686Y038619D01*
X030667Y038585D01*
X030656Y038547D01*
X030656Y038369D01*
X030925Y038369D01*
X030925Y038331D01*
X030656Y038331D01*
X030656Y038153D01*
X030662Y038130D01*
X029358Y038130D01*
X029276Y038213D01*
X029162Y038260D01*
X029038Y038260D01*
X028924Y038213D01*
X028837Y038126D01*
X028790Y038012D01*
X028790Y037888D01*
X028837Y037774D01*
X028924Y037687D01*
X029038Y037640D01*
X029162Y037640D01*
X029276Y037687D01*
X029358Y037770D01*
X031777Y037770D01*
X031777Y037081D01*
X031853Y037005D01*
X032829Y037005D01*
X032790Y036912D01*
X032790Y036788D01*
X032837Y036674D01*
X032838Y036674D01*
X032429Y036674D01*
X032370Y036615D01*
X032262Y036660D01*
X032138Y036660D01*
X032024Y036613D01*
X031937Y036526D01*
X031890Y036412D01*
X031890Y036288D01*
X031937Y036174D01*
X032024Y036087D01*
X032056Y036074D01*
X031768Y036074D01*
X031800Y036151D01*
X031800Y036349D01*
X031724Y036533D01*
X031583Y036674D01*
X031399Y036750D01*
X031201Y036750D01*
X031017Y036674D01*
X030876Y036533D01*
X030800Y036349D01*
X030800Y036151D01*
X030876Y035967D01*
X031017Y035826D01*
X031182Y035758D01*
X031178Y035757D01*
X031100Y035732D01*
X031027Y035695D01*
X030961Y035647D01*
X030903Y035589D01*
X030855Y035523D01*
X030818Y035450D01*
X030793Y035372D01*
X030781Y035300D01*
X031250Y035300D01*
X031250Y035200D01*
X030781Y035200D01*
X030793Y035128D01*
X030818Y035050D01*
X030855Y034977D01*
X030903Y034911D01*
X030961Y034853D01*
X031027Y034805D01*
X031100Y034768D01*
X031178Y034743D01*
X031250Y034731D01*
X031250Y035200D01*
X031350Y035200D01*
X031350Y035300D01*
X031819Y035300D01*
X031807Y035372D01*
X031782Y035450D01*
X031745Y035523D01*
X031697Y035589D01*
X031639Y035647D01*
X031573Y035695D01*
X031500Y035732D01*
X031422Y035757D01*
X031418Y035758D01*
X031503Y035793D01*
X031581Y035714D01*
X032353Y035714D01*
X032353Y035702D01*
X032429Y035626D01*
X032673Y035626D01*
X032682Y035617D01*
X032424Y035631D02*
X032295Y035631D01*
X032133Y035631D02*
X032095Y035631D01*
X032095Y035637D02*
X031957Y035637D01*
X031918Y035627D01*
X031884Y035607D01*
X031856Y035579D01*
X031837Y035545D01*
X031826Y035507D01*
X031826Y035329D01*
X032095Y035329D01*
X032095Y035637D01*
X032095Y035533D02*
X032133Y035533D01*
X032133Y035434D02*
X032095Y035434D01*
X032095Y035336D02*
X032133Y035336D01*
X031826Y035336D02*
X031813Y035336D01*
X031826Y035434D02*
X031787Y035434D01*
X031833Y035533D02*
X031737Y035533D01*
X031654Y035631D02*
X031934Y035631D01*
X031566Y035730D02*
X031504Y035730D01*
X031656Y035894D02*
X031300Y036250D01*
X031485Y036715D02*
X032821Y036715D01*
X032790Y036813D02*
X029163Y036813D01*
X029163Y036850D02*
X029152Y036888D01*
X029133Y036922D01*
X029105Y036950D01*
X029070Y036970D01*
X029032Y036980D01*
X028748Y036980D01*
X028748Y036290D01*
X029163Y036290D01*
X029163Y036850D01*
X029139Y036912D02*
X029745Y036912D01*
X029715Y036941D02*
X029791Y036865D01*
X030609Y036865D01*
X030685Y036941D01*
X030685Y037060D01*
X030790Y037060D01*
X030838Y037040D01*
X030962Y037040D01*
X031076Y037087D01*
X031163Y037174D01*
X031210Y037288D01*
X031210Y037412D01*
X031163Y037526D01*
X031076Y037613D01*
X030962Y037660D01*
X030838Y037660D01*
X030790Y037640D01*
X030685Y037640D01*
X030685Y037679D01*
X030609Y037755D01*
X029791Y037755D01*
X029715Y037679D01*
X029715Y036941D01*
X029715Y037010D02*
X027411Y037010D01*
X027320Y036912D02*
X028256Y036912D01*
X028263Y036922D02*
X028243Y036888D01*
X028233Y036850D01*
X028233Y036290D01*
X028648Y036290D01*
X028648Y036980D01*
X028363Y036980D01*
X028325Y036970D01*
X028291Y036950D01*
X028263Y036922D01*
X028233Y036813D02*
X028110Y036813D01*
X028117Y036802D02*
X028097Y036836D01*
X028069Y036864D01*
X028035Y036883D01*
X027997Y036894D01*
X027819Y036894D01*
X027819Y036625D01*
X028127Y036625D01*
X028127Y036763D01*
X028117Y036802D01*
X028127Y036715D02*
X028233Y036715D01*
X028233Y036616D02*
X027819Y036616D01*
X027781Y036616D02*
X027347Y036616D01*
X027347Y036518D02*
X027473Y036518D01*
X027481Y036419D02*
X027347Y036419D01*
X027347Y036321D02*
X027528Y036321D01*
X027493Y036222D02*
X027347Y036222D01*
X027347Y036124D02*
X027493Y036124D01*
X027493Y036025D02*
X027347Y036025D01*
X027347Y035927D02*
X027493Y035927D01*
X027550Y035828D02*
X027347Y035828D01*
X027347Y035730D02*
X027550Y035730D01*
X027550Y035631D02*
X027347Y035631D01*
X027284Y035533D02*
X027550Y035533D01*
X027550Y035434D02*
X026424Y035434D01*
X026466Y035533D02*
X026520Y035533D01*
X026457Y035927D02*
X026447Y035927D01*
X026457Y036025D02*
X025142Y036025D01*
X025142Y035927D02*
X025713Y035927D01*
X025704Y035911D02*
X025694Y035873D01*
X025694Y035724D01*
X026051Y035724D01*
X026051Y036003D01*
X025824Y036003D01*
X025786Y035993D01*
X025752Y035973D01*
X025724Y035945D01*
X025704Y035911D01*
X025694Y035828D02*
X025142Y035828D01*
X025142Y035730D02*
X025694Y035730D01*
X025694Y035631D02*
X025113Y035631D01*
X025030Y035533D02*
X025694Y035533D01*
X025736Y035434D02*
X025098Y035434D01*
X025139Y035336D02*
X027550Y035336D01*
X027550Y035237D02*
X025157Y035237D01*
X025157Y035139D02*
X027550Y035139D01*
X027550Y035040D02*
X026464Y035040D01*
X026456Y035054D02*
X026428Y035082D01*
X026394Y035102D01*
X026356Y035112D01*
X026129Y035112D01*
X026129Y034833D01*
X026486Y034833D01*
X026486Y034982D01*
X026476Y035020D01*
X026456Y035054D01*
X026486Y034942D02*
X027550Y034942D01*
X027550Y034843D02*
X026486Y034843D01*
X026486Y034776D02*
X026129Y034776D01*
X026129Y034833D01*
X026071Y034833D01*
X026071Y034776D01*
X025714Y034776D01*
X025714Y034627D01*
X025724Y034589D01*
X025744Y034555D01*
X025772Y034527D01*
X025806Y034507D01*
X025844Y034497D01*
X026071Y034497D01*
X026071Y034776D01*
X026129Y034776D01*
X026129Y034497D01*
X026356Y034497D01*
X026394Y034507D01*
X026428Y034527D01*
X026456Y034555D01*
X026476Y034589D01*
X026486Y034627D01*
X026486Y034776D01*
X026486Y034745D02*
X026585Y034745D01*
X026528Y034646D02*
X026486Y034646D01*
X026449Y034548D02*
X026528Y034548D01*
X026528Y034449D02*
X024244Y034449D01*
X024244Y034646D02*
X025714Y034646D01*
X025714Y034745D02*
X024933Y034745D01*
X025032Y034843D02*
X025714Y034843D01*
X025714Y034833D02*
X025714Y034982D01*
X025724Y035020D01*
X025744Y035054D01*
X025772Y035082D01*
X025806Y035102D01*
X025844Y035112D01*
X026071Y035112D01*
X026071Y034833D01*
X025714Y034833D01*
X025714Y034942D02*
X025099Y034942D01*
X025140Y035040D02*
X025736Y035040D01*
X026071Y035040D02*
X026129Y035040D01*
X026129Y034942D02*
X026071Y034942D01*
X026071Y034843D02*
X026129Y034843D01*
X026129Y034745D02*
X026071Y034745D01*
X026071Y034646D02*
X026129Y034646D01*
X026129Y034548D02*
X026071Y034548D01*
X025751Y034548D02*
X023975Y034548D01*
X023975Y034511D02*
X023975Y034203D01*
X024042Y034203D01*
X023784Y033945D01*
X023669Y034059D01*
X023475Y034140D01*
X023265Y034140D01*
X023071Y034059D01*
X022923Y033911D01*
X022843Y033717D01*
X022843Y033507D01*
X022923Y033313D01*
X023014Y033222D01*
X023014Y033157D01*
X023002Y033157D01*
X022926Y033081D01*
X022926Y032619D01*
X023002Y032543D01*
X023156Y032543D01*
X023083Y032506D01*
X023013Y032455D01*
X022952Y032394D01*
X022902Y032324D01*
X022863Y032248D01*
X022836Y032166D01*
X022824Y032087D01*
X023320Y032087D01*
X023320Y031987D01*
X023420Y031987D01*
X023420Y031491D01*
X023498Y031503D01*
X023580Y031530D01*
X023657Y031569D01*
X023727Y031620D01*
X023788Y031681D01*
X023838Y031750D01*
X023877Y031827D01*
X023904Y031909D01*
X023916Y031987D01*
X024102Y031987D01*
X024102Y031932D02*
X024183Y031739D01*
X024331Y031590D01*
X024525Y031510D01*
X024735Y031510D01*
X024929Y031590D01*
X025077Y031739D01*
X025157Y031932D01*
X025157Y032142D01*
X025077Y032336D01*
X024929Y032485D01*
X024788Y032543D01*
X024848Y032543D01*
X024924Y032619D01*
X024924Y033081D01*
X024866Y033139D01*
X024929Y033165D01*
X025077Y033313D01*
X025080Y033321D01*
X025080Y032359D01*
X025380Y032059D01*
X025380Y026559D01*
X026180Y025759D01*
X026226Y025713D01*
X026224Y025713D01*
X026210Y025698D01*
X026199Y025709D01*
X026165Y025728D01*
X026127Y025739D01*
X025958Y025739D01*
X025958Y025362D01*
X025862Y025362D01*
X025862Y025739D01*
X025693Y025739D01*
X025655Y025728D01*
X025621Y025709D01*
X025593Y025681D01*
X025573Y025647D01*
X025563Y025608D01*
X025563Y025361D01*
X025862Y025361D01*
X025862Y025265D01*
X025563Y025265D01*
X025563Y025142D01*
X025551Y025154D01*
X025505Y025204D01*
X025497Y025204D01*
X025491Y025210D01*
X025424Y025207D01*
X025280Y025214D01*
X025280Y025229D01*
X025204Y025305D01*
X024943Y025305D01*
X025077Y025439D01*
X025157Y025633D01*
X025157Y025843D01*
X025077Y026037D01*
X024929Y026185D01*
X024735Y026266D01*
X024525Y026266D01*
X024331Y026185D01*
X024183Y026037D01*
X024102Y025843D01*
X024102Y025633D01*
X024183Y025439D01*
X024331Y025291D01*
X024520Y025213D01*
X024520Y024885D01*
X024510Y024895D01*
X024510Y025012D01*
X024463Y025126D01*
X024376Y025213D01*
X024262Y025260D01*
X024138Y025260D01*
X024024Y025213D01*
X023937Y025126D01*
X023924Y025093D01*
X023924Y025281D01*
X023848Y025357D01*
X023836Y025357D01*
X023836Y025420D01*
X023839Y025490D01*
X023839Y025491D01*
X023897Y025633D01*
X023897Y025843D01*
X023817Y026037D01*
X023669Y026185D01*
X023475Y026266D01*
X023265Y026266D01*
X023071Y026185D01*
X022923Y026037D01*
X022843Y025843D01*
X022843Y025633D01*
X022923Y025439D01*
X022985Y025377D01*
X022948Y025367D01*
X022914Y025347D01*
X022886Y025319D01*
X022867Y025285D01*
X022856Y025247D01*
X022856Y025069D01*
X023125Y025069D01*
X023125Y025031D01*
X022856Y025031D01*
X022856Y024853D01*
X022867Y024815D01*
X022886Y024781D01*
X022914Y024753D01*
X022948Y024733D01*
X022987Y024723D01*
X023125Y024723D01*
X023125Y025031D01*
X023163Y025031D01*
X023163Y024723D01*
X023302Y024723D01*
X023340Y024733D01*
X023374Y024753D01*
X023402Y024781D01*
X023411Y024796D01*
X023411Y024796D01*
X023464Y024743D01*
X023848Y024743D01*
X023920Y024815D01*
X023937Y024774D01*
X024024Y024687D01*
X024138Y024640D01*
X024255Y024640D01*
X024320Y024575D01*
X024320Y024530D01*
X024248Y024530D01*
X024237Y024539D01*
X024142Y024530D01*
X024021Y024530D01*
X024000Y024509D01*
X023979Y024530D01*
X023621Y024530D01*
X023548Y024457D01*
X023264Y024457D01*
X023200Y024393D01*
X023136Y024457D01*
X022752Y024457D01*
X022750Y024455D01*
X022750Y034262D01*
X022824Y034187D01*
X022938Y034140D01*
X023062Y034140D01*
X023176Y034187D01*
X023232Y034243D01*
X023252Y034223D01*
X023636Y034223D01*
X023689Y034276D01*
X023698Y034261D01*
X023726Y034233D01*
X023760Y034213D01*
X023798Y034203D01*
X023937Y034203D01*
X023937Y034511D01*
X023975Y034511D01*
X023975Y034449D02*
X023937Y034449D01*
X023937Y034351D02*
X023975Y034351D01*
X023975Y034252D02*
X023937Y034252D01*
X023992Y034154D02*
X023094Y034154D01*
X023067Y034055D02*
X022750Y034055D01*
X022750Y033957D02*
X022968Y033957D01*
X022901Y033858D02*
X022750Y033858D01*
X022750Y033760D02*
X022860Y033760D01*
X022843Y033661D02*
X022750Y033661D01*
X022750Y033563D02*
X022843Y033563D01*
X022860Y033464D02*
X022750Y033464D01*
X022750Y033366D02*
X022901Y033366D01*
X022969Y033267D02*
X022750Y033267D01*
X022750Y033169D02*
X023014Y033169D01*
X022926Y033070D02*
X022750Y033070D01*
X022750Y032972D02*
X022926Y032972D01*
X022926Y032873D02*
X022750Y032873D01*
X022750Y032775D02*
X022926Y032775D01*
X022926Y032676D02*
X022750Y032676D01*
X022750Y032578D02*
X022968Y032578D01*
X023046Y032479D02*
X022750Y032479D01*
X022750Y032381D02*
X022943Y032381D01*
X022880Y032282D02*
X022750Y032282D01*
X022750Y032184D02*
X022842Y032184D01*
X022750Y032085D02*
X023320Y032085D01*
X023320Y031987D02*
X022824Y031987D01*
X022750Y031987D01*
X022824Y031987D02*
X022836Y031909D01*
X022863Y031827D01*
X022902Y031750D01*
X022952Y031681D01*
X023013Y031620D01*
X023083Y031569D01*
X023160Y031530D01*
X023242Y031503D01*
X023320Y031491D01*
X023320Y031987D01*
X023420Y031987D01*
X023420Y032087D01*
X023916Y032087D01*
X023904Y032166D01*
X023877Y032248D01*
X023838Y032324D01*
X023788Y032394D01*
X023727Y032455D01*
X023657Y032506D01*
X023623Y032523D01*
X023687Y032523D01*
X023687Y032831D01*
X023725Y032831D01*
X023725Y032869D01*
X023994Y032869D01*
X024125Y032869D01*
X024125Y032831D01*
X023725Y032831D01*
X023725Y032523D01*
X023863Y032523D01*
X023902Y032533D01*
X023925Y032547D01*
X023948Y032533D01*
X023987Y032523D01*
X024125Y032523D01*
X024125Y032831D01*
X024163Y032831D01*
X024163Y032523D01*
X024302Y032523D01*
X024340Y032533D01*
X024374Y032553D01*
X024402Y032581D01*
X024411Y032596D01*
X024464Y032543D01*
X024472Y032543D01*
X024331Y032485D01*
X024183Y032336D01*
X024102Y032142D01*
X024102Y031932D01*
X024121Y031888D02*
X023897Y031888D01*
X023916Y031987D02*
X023420Y031987D01*
X023420Y032085D02*
X024102Y032085D01*
X024119Y032184D02*
X023898Y032184D01*
X023860Y032282D02*
X024160Y032282D01*
X024227Y032381D02*
X023797Y032381D01*
X023694Y032479D02*
X024325Y032479D01*
X024399Y032578D02*
X024430Y032578D01*
X024163Y032578D02*
X024125Y032578D01*
X024125Y032676D02*
X024163Y032676D01*
X024163Y032775D02*
X024125Y032775D01*
X024125Y032869D02*
X024125Y033177D01*
X023987Y033177D01*
X023948Y033167D01*
X023925Y033153D01*
X023902Y033167D01*
X023863Y033177D01*
X023725Y033177D01*
X023725Y032869D01*
X023687Y032869D01*
X023687Y033177D01*
X023681Y033177D01*
X023817Y033313D01*
X023850Y033392D01*
X023853Y033392D01*
X024102Y033641D01*
X024102Y033507D01*
X024183Y033313D01*
X024325Y033171D01*
X024302Y033177D01*
X024163Y033177D01*
X024163Y032869D01*
X024125Y032869D01*
X024125Y032873D02*
X024163Y032873D01*
X024163Y032972D02*
X024125Y032972D01*
X024125Y033070D02*
X024163Y033070D01*
X024163Y033169D02*
X024125Y033169D01*
X024229Y033267D02*
X023771Y033267D01*
X023725Y033169D02*
X023687Y033169D01*
X023687Y033070D02*
X023725Y033070D01*
X023725Y032972D02*
X023687Y032972D01*
X023687Y032873D02*
X023725Y032873D01*
X023725Y032775D02*
X023687Y032775D01*
X023687Y032676D02*
X023725Y032676D01*
X023725Y032578D02*
X023687Y032578D01*
X023194Y032850D02*
X023194Y033436D01*
X023370Y033612D01*
X023772Y033957D02*
X023795Y033957D01*
X023894Y034055D02*
X023673Y034055D01*
X023665Y034252D02*
X023707Y034252D01*
X023444Y034530D02*
X023080Y034530D01*
X023000Y034450D01*
X022901Y034745D02*
X022750Y034745D01*
X022824Y034713D02*
X022750Y034638D01*
X022750Y035569D01*
X022768Y035564D01*
X022917Y035564D01*
X022917Y035921D01*
X022974Y035921D01*
X022974Y035564D01*
X023001Y035564D01*
X022923Y035486D01*
X022843Y035292D01*
X022843Y035082D01*
X022923Y034888D01*
X023051Y034760D01*
X022938Y034760D01*
X022824Y034713D01*
X022758Y034646D02*
X022750Y034646D01*
X022750Y034843D02*
X022968Y034843D01*
X022901Y034942D02*
X022750Y034942D01*
X022750Y035040D02*
X022860Y035040D01*
X022843Y035139D02*
X022750Y035139D01*
X022750Y035237D02*
X022843Y035237D01*
X022861Y035336D02*
X022750Y035336D01*
X022750Y035434D02*
X022901Y035434D01*
X022970Y035533D02*
X022750Y035533D01*
X022917Y035631D02*
X022974Y035631D01*
X022974Y035730D02*
X022917Y035730D01*
X022917Y035828D02*
X022974Y035828D01*
X022974Y035921D02*
X022974Y035979D01*
X022917Y035979D01*
X022917Y036336D01*
X022768Y036336D01*
X022750Y036331D01*
X022750Y037428D01*
X023184Y037428D01*
X023184Y038000D01*
X023284Y038000D01*
X023284Y038100D01*
X023856Y038100D01*
X023856Y038542D01*
X023846Y038580D01*
X023826Y038615D01*
X023798Y038642D01*
X023764Y038662D01*
X023726Y038672D01*
X023284Y038672D01*
X023284Y038100D01*
X023184Y038100D01*
X023184Y038672D01*
X022750Y038672D01*
X022750Y041000D01*
X024334Y041000D01*
X024155Y040769D01*
X024110Y040725D01*
X024110Y040712D01*
X024102Y040701D01*
X024103Y040695D01*
X023849Y040800D01*
X023551Y040800D01*
X023275Y040686D01*
X023064Y040475D01*
X022950Y040199D01*
X022950Y039901D01*
X023064Y039625D01*
X023275Y039414D01*
X023551Y039300D01*
X023849Y039300D01*
X024110Y039408D01*
X024110Y037571D01*
X024082Y037503D01*
X024082Y036902D01*
X024070Y036873D01*
X024070Y036650D01*
X024110Y036553D01*
X024110Y036316D01*
X023934Y036316D01*
X023900Y036282D01*
X023866Y036316D01*
X023670Y036316D01*
X023817Y036463D01*
X023897Y036657D01*
X023897Y036867D01*
X023817Y037061D01*
X023669Y037209D01*
X023475Y037289D01*
X023265Y037289D01*
X023071Y037209D01*
X022923Y037061D01*
X022843Y036867D01*
X022843Y036657D01*
X022923Y036463D01*
X023050Y036336D01*
X022974Y036336D01*
X022974Y035979D01*
X023253Y035979D01*
X023253Y036206D01*
X023243Y036243D01*
X023265Y036234D01*
X023367Y036234D01*
X023367Y035715D01*
X023265Y035715D01*
X023253Y035710D01*
X023253Y035921D01*
X022974Y035921D01*
X022974Y035927D02*
X023367Y035927D01*
X023367Y036025D02*
X023253Y036025D01*
X023253Y036124D02*
X023367Y036124D01*
X023367Y036222D02*
X023249Y036222D01*
X022974Y036222D02*
X022917Y036222D01*
X022917Y036124D02*
X022974Y036124D01*
X022974Y036025D02*
X022917Y036025D01*
X022917Y036321D02*
X022974Y036321D01*
X022967Y036419D02*
X022750Y036419D01*
X022750Y036518D02*
X022900Y036518D01*
X022859Y036616D02*
X022750Y036616D01*
X022750Y036715D02*
X022843Y036715D01*
X022843Y036813D02*
X022750Y036813D01*
X022750Y036912D02*
X022861Y036912D01*
X022902Y037010D02*
X022750Y037010D01*
X022750Y037109D02*
X022971Y037109D01*
X023069Y037207D02*
X022750Y037207D01*
X022750Y037306D02*
X024082Y037306D01*
X024082Y037404D02*
X022750Y037404D01*
X023184Y037503D02*
X023284Y037503D01*
X023284Y037428D02*
X023726Y037428D01*
X023764Y037438D01*
X023798Y037458D01*
X023826Y037485D01*
X023846Y037520D01*
X023856Y037558D01*
X023856Y038000D01*
X023284Y038000D01*
X023284Y037428D01*
X023284Y037601D02*
X023184Y037601D01*
X023184Y037700D02*
X023284Y037700D01*
X023284Y037798D02*
X023184Y037798D01*
X023184Y037897D02*
X023284Y037897D01*
X023284Y037995D02*
X023184Y037995D01*
X023184Y038000D02*
X022750Y038000D01*
X022750Y038100D01*
X023184Y038100D01*
X023184Y038000D01*
X023184Y038094D02*
X022750Y038094D01*
X023184Y038192D02*
X023284Y038192D01*
X023284Y038094D02*
X024110Y038094D01*
X024110Y038192D02*
X023856Y038192D01*
X023856Y038291D02*
X024110Y038291D01*
X024110Y038389D02*
X023856Y038389D01*
X023856Y038488D02*
X024110Y038488D01*
X024110Y038586D02*
X023843Y038586D01*
X024110Y038685D02*
X022750Y038685D01*
X022750Y038783D02*
X024110Y038783D01*
X024110Y038882D02*
X022750Y038882D01*
X022750Y038980D02*
X024110Y038980D01*
X024110Y039079D02*
X022750Y039079D01*
X022750Y039177D02*
X024110Y039177D01*
X024110Y039276D02*
X022750Y039276D01*
X022750Y039374D02*
X023372Y039374D01*
X023217Y039473D02*
X022750Y039473D01*
X022750Y039571D02*
X023118Y039571D01*
X023046Y039670D02*
X022750Y039670D01*
X022750Y039768D02*
X023005Y039768D01*
X022964Y039867D02*
X022750Y039867D01*
X022750Y039965D02*
X022950Y039965D01*
X022950Y040064D02*
X022750Y040064D01*
X022750Y040162D02*
X022950Y040162D01*
X022975Y040261D02*
X022750Y040261D01*
X022750Y040359D02*
X023016Y040359D01*
X023057Y040458D02*
X022750Y040458D01*
X022750Y040556D02*
X023145Y040556D01*
X023244Y040655D02*
X022750Y040655D01*
X022750Y040753D02*
X023437Y040753D01*
X023963Y040753D02*
X024138Y040753D01*
X024218Y040852D02*
X022750Y040852D01*
X022750Y040950D02*
X024295Y040950D01*
X024446Y040852D02*
X028307Y040852D01*
X028290Y040812D02*
X028290Y040688D01*
X028337Y040574D01*
X028412Y040500D01*
X028337Y040426D01*
X028290Y040312D01*
X028290Y040188D01*
X028337Y040074D01*
X028424Y039987D01*
X028538Y039940D01*
X028655Y039940D01*
X028752Y039843D01*
X028772Y039804D01*
X028772Y039706D01*
X028848Y039630D01*
X029500Y039630D01*
X029500Y039170D01*
X028848Y039170D01*
X028828Y039150D01*
X027356Y039150D01*
X027395Y039244D01*
X027395Y039425D01*
X027326Y039592D01*
X027198Y039720D01*
X027031Y039789D01*
X026849Y039789D01*
X026682Y039720D01*
X026554Y039592D01*
X026485Y039425D01*
X026485Y039244D01*
X026554Y039077D01*
X026682Y038949D01*
X026849Y038879D01*
X026929Y038879D01*
X026800Y038750D01*
X026800Y038150D01*
X026500Y037850D01*
X025700Y037850D01*
X025100Y037250D01*
X025100Y036250D01*
X024423Y036250D01*
X024357Y036316D01*
X024290Y036316D01*
X024290Y039579D01*
X024336Y039625D01*
X024450Y039901D01*
X024450Y040199D01*
X024336Y040475D01*
X024290Y040521D01*
X024290Y040650D01*
X024561Y041000D01*
X028412Y041000D01*
X028337Y040926D01*
X028290Y040812D01*
X028290Y040753D02*
X024370Y040753D01*
X024294Y040655D02*
X028304Y040655D01*
X028356Y040556D02*
X024290Y040556D01*
X024343Y040458D02*
X028369Y040458D01*
X028310Y040359D02*
X024384Y040359D01*
X024425Y040261D02*
X028290Y040261D01*
X028301Y040162D02*
X024450Y040162D01*
X024450Y040064D02*
X028348Y040064D01*
X028478Y039965D02*
X024450Y039965D01*
X024436Y039867D02*
X028729Y039867D01*
X028772Y039768D02*
X027082Y039768D01*
X027248Y039670D02*
X028808Y039670D01*
X028900Y039950D02*
X028600Y040250D01*
X028900Y039950D02*
X029050Y039900D01*
X029252Y039900D01*
X029500Y039571D02*
X027334Y039571D01*
X027375Y039473D02*
X029500Y039473D01*
X029500Y039374D02*
X027395Y039374D01*
X027395Y039276D02*
X029500Y039276D01*
X029500Y039177D02*
X027367Y039177D01*
X027186Y038882D02*
X029232Y038882D01*
X029232Y038880D02*
X028752Y038880D01*
X028752Y038740D01*
X028762Y038702D01*
X028782Y038668D01*
X028810Y038640D01*
X028844Y038620D01*
X028882Y038610D01*
X029232Y038610D01*
X029232Y038880D01*
X029272Y038880D02*
X029272Y038610D01*
X029622Y038610D01*
X029660Y038620D01*
X029694Y038640D01*
X029722Y038668D01*
X029742Y038702D01*
X029752Y038740D01*
X029752Y038880D01*
X029272Y038880D01*
X029272Y038882D02*
X030868Y038882D01*
X030868Y038980D02*
X029752Y038980D01*
X029747Y039079D02*
X030868Y039079D01*
X030897Y039177D02*
X029703Y039177D01*
X029732Y039276D02*
X030868Y039276D01*
X030868Y039374D02*
X029732Y039374D01*
X029732Y039473D02*
X030868Y039473D01*
X030868Y039571D02*
X029732Y039571D01*
X029695Y039670D02*
X030905Y039670D01*
X030868Y039768D02*
X029732Y039768D01*
X029732Y039867D02*
X030868Y039867D01*
X030868Y039965D02*
X029732Y039965D01*
X029732Y040064D02*
X030868Y040064D01*
X030912Y040162D02*
X029688Y040162D01*
X029732Y040261D02*
X030868Y040261D01*
X030868Y040359D02*
X029732Y040359D01*
X029732Y040458D02*
X030868Y040458D01*
X030868Y040556D02*
X029732Y040556D01*
X029680Y040655D02*
X030929Y040655D01*
X031248Y040753D02*
X029652Y040753D01*
X029553Y040852D02*
X031290Y040852D01*
X031306Y040950D02*
X029455Y040950D01*
X029252Y040400D02*
X029150Y040400D01*
X028800Y040750D01*
X028600Y040750D01*
X028362Y040950D02*
X024523Y040950D01*
X024395Y039768D02*
X026798Y039768D01*
X026632Y039670D02*
X024354Y039670D01*
X024290Y039571D02*
X026546Y039571D01*
X026505Y039473D02*
X024290Y039473D01*
X024290Y039374D02*
X026485Y039374D01*
X026485Y039276D02*
X024290Y039276D01*
X024290Y039177D02*
X026513Y039177D01*
X026553Y039079D02*
X024290Y039079D01*
X024290Y038980D02*
X026651Y038980D01*
X026844Y038882D02*
X024290Y038882D01*
X024290Y038783D02*
X026833Y038783D01*
X026800Y038685D02*
X024290Y038685D01*
X024290Y038586D02*
X026800Y038586D01*
X026800Y038488D02*
X024290Y038488D01*
X024290Y038389D02*
X026800Y038389D01*
X026800Y038291D02*
X024290Y038291D01*
X024290Y038192D02*
X026800Y038192D01*
X026744Y038094D02*
X024290Y038094D01*
X024290Y037995D02*
X026645Y037995D01*
X026547Y037897D02*
X024290Y037897D01*
X024290Y037798D02*
X025648Y037798D01*
X025550Y037700D02*
X024290Y037700D01*
X024290Y037601D02*
X025451Y037601D01*
X025353Y037503D02*
X024290Y037503D01*
X024290Y037404D02*
X025254Y037404D01*
X025156Y037306D02*
X024290Y037306D01*
X024290Y037207D02*
X025100Y037207D01*
X025100Y037109D02*
X024290Y037109D01*
X024290Y037010D02*
X025100Y037010D01*
X025100Y036912D02*
X024290Y036912D01*
X024290Y036813D02*
X025100Y036813D01*
X025100Y036715D02*
X024290Y036715D01*
X024290Y036616D02*
X025100Y036616D01*
X025100Y036518D02*
X024290Y036518D01*
X024290Y036419D02*
X025100Y036419D01*
X025100Y036321D02*
X024290Y036321D01*
X024110Y036321D02*
X023675Y036321D01*
X023773Y036419D02*
X024110Y036419D01*
X024110Y036518D02*
X023840Y036518D01*
X023881Y036616D02*
X024084Y036616D01*
X024070Y036715D02*
X023897Y036715D01*
X023897Y036813D02*
X024070Y036813D01*
X024082Y036912D02*
X023879Y036912D01*
X023838Y037010D02*
X024082Y037010D01*
X024082Y037109D02*
X023769Y037109D01*
X023671Y037207D02*
X024082Y037207D01*
X024082Y037503D02*
X023836Y037503D01*
X023856Y037601D02*
X024110Y037601D01*
X024110Y037700D02*
X023856Y037700D01*
X023856Y037798D02*
X024110Y037798D01*
X024110Y037897D02*
X023856Y037897D01*
X023856Y037995D02*
X024110Y037995D01*
X023284Y038291D02*
X023184Y038291D01*
X023184Y038389D02*
X023284Y038389D01*
X023284Y038488D02*
X023184Y038488D01*
X023184Y038586D02*
X023284Y038586D01*
X024028Y039374D02*
X024110Y039374D01*
X026801Y037897D02*
X026996Y037897D01*
X027077Y037995D02*
X026900Y037995D01*
X026980Y038094D02*
X027077Y038094D01*
X027077Y038192D02*
X026980Y038192D01*
X026980Y038291D02*
X027077Y038291D01*
X027077Y038389D02*
X026980Y038389D01*
X026980Y038488D02*
X027077Y038488D01*
X027077Y038586D02*
X026980Y038586D01*
X026989Y038685D02*
X027077Y038685D01*
X027088Y038783D02*
X027102Y038783D01*
X028002Y038783D02*
X028752Y038783D01*
X028772Y038685D02*
X028026Y038685D01*
X028026Y038586D02*
X030667Y038586D01*
X030656Y038488D02*
X028026Y038488D01*
X028026Y038389D02*
X030656Y038389D01*
X030656Y038291D02*
X028026Y038291D01*
X028026Y038192D02*
X028904Y038192D01*
X028824Y038094D02*
X028026Y038094D01*
X028026Y037995D02*
X028790Y037995D01*
X028790Y037897D02*
X028012Y037897D01*
X028012Y037798D02*
X028827Y037798D01*
X028912Y037700D02*
X028007Y037700D01*
X027967Y037601D02*
X029715Y037601D01*
X029715Y037503D02*
X027903Y037503D01*
X027813Y037412D02*
X027813Y037412D01*
X027805Y037404D02*
X029715Y037404D01*
X029715Y037306D02*
X027706Y037306D01*
X027608Y037207D02*
X029715Y037207D01*
X029715Y037109D02*
X027509Y037109D01*
X027490Y036813D02*
X027347Y036813D01*
X027347Y036715D02*
X027473Y036715D01*
X027781Y036715D02*
X027819Y036715D01*
X027819Y036813D02*
X027781Y036813D01*
X028127Y036518D02*
X028233Y036518D01*
X028233Y036419D02*
X028119Y036419D01*
X028072Y036321D02*
X028233Y036321D01*
X028233Y036190D02*
X028233Y035629D01*
X028243Y035591D01*
X028263Y035557D01*
X028291Y035529D01*
X028325Y035509D01*
X028363Y035499D01*
X028648Y035499D01*
X028648Y036190D01*
X028748Y036190D01*
X028748Y036290D01*
X028648Y036290D01*
X028648Y036190D01*
X028233Y036190D01*
X028233Y036124D02*
X028107Y036124D01*
X028107Y036222D02*
X028648Y036222D01*
X028648Y036124D02*
X028748Y036124D01*
X028748Y036190D02*
X028748Y035499D01*
X029032Y035499D01*
X029070Y035509D01*
X029105Y035529D01*
X029133Y035557D01*
X029152Y035591D01*
X029163Y035629D01*
X029163Y036190D01*
X028748Y036190D01*
X028748Y036222D02*
X029715Y036222D01*
X029715Y036124D02*
X029163Y036124D01*
X029163Y036025D02*
X029715Y036025D01*
X029715Y035927D02*
X029163Y035927D01*
X029163Y035828D02*
X029715Y035828D01*
X029745Y035730D02*
X030110Y035730D01*
X030110Y035631D02*
X029953Y035631D01*
X030042Y035533D02*
X030110Y035533D01*
X030110Y035434D02*
X030094Y035434D01*
X029673Y035434D02*
X029627Y035434D01*
X029627Y035336D02*
X029673Y035336D01*
X029627Y035286D02*
X029627Y035739D01*
X029613Y035739D01*
X029539Y035727D01*
X029468Y035704D01*
X029401Y035670D01*
X029341Y035626D01*
X029288Y035573D01*
X029244Y035513D01*
X029210Y035446D01*
X029187Y035375D01*
X029175Y035301D01*
X029175Y035286D01*
X029627Y035286D01*
X029627Y035533D02*
X029673Y035533D01*
X029673Y035631D02*
X029627Y035631D01*
X029627Y035730D02*
X029673Y035730D01*
X029555Y035730D02*
X029163Y035730D01*
X029163Y035631D02*
X029347Y035631D01*
X029258Y035533D02*
X029108Y035533D01*
X029206Y035434D02*
X028050Y035434D01*
X028050Y035336D02*
X029180Y035336D01*
X029175Y035237D02*
X028050Y035237D01*
X028050Y035139D02*
X029191Y035139D01*
X029231Y035040D02*
X028050Y035040D01*
X028050Y034942D02*
X029300Y034942D01*
X029195Y034843D02*
X028050Y034843D01*
X028050Y035533D02*
X028287Y035533D01*
X028233Y035631D02*
X028050Y035631D01*
X028050Y035730D02*
X028233Y035730D01*
X028233Y035828D02*
X028050Y035828D01*
X028107Y035927D02*
X028233Y035927D01*
X028233Y036025D02*
X028107Y036025D01*
X028648Y036025D02*
X028748Y036025D01*
X028748Y035927D02*
X028648Y035927D01*
X028648Y035828D02*
X028748Y035828D01*
X028748Y035730D02*
X028648Y035730D01*
X028648Y035631D02*
X028748Y035631D01*
X028748Y035533D02*
X028648Y035533D01*
X028648Y036321D02*
X028748Y036321D01*
X028748Y036419D02*
X028648Y036419D01*
X028648Y036518D02*
X028748Y036518D01*
X028748Y036616D02*
X028648Y036616D01*
X028648Y036715D02*
X028748Y036715D01*
X028748Y036813D02*
X028648Y036813D01*
X028648Y036912D02*
X028748Y036912D01*
X029163Y036715D02*
X031115Y036715D01*
X030959Y036616D02*
X030628Y036616D01*
X030685Y036518D02*
X030870Y036518D01*
X030829Y036419D02*
X030685Y036419D01*
X030685Y036321D02*
X030800Y036321D01*
X030800Y036222D02*
X030685Y036222D01*
X030685Y036124D02*
X030811Y036124D01*
X030852Y036025D02*
X030685Y036025D01*
X030685Y035927D02*
X030916Y035927D01*
X031015Y035828D02*
X030690Y035828D01*
X030690Y035730D02*
X031096Y035730D01*
X030946Y035631D02*
X030690Y035631D01*
X030690Y035533D02*
X030863Y035533D01*
X030813Y035434D02*
X030690Y035434D01*
X030690Y035336D02*
X030787Y035336D01*
X030690Y035237D02*
X031250Y035237D01*
X031250Y035139D02*
X031350Y035139D01*
X031350Y035200D02*
X031350Y034731D01*
X031422Y034743D01*
X031500Y034768D01*
X031573Y034805D01*
X031639Y034853D01*
X031697Y034911D01*
X031745Y034977D01*
X031782Y035050D01*
X031807Y035128D01*
X031819Y035200D01*
X031350Y035200D01*
X031350Y035237D02*
X031826Y035237D01*
X031826Y035139D02*
X031809Y035139D01*
X031777Y035040D02*
X031857Y035040D01*
X031719Y034942D02*
X032052Y034942D01*
X032040Y034843D02*
X031625Y034843D01*
X031427Y034745D02*
X032058Y034745D01*
X032116Y034646D02*
X030306Y034646D01*
X030208Y034548D02*
X032270Y034548D01*
X032478Y034722D02*
X032350Y034850D01*
X032950Y035100D02*
X032950Y035604D01*
X032660Y035894D01*
X031656Y035894D01*
X031789Y036124D02*
X031988Y036124D01*
X031917Y036222D02*
X031800Y036222D01*
X031800Y036321D02*
X031890Y036321D01*
X031893Y036419D02*
X031771Y036419D01*
X031730Y036518D02*
X031934Y036518D01*
X032032Y036616D02*
X031641Y036616D01*
X031848Y037010D02*
X030685Y037010D01*
X030655Y036912D02*
X032790Y036912D01*
X033100Y036850D02*
X033200Y036950D01*
X033500Y036950D01*
X033000Y037450D01*
X032360Y037450D01*
X031777Y037404D02*
X031210Y037404D01*
X031210Y037306D02*
X031777Y037306D01*
X031777Y037207D02*
X031176Y037207D01*
X031097Y037109D02*
X031777Y037109D01*
X031777Y037503D02*
X031172Y037503D01*
X031087Y037601D02*
X031777Y037601D01*
X031777Y037700D02*
X030664Y037700D01*
X030656Y038192D02*
X029296Y038192D01*
X029100Y037950D02*
X033100Y037950D01*
X034338Y036712D01*
X034338Y036100D01*
X034151Y036124D02*
X033680Y036124D01*
X033680Y036222D02*
X034151Y036222D01*
X034151Y036321D02*
X033680Y036321D01*
X033680Y036419D02*
X034151Y036419D01*
X034158Y036518D02*
X033680Y036518D01*
X033680Y036616D02*
X034158Y036616D01*
X034081Y036715D02*
X033680Y036715D01*
X033680Y036813D02*
X033982Y036813D01*
X033884Y036912D02*
X033680Y036912D01*
X033680Y037010D02*
X033785Y037010D01*
X033687Y037109D02*
X033596Y037109D01*
X033588Y037207D02*
X033498Y037207D01*
X033490Y037306D02*
X033399Y037306D01*
X033391Y037404D02*
X033301Y037404D01*
X033293Y037503D02*
X033202Y037503D01*
X033194Y037601D02*
X033104Y037601D01*
X033096Y037700D02*
X032943Y037700D01*
X033310Y037995D02*
X037100Y037995D01*
X037100Y037897D02*
X035365Y037897D01*
X035351Y037905D02*
X035313Y037915D01*
X034890Y037915D01*
X034890Y037500D01*
X034790Y037500D01*
X034790Y037400D01*
X034237Y037400D01*
X034237Y037115D01*
X034248Y037077D01*
X034267Y037043D01*
X034295Y037015D01*
X034330Y036995D01*
X034368Y036985D01*
X034790Y036985D01*
X034790Y037400D01*
X034890Y037400D01*
X034890Y036985D01*
X035197Y036985D01*
X035137Y036926D01*
X035090Y036812D01*
X035090Y036688D01*
X035137Y036574D01*
X035187Y036525D01*
X034518Y036525D01*
X034518Y036787D01*
X033175Y038130D01*
X032425Y038130D01*
X032427Y038137D01*
X032427Y038275D01*
X032119Y038275D01*
X032119Y038313D01*
X032427Y038313D01*
X032427Y038452D01*
X032417Y038490D01*
X032397Y038524D01*
X032369Y038552D01*
X032354Y038561D01*
X032407Y038614D01*
X032407Y038998D01*
X032331Y039074D01*
X032310Y039074D01*
X032310Y039337D01*
X032187Y039460D01*
X032157Y039490D01*
X032580Y039490D01*
X032990Y039080D01*
X032990Y038610D01*
X032980Y038586D01*
X032379Y038586D01*
X032407Y038685D02*
X032990Y038685D01*
X032990Y038783D02*
X032407Y038783D01*
X032407Y038882D02*
X032990Y038882D01*
X032990Y038980D02*
X032407Y038980D01*
X032310Y039079D02*
X032990Y039079D01*
X032893Y039177D02*
X032310Y039177D01*
X032310Y039276D02*
X032795Y039276D01*
X032696Y039374D02*
X032273Y039374D01*
X032174Y039473D02*
X032598Y039473D01*
X032100Y039900D02*
X032100Y040850D01*
X031600Y040850D02*
X031348Y040598D01*
X031348Y040400D01*
X030868Y038783D02*
X029752Y038783D01*
X029732Y038685D02*
X030890Y038685D01*
X031675Y038630D02*
X031752Y038630D01*
X031793Y038671D01*
X031793Y038614D01*
X031846Y038561D01*
X031831Y038552D01*
X031803Y038524D01*
X031783Y038490D01*
X031773Y038452D01*
X031773Y038313D01*
X032081Y038313D01*
X032081Y038275D01*
X031773Y038275D01*
X031773Y038137D01*
X031775Y038130D01*
X031724Y038130D01*
X031724Y038581D01*
X031675Y038630D01*
X031719Y038586D02*
X031821Y038586D01*
X031782Y038488D02*
X031724Y038488D01*
X031724Y038389D02*
X031773Y038389D01*
X031724Y038291D02*
X032081Y038291D01*
X032119Y038291D02*
X033031Y038291D01*
X033045Y038256D02*
X033166Y038135D01*
X033324Y038070D01*
X033496Y038070D01*
X033654Y038135D01*
X033775Y038256D01*
X033840Y038414D01*
X033840Y038586D01*
X034140Y038586D01*
X034140Y038550D02*
X034540Y038550D01*
X034540Y038950D01*
X034270Y038950D01*
X034232Y038940D01*
X034198Y038920D01*
X034170Y038892D01*
X034150Y038858D01*
X034140Y038820D01*
X034140Y038550D01*
X034140Y038450D02*
X034140Y038180D01*
X034150Y038142D01*
X034170Y038108D01*
X034198Y038080D01*
X034232Y038060D01*
X034270Y038050D01*
X034540Y038050D01*
X034540Y038450D01*
X034640Y038450D01*
X034640Y038550D01*
X035040Y038550D01*
X035040Y038820D01*
X035030Y038858D01*
X035010Y038892D01*
X034982Y038920D01*
X034948Y038940D01*
X034910Y038950D01*
X034640Y038950D01*
X034640Y038550D01*
X034540Y038550D01*
X034540Y038450D01*
X034140Y038450D01*
X034140Y038389D02*
X033829Y038389D01*
X033840Y038488D02*
X034540Y038488D01*
X034540Y038586D02*
X034640Y038586D01*
X034640Y038488D02*
X035808Y038488D01*
X035755Y038540D02*
X035876Y038420D01*
X035981Y038314D01*
X035993Y038314D01*
X035993Y038302D01*
X036069Y038226D01*
X036531Y038226D01*
X036607Y038302D01*
X036607Y038686D01*
X036543Y038750D01*
X036603Y038810D01*
X036620Y038810D01*
X036620Y038775D01*
X036820Y038575D01*
X036925Y038470D01*
X036973Y038470D01*
X036973Y038302D01*
X037049Y038226D01*
X037100Y038226D01*
X037100Y037595D01*
X037130Y037565D01*
X037130Y037560D01*
X037038Y037560D01*
X037010Y037548D01*
X037010Y037612D01*
X036963Y037726D01*
X036876Y037813D01*
X036762Y037860D01*
X036638Y037860D01*
X036524Y037813D01*
X036437Y037726D01*
X036390Y037612D01*
X036390Y037488D01*
X036406Y037450D01*
X036382Y037460D01*
X036258Y037460D01*
X036227Y037447D01*
X036227Y037563D01*
X036217Y037602D01*
X036197Y037636D01*
X036169Y037664D01*
X036135Y037683D01*
X036097Y037694D01*
X035919Y037694D01*
X035919Y037425D01*
X035881Y037425D01*
X035881Y037694D01*
X035703Y037694D01*
X035665Y037683D01*
X035631Y037664D01*
X035603Y037636D01*
X035583Y037602D01*
X035573Y037563D01*
X035573Y037425D01*
X035881Y037425D01*
X035881Y037387D01*
X035573Y037387D01*
X035573Y037248D01*
X035583Y037210D01*
X035603Y037176D01*
X035631Y037148D01*
X035646Y037139D01*
X035611Y037104D01*
X035457Y037104D01*
X035434Y037081D01*
X035443Y037115D01*
X035443Y037400D01*
X034890Y037400D01*
X034890Y037500D01*
X035443Y037500D01*
X035443Y037785D01*
X035433Y037823D01*
X035413Y037857D01*
X035385Y037885D01*
X035351Y037905D01*
X035439Y037798D02*
X036510Y037798D01*
X036426Y037700D02*
X035443Y037700D01*
X035443Y037601D02*
X035583Y037601D01*
X035573Y037503D02*
X035443Y037503D01*
X035443Y037306D02*
X035573Y037306D01*
X035585Y037207D02*
X035443Y037207D01*
X035441Y037109D02*
X035616Y037109D01*
X035900Y036894D02*
X035900Y036750D01*
X035913Y036681D02*
X035900Y036894D01*
X035913Y036681D02*
X035913Y036100D01*
X036109Y036124D02*
X036109Y036124D01*
X036109Y036222D02*
X036109Y036222D01*
X036109Y036321D02*
X036109Y036321D01*
X036109Y036419D02*
X036109Y036419D01*
X036109Y036518D02*
X036109Y036518D01*
X036095Y036616D02*
X036126Y036616D01*
X036306Y036944D02*
X036306Y036100D01*
X036109Y036025D02*
X036109Y036025D01*
X036109Y035927D02*
X036109Y035927D01*
X036109Y035828D02*
X036109Y035828D01*
X036109Y035730D02*
X036109Y035730D01*
X036700Y036100D02*
X036700Y037550D01*
X036974Y037700D02*
X037100Y037700D01*
X037100Y037798D02*
X036890Y037798D01*
X037010Y037601D02*
X037100Y037601D01*
X037280Y037670D02*
X037280Y038494D01*
X037144Y038650D01*
X037100Y038650D01*
X037200Y038550D01*
X037200Y038450D01*
X037100Y038650D02*
X037000Y038650D01*
X036800Y038850D01*
X036800Y039117D01*
X036620Y038783D02*
X036576Y038783D01*
X036607Y038685D02*
X036711Y038685D01*
X036809Y038586D02*
X036607Y038586D01*
X036607Y038488D02*
X036908Y038488D01*
X036973Y038389D02*
X036607Y038389D01*
X036595Y038291D02*
X036985Y038291D01*
X037100Y038192D02*
X035040Y038192D01*
X035040Y038180D02*
X035040Y038450D01*
X034640Y038450D01*
X034640Y038050D01*
X034910Y038050D01*
X034948Y038060D01*
X034982Y038080D01*
X035010Y038108D01*
X035030Y038142D01*
X035040Y038180D01*
X034996Y038094D02*
X037100Y038094D01*
X037460Y038094D02*
X037820Y038094D01*
X037820Y038144D02*
X037820Y037725D01*
X037740Y037645D01*
X037703Y037736D01*
X037616Y037823D01*
X037502Y037870D01*
X037460Y037870D01*
X037460Y038206D01*
X037462Y038202D01*
X037490Y038174D01*
X037524Y038154D01*
X037562Y038144D01*
X037720Y038144D01*
X037820Y038144D01*
X037720Y038144D02*
X037720Y038393D01*
X037720Y038393D01*
X037720Y038144D01*
X037720Y038192D02*
X037720Y038192D01*
X037720Y038291D02*
X037720Y038291D01*
X037720Y038389D02*
X037720Y038389D01*
X037472Y038192D02*
X037460Y038192D01*
X037460Y037995D02*
X037820Y037995D01*
X037820Y037897D02*
X037460Y037897D01*
X037640Y037798D02*
X037820Y037798D01*
X037795Y037700D02*
X037718Y037700D01*
X038000Y037650D02*
X038000Y038750D01*
X039200Y039950D01*
X041400Y039950D01*
X042500Y038850D01*
X042500Y038506D01*
X042807Y038488D02*
X043008Y038488D01*
X042909Y038586D02*
X042807Y038586D01*
X042807Y038685D02*
X042811Y038685D01*
X042807Y038688D02*
X043520Y037975D01*
X043520Y035788D01*
X043497Y035794D01*
X043319Y035794D01*
X043319Y035525D01*
X043281Y035525D01*
X043281Y035794D01*
X043103Y035794D01*
X043065Y035783D01*
X043031Y035764D01*
X043003Y035736D01*
X042983Y035702D01*
X042973Y035663D01*
X042973Y035525D01*
X043281Y035525D01*
X043281Y035487D01*
X042973Y035487D01*
X042973Y035348D01*
X042983Y035310D01*
X043003Y035276D01*
X043031Y035248D01*
X043046Y035239D01*
X042993Y035186D01*
X042993Y034802D01*
X043069Y034726D01*
X043122Y034726D01*
X042927Y034531D01*
X042675Y034531D01*
X042675Y034569D01*
X042944Y034569D01*
X042944Y034747D01*
X042933Y034785D01*
X042914Y034819D01*
X042886Y034847D01*
X042852Y034867D01*
X042813Y034877D01*
X042675Y034877D01*
X042675Y034569D01*
X042637Y034569D01*
X042637Y034877D01*
X042498Y034877D01*
X042460Y034867D01*
X042426Y034847D01*
X042398Y034819D01*
X042389Y034804D01*
X042336Y034857D01*
X042001Y034857D01*
X042001Y034867D01*
X041925Y034943D01*
X041761Y034943D01*
X041739Y034966D01*
X041628Y035077D01*
X041925Y035077D01*
X042001Y035153D01*
X042001Y035595D01*
X042128Y035467D01*
X042100Y035400D01*
X042100Y035240D01*
X042161Y035093D01*
X042273Y034981D01*
X042420Y034920D01*
X042580Y034920D01*
X042727Y034981D01*
X042839Y035093D01*
X042900Y035240D01*
X042900Y035400D01*
X042839Y035547D01*
X042756Y035630D01*
X042839Y035713D01*
X042900Y035860D01*
X042900Y036020D01*
X042839Y036167D01*
X042769Y036236D01*
X042774Y036240D01*
X042820Y036286D01*
X042859Y036340D01*
X042889Y036399D01*
X042910Y036462D01*
X042919Y036520D01*
X042540Y036520D01*
X042540Y036600D01*
X042919Y036600D01*
X042910Y036658D01*
X042889Y036721D01*
X042859Y036780D01*
X042820Y036834D01*
X042774Y036880D01*
X042769Y036884D01*
X042839Y036953D01*
X042900Y037100D01*
X042900Y037260D01*
X042839Y037407D01*
X042727Y037519D01*
X042680Y037538D01*
X042680Y037726D01*
X042731Y037726D01*
X042807Y037802D01*
X042807Y038186D01*
X042743Y038250D01*
X042807Y038314D01*
X042807Y038688D01*
X042807Y038389D02*
X043106Y038389D01*
X043205Y038291D02*
X042783Y038291D01*
X042801Y038192D02*
X043303Y038192D01*
X043402Y038094D02*
X042807Y038094D01*
X042807Y037995D02*
X043500Y037995D01*
X043520Y037897D02*
X042807Y037897D01*
X042803Y037798D02*
X043520Y037798D01*
X043520Y037700D02*
X042680Y037700D01*
X042680Y037601D02*
X043520Y037601D01*
X043520Y037503D02*
X042743Y037503D01*
X042840Y037404D02*
X043520Y037404D01*
X043520Y037306D02*
X042881Y037306D01*
X042900Y037207D02*
X043520Y037207D01*
X043520Y037109D02*
X042900Y037109D01*
X042863Y037010D02*
X043520Y037010D01*
X043520Y036912D02*
X042797Y036912D01*
X042835Y036813D02*
X043520Y036813D01*
X043520Y036715D02*
X042891Y036715D01*
X042916Y036616D02*
X043520Y036616D01*
X043520Y036518D02*
X042919Y036518D01*
X042896Y036419D02*
X043520Y036419D01*
X043520Y036321D02*
X042845Y036321D01*
X042784Y036222D02*
X043520Y036222D01*
X043520Y036124D02*
X042857Y036124D01*
X042898Y036025D02*
X043520Y036025D01*
X043520Y035927D02*
X042900Y035927D01*
X042887Y035828D02*
X043520Y035828D01*
X043319Y035730D02*
X043281Y035730D01*
X043281Y035631D02*
X043319Y035631D01*
X043319Y035533D02*
X043281Y035533D01*
X042973Y035533D02*
X042845Y035533D01*
X042886Y035434D02*
X042973Y035434D01*
X042976Y035336D02*
X042900Y035336D01*
X042899Y035237D02*
X043044Y035237D01*
X042993Y035139D02*
X042858Y035139D01*
X042786Y035040D02*
X042993Y035040D01*
X042993Y034942D02*
X042632Y034942D01*
X042637Y034843D02*
X042675Y034843D01*
X042675Y034745D02*
X042637Y034745D01*
X042637Y034646D02*
X042675Y034646D01*
X042675Y034548D02*
X042943Y034548D01*
X042944Y034646D02*
X043041Y034646D01*
X043051Y034745D02*
X042944Y034745D01*
X042993Y034843D02*
X042890Y034843D01*
X043300Y034994D02*
X043356Y034994D01*
X043500Y034850D01*
X042800Y034150D01*
X040400Y034150D01*
X040300Y034250D01*
X040300Y034450D01*
X040225Y034525D01*
X039850Y034525D01*
X039850Y034722D02*
X040322Y034722D01*
X040600Y035000D01*
X041450Y035000D01*
X041664Y034786D01*
X041664Y034557D01*
X041671Y034550D01*
X042144Y034550D01*
X042350Y034843D02*
X042422Y034843D01*
X042368Y034942D02*
X041926Y034942D01*
X041986Y035139D02*
X042142Y035139D01*
X042101Y035237D02*
X042001Y035237D01*
X042001Y035336D02*
X042100Y035336D01*
X042114Y035434D02*
X042001Y035434D01*
X042001Y035533D02*
X042063Y035533D01*
X042210Y035940D02*
X042000Y036150D01*
X042000Y037994D01*
X041500Y037994D02*
X041500Y037750D01*
X041800Y037450D01*
X041800Y036050D01*
X042500Y035350D01*
X042500Y035320D01*
X042214Y035040D02*
X041665Y035040D01*
X040936Y035463D02*
X040936Y035886D01*
X041044Y035994D01*
X041300Y035994D01*
X041281Y036525D02*
X041281Y036794D01*
X041103Y036794D01*
X041065Y036783D01*
X041031Y036764D01*
X041003Y036736D01*
X040983Y036702D01*
X040973Y036663D01*
X040973Y036573D01*
X040849Y036697D01*
X040790Y036721D01*
X040790Y036771D01*
X041290Y037271D01*
X041290Y037726D01*
X041320Y037726D01*
X041320Y037675D01*
X041425Y037570D01*
X041620Y037375D01*
X041620Y036690D01*
X041617Y036702D01*
X041597Y036736D01*
X041569Y036764D01*
X041535Y036783D01*
X041497Y036794D01*
X041319Y036794D01*
X041319Y036525D01*
X041281Y036525D01*
X041281Y036616D02*
X041319Y036616D01*
X041319Y036715D02*
X041281Y036715D01*
X040991Y036715D02*
X040806Y036715D01*
X040832Y036813D02*
X041620Y036813D01*
X041609Y036715D02*
X041620Y036715D01*
X041620Y036912D02*
X040930Y036912D01*
X041029Y037010D02*
X041620Y037010D01*
X041620Y037109D02*
X041127Y037109D01*
X041226Y037207D02*
X041620Y037207D01*
X041620Y037306D02*
X041290Y037306D01*
X041290Y037404D02*
X041591Y037404D01*
X041493Y037503D02*
X041290Y037503D01*
X041290Y037601D02*
X041394Y037601D01*
X041320Y037700D02*
X041290Y037700D01*
X041193Y038126D02*
X041134Y038185D01*
X041023Y038296D01*
X041007Y038296D01*
X041007Y038298D01*
X040931Y038374D01*
X040880Y038374D01*
X040880Y038592D01*
X040963Y038674D01*
X041010Y038788D01*
X041010Y038912D01*
X040963Y039026D01*
X040876Y039113D01*
X040807Y039141D01*
X040807Y039270D01*
X040807Y039370D01*
X041125Y039370D01*
X041420Y039075D01*
X041420Y038774D01*
X041269Y038774D01*
X041193Y038698D01*
X041193Y038314D01*
X041257Y038250D01*
X041193Y038186D01*
X041193Y038126D01*
X041199Y038192D02*
X041127Y038192D01*
X041217Y038291D02*
X041028Y038291D01*
X040880Y038389D02*
X041193Y038389D01*
X041193Y038488D02*
X040880Y038488D01*
X040880Y038586D02*
X041193Y038586D01*
X041193Y038685D02*
X040967Y038685D01*
X041008Y038783D02*
X041420Y038783D01*
X041420Y038882D02*
X041010Y038882D01*
X040982Y038980D02*
X041420Y038980D01*
X041417Y039079D02*
X040910Y039079D01*
X040807Y039177D02*
X041318Y039177D01*
X041220Y039276D02*
X040807Y039276D01*
X040807Y039270D02*
X040578Y039270D01*
X040578Y039270D01*
X040807Y039270D01*
X040700Y038850D02*
X040700Y038106D01*
X040393Y038094D02*
X040107Y038094D01*
X040107Y038192D02*
X040393Y038192D01*
X040393Y038291D02*
X040107Y038291D01*
X039994Y038389D02*
X040520Y038389D01*
X040520Y038488D02*
X040092Y038488D01*
X039800Y038450D02*
X040200Y038850D01*
X040300Y038950D01*
X040300Y039050D01*
X040302Y039052D01*
X040302Y039270D01*
X039958Y039270D02*
X039958Y039110D01*
X039697Y038850D01*
X039300Y038453D01*
X039300Y038106D01*
X038993Y038094D02*
X038580Y038094D01*
X038580Y038192D02*
X038993Y038192D01*
X038993Y038291D02*
X038580Y038291D01*
X038580Y038389D02*
X039120Y038389D01*
X039120Y038374D02*
X039069Y038374D01*
X038993Y038298D01*
X038993Y037914D01*
X039057Y037850D01*
X038993Y037786D01*
X038993Y037647D01*
X038095Y036749D01*
X038095Y036545D01*
X038078Y036545D01*
X038078Y036100D01*
X038078Y036100D01*
X038078Y036545D01*
X038061Y036545D01*
X038061Y036857D01*
X038580Y037375D01*
X038580Y038475D01*
X039453Y039349D01*
X039453Y039270D01*
X039453Y039112D01*
X039464Y039074D01*
X039471Y039062D01*
X039435Y039026D01*
X039387Y038912D01*
X039387Y038795D01*
X039120Y038527D01*
X039120Y038374D01*
X039120Y038488D02*
X038592Y038488D01*
X038691Y038586D02*
X039179Y038586D01*
X039277Y038685D02*
X038789Y038685D01*
X038888Y038783D02*
X039376Y038783D01*
X039387Y038882D02*
X038986Y038882D01*
X039085Y038980D02*
X039416Y038980D01*
X039463Y039079D02*
X039183Y039079D01*
X039282Y039177D02*
X039453Y039177D01*
X039453Y039270D02*
X039682Y039270D01*
X039682Y039270D01*
X039453Y039270D01*
X039453Y039276D02*
X039380Y039276D01*
X039400Y039550D02*
X041200Y039550D01*
X041600Y039150D01*
X041600Y038606D01*
X041500Y038506D01*
X042000Y038506D02*
X042000Y039050D01*
X041300Y039750D01*
X039300Y039750D01*
X038200Y038650D01*
X038200Y037550D01*
X037487Y036837D01*
X037487Y036100D01*
X037291Y036100D02*
X037291Y036941D01*
X038000Y037650D01*
X038400Y037450D02*
X037881Y036931D01*
X037881Y036100D01*
X038078Y036100D02*
X038078Y036100D01*
X038078Y035654D01*
X038078Y036100D01*
X038078Y036124D02*
X038078Y036124D01*
X038078Y036222D02*
X038078Y036222D01*
X038078Y036321D02*
X038078Y036321D01*
X038078Y036419D02*
X038078Y036419D01*
X038078Y036518D02*
X038078Y036518D01*
X038061Y036616D02*
X038095Y036616D01*
X038095Y036715D02*
X038061Y036715D01*
X038061Y036813D02*
X038158Y036813D01*
X038116Y036912D02*
X038257Y036912D01*
X038215Y037010D02*
X038355Y037010D01*
X038313Y037109D02*
X038454Y037109D01*
X038412Y037207D02*
X038552Y037207D01*
X038510Y037306D02*
X038651Y037306D01*
X038580Y037404D02*
X038749Y037404D01*
X038848Y037503D02*
X038580Y037503D01*
X038580Y037601D02*
X038946Y037601D01*
X038993Y037700D02*
X038580Y037700D01*
X038580Y037798D02*
X039005Y037798D01*
X039011Y037897D02*
X038580Y037897D01*
X038580Y037995D02*
X038993Y037995D01*
X039200Y037600D02*
X039256Y037600D01*
X039300Y037594D01*
X039200Y037600D02*
X038275Y036675D01*
X038275Y036100D01*
X038472Y036100D02*
X038472Y036572D01*
X039200Y037300D01*
X039596Y037300D01*
X039800Y037594D01*
X039819Y037306D02*
X040787Y037306D01*
X040681Y037306D02*
X040681Y037575D01*
X040373Y037575D01*
X040373Y037437D01*
X040383Y037398D01*
X040403Y037364D01*
X040431Y037336D01*
X040465Y037317D01*
X040503Y037306D01*
X040681Y037306D01*
X040681Y037404D02*
X040719Y037404D01*
X040719Y037503D02*
X040681Y037503D01*
X040681Y037601D02*
X040107Y037601D01*
X040107Y037503D02*
X040373Y037503D01*
X040382Y037404D02*
X040107Y037404D01*
X040107Y037700D02*
X040373Y037700D01*
X040388Y037798D02*
X040095Y037798D01*
X040089Y037897D02*
X040411Y037897D01*
X040393Y037995D02*
X040107Y037995D01*
X039800Y038106D02*
X039800Y038450D01*
X040373Y038586D02*
X040520Y038586D01*
X039400Y039550D02*
X038400Y038550D01*
X038400Y037450D01*
X038968Y036813D02*
X039076Y036813D01*
X039066Y036912D02*
X039677Y036912D01*
X039837Y036912D02*
X039875Y036912D01*
X039875Y036813D02*
X039837Y036813D01*
X039837Y036715D02*
X039875Y036715D01*
X039875Y036616D02*
X039837Y036616D01*
X039837Y036518D02*
X039875Y036518D01*
X039875Y036419D02*
X039837Y036419D01*
X039837Y036321D02*
X039875Y036321D01*
X039708Y036222D02*
X040065Y036222D01*
X040086Y036124D02*
X039749Y036124D01*
X039750Y036025D02*
X040127Y036025D01*
X040205Y035927D02*
X039720Y035927D01*
X039646Y035828D02*
X040333Y035828D01*
X040509Y035623D02*
X040467Y035572D01*
X040420Y035525D01*
X040352Y035434D02*
X040264Y035434D01*
X040350Y035150D02*
X040600Y035450D01*
X040900Y035450D01*
X040913Y035463D01*
X040936Y035463D01*
X040599Y035631D02*
X040592Y035630D01*
X040525Y035630D01*
X040519Y035623D01*
X040509Y035623D01*
X040599Y035730D02*
X039228Y035730D01*
X039435Y035434D02*
X033965Y035434D01*
X033976Y035336D02*
X039424Y035336D01*
X039424Y035237D02*
X033976Y035237D01*
X033976Y035139D02*
X039424Y035139D01*
X039424Y035040D02*
X033976Y035040D01*
X033976Y034942D02*
X039424Y034942D01*
X039424Y034843D02*
X033976Y034843D01*
X033976Y034745D02*
X039424Y034745D01*
X039424Y034646D02*
X033982Y034646D01*
X033996Y034548D02*
X039424Y034548D01*
X039424Y034449D02*
X033996Y034449D01*
X033976Y034351D02*
X039424Y034351D01*
X039424Y034252D02*
X033976Y034252D01*
X033976Y034154D02*
X039424Y034154D01*
X039424Y034055D02*
X033976Y034055D01*
X033976Y033957D02*
X039424Y033957D01*
X039424Y033858D02*
X033976Y033858D01*
X033976Y033760D02*
X039424Y033760D01*
X039424Y033661D02*
X033976Y033661D01*
X033976Y033563D02*
X039424Y033563D01*
X039418Y033464D02*
X033976Y033464D01*
X033976Y033366D02*
X039404Y033366D01*
X039404Y033267D02*
X039415Y033229D01*
X039424Y033212D01*
X039424Y033070D02*
X033976Y033070D01*
X033976Y032972D02*
X039424Y032972D01*
X039268Y032873D02*
X033976Y032873D01*
X033976Y032775D02*
X039170Y032775D01*
X039120Y032676D02*
X033976Y032676D01*
X033976Y032578D02*
X039120Y032578D01*
X039120Y032479D02*
X033976Y032479D01*
X033976Y032381D02*
X039120Y032381D01*
X039213Y032282D02*
X033976Y032282D01*
X033976Y032184D02*
X039312Y032184D01*
X039424Y032085D02*
X033976Y032085D01*
X033976Y031987D02*
X039424Y031987D01*
X039424Y031888D02*
X033976Y031888D01*
X033976Y031790D02*
X039424Y031790D01*
X039424Y031691D02*
X033976Y031691D01*
X033976Y031593D02*
X039424Y031593D01*
X039289Y031494D02*
X033976Y031494D01*
X033976Y031396D02*
X039191Y031396D01*
X039120Y031297D02*
X033983Y031297D01*
X033996Y031199D02*
X039120Y031199D01*
X039120Y031100D02*
X033995Y031100D01*
X033976Y031002D02*
X039120Y031002D01*
X039120Y030903D02*
X033976Y030903D01*
X033976Y030805D02*
X039120Y030805D01*
X039120Y030706D02*
X033976Y030706D01*
X033976Y030608D02*
X039120Y030608D01*
X039120Y030509D02*
X038296Y030509D01*
X038394Y030411D02*
X039185Y030411D01*
X039283Y030312D02*
X038455Y030312D01*
X038472Y030214D02*
X038472Y030214D01*
X038472Y030115D02*
X038472Y030115D01*
X038472Y030017D02*
X038472Y030017D01*
X038472Y029918D02*
X038472Y029918D01*
X038472Y029820D02*
X038472Y029820D01*
X038669Y029800D02*
X038669Y029119D01*
X038460Y028910D01*
X038230Y028910D01*
X037770Y028450D01*
X037700Y028450D01*
X037236Y028638D02*
X037164Y028638D01*
X037200Y028549D02*
X037124Y028733D01*
X036983Y028874D01*
X036937Y028893D01*
X037013Y028893D01*
X037052Y028903D01*
X037086Y028923D01*
X037114Y028951D01*
X037133Y028985D01*
X037144Y029023D01*
X037144Y029201D01*
X036875Y029201D01*
X036875Y029239D01*
X037144Y029239D01*
X037144Y029375D01*
X037456Y029375D01*
X037456Y029259D01*
X037725Y029259D01*
X037725Y029221D01*
X037456Y029221D01*
X037456Y029043D01*
X037467Y029005D01*
X037486Y028971D01*
X037514Y028943D01*
X037543Y028926D01*
X037417Y028874D01*
X037276Y028733D01*
X037200Y028549D01*
X037200Y028351D01*
X037276Y028167D01*
X037417Y028026D01*
X037601Y027950D01*
X037799Y027950D01*
X037983Y028026D01*
X038124Y028167D01*
X038200Y028351D01*
X038276Y028167D01*
X038417Y028026D01*
X038601Y027950D01*
X038799Y027950D01*
X038983Y028026D01*
X039124Y028167D01*
X039200Y028351D01*
X039276Y028167D01*
X039417Y028026D01*
X039601Y027950D01*
X039799Y027950D01*
X039983Y028026D01*
X040124Y028167D01*
X040200Y028351D01*
X040276Y028167D01*
X040417Y028026D01*
X040601Y027950D01*
X040799Y027950D01*
X040983Y028026D01*
X041124Y028167D01*
X041192Y028332D01*
X041193Y028328D01*
X041218Y028250D01*
X041255Y028177D01*
X041303Y028111D01*
X041361Y028053D01*
X041427Y028005D01*
X041500Y027968D01*
X041578Y027943D01*
X041650Y027931D01*
X041650Y028400D01*
X041750Y028400D01*
X041750Y027931D01*
X041822Y027943D01*
X041900Y027968D01*
X041973Y028005D01*
X042039Y028053D01*
X042097Y028111D01*
X042145Y028177D01*
X042182Y028250D01*
X042193Y028284D01*
X042193Y028214D01*
X042257Y028150D01*
X042193Y028086D01*
X042193Y027702D01*
X042269Y027626D01*
X042290Y027626D01*
X042290Y027526D01*
X042273Y027519D01*
X042254Y027500D01*
X039750Y027500D01*
X039750Y027671D01*
X039721Y027700D01*
X038869Y027700D01*
X038840Y027671D01*
X038840Y024429D01*
X038843Y024426D01*
X038836Y024397D01*
X038836Y024249D01*
X039272Y024249D01*
X039272Y024191D01*
X038836Y024191D01*
X038836Y024043D01*
X038846Y024005D01*
X038853Y023993D01*
X038850Y023991D01*
X038850Y023829D01*
X038867Y023812D01*
X038856Y023801D01*
X038856Y023379D01*
X038857Y023378D01*
X038850Y023371D01*
X038850Y023229D01*
X038868Y023212D01*
X038866Y023210D01*
X038846Y023176D01*
X038836Y023137D01*
X038836Y022989D01*
X039272Y022989D01*
X039272Y022931D01*
X038836Y022931D01*
X038836Y022783D01*
X038846Y022746D01*
X038840Y022741D01*
X038840Y022368D01*
X038762Y022400D01*
X038638Y022400D01*
X038524Y022353D01*
X038486Y022314D01*
X038486Y022620D01*
X038410Y022697D01*
X037987Y022697D01*
X037962Y022672D01*
X037937Y022697D01*
X037515Y022697D01*
X037490Y022672D01*
X037465Y022697D01*
X037042Y022697D01*
X037017Y022672D01*
X036992Y022697D01*
X036570Y022697D01*
X036545Y022672D01*
X036520Y022697D01*
X036097Y022697D01*
X036072Y022672D01*
X036048Y022697D01*
X035625Y022697D01*
X035600Y022672D01*
X035575Y022697D01*
X035152Y022697D01*
X035128Y022672D01*
X035103Y022697D01*
X034680Y022697D01*
X034655Y022672D01*
X034630Y022697D01*
X034599Y022697D01*
X034599Y025206D01*
X034493Y025311D01*
X032820Y026985D01*
X032824Y026983D01*
X032973Y026983D01*
X032973Y027420D01*
X032694Y027420D01*
X032694Y027114D01*
X032695Y027109D01*
X032480Y027325D01*
X032480Y028292D01*
X032486Y028281D01*
X032514Y028253D01*
X032548Y028233D01*
X032587Y028223D01*
X032725Y028223D01*
X032725Y028531D01*
X032763Y028531D01*
X032763Y028223D01*
X032902Y028223D01*
X032940Y028233D01*
X032974Y028253D01*
X033002Y028281D01*
X033011Y028296D01*
X033046Y028261D01*
X033046Y028007D01*
X033140Y027913D01*
X033030Y027913D01*
X033030Y027477D01*
X032973Y027477D01*
X032973Y027420D01*
X033030Y027420D01*
X033030Y026983D01*
X033179Y026983D01*
X033217Y026994D01*
X033251Y027013D01*
X033252Y027014D01*
X033263Y027003D01*
X033685Y027003D01*
X033710Y027028D01*
X033735Y027003D01*
X034158Y027003D01*
X034183Y027028D01*
X034208Y027003D01*
X034630Y027003D01*
X034655Y027028D01*
X034680Y027003D01*
X035103Y027003D01*
X035128Y027028D01*
X035152Y027003D01*
X035575Y027003D01*
X035600Y027028D01*
X035625Y027003D01*
X036048Y027003D01*
X036072Y027028D01*
X036097Y027003D01*
X036520Y027003D01*
X036545Y027028D01*
X036570Y027003D01*
X036992Y027003D01*
X037017Y027028D01*
X037042Y027003D01*
X037465Y027003D01*
X037490Y027028D01*
X037515Y027003D01*
X037937Y027003D01*
X037948Y027014D01*
X037949Y027013D01*
X037983Y026994D01*
X038021Y026983D01*
X038170Y026983D01*
X038170Y027420D01*
X038227Y027420D01*
X038227Y027477D01*
X038170Y027477D01*
X038170Y027913D01*
X038021Y027913D01*
X037983Y027903D01*
X037949Y027883D01*
X037948Y027883D01*
X037937Y027893D01*
X037515Y027893D01*
X037490Y027868D01*
X037465Y027893D01*
X037042Y027893D01*
X037017Y027868D01*
X036992Y027893D01*
X036570Y027893D01*
X036545Y027868D01*
X036520Y027893D01*
X036411Y027893D01*
X036280Y028025D01*
X036175Y028130D01*
X036132Y028130D01*
X036132Y028140D01*
X036303Y028140D01*
X036417Y028026D01*
X036601Y027950D01*
X036799Y027950D01*
X036983Y028026D01*
X037124Y028167D01*
X037200Y028351D01*
X037200Y028549D01*
X037200Y028539D02*
X037200Y028539D01*
X037200Y028441D02*
X037200Y028441D01*
X037196Y028342D02*
X037204Y028342D01*
X037244Y028244D02*
X037156Y028244D01*
X037102Y028145D02*
X037298Y028145D01*
X037396Y028047D02*
X037004Y028047D01*
X036396Y028047D02*
X036258Y028047D01*
X036357Y027948D02*
X041562Y027948D01*
X041650Y027948D02*
X041750Y027948D01*
X041838Y027948D02*
X042193Y027948D01*
X042193Y027850D02*
X038479Y027850D01*
X038476Y027855D02*
X038448Y027883D01*
X038414Y027903D01*
X038376Y027913D01*
X038227Y027913D01*
X038227Y027477D01*
X038506Y027477D01*
X038506Y027783D01*
X038496Y027821D01*
X038476Y027855D01*
X038506Y027751D02*
X042193Y027751D01*
X042243Y027653D02*
X039750Y027653D01*
X039750Y027554D02*
X042290Y027554D01*
X042193Y028047D02*
X042029Y028047D01*
X042121Y028145D02*
X042252Y028145D01*
X042193Y028244D02*
X042178Y028244D01*
X042197Y028602D02*
X042182Y028650D01*
X042145Y028723D01*
X042097Y028789D01*
X042039Y028847D01*
X041973Y028895D01*
X041900Y028932D01*
X041822Y028957D01*
X041750Y028969D01*
X041750Y028500D01*
X041650Y028500D01*
X041650Y028969D01*
X041578Y028957D01*
X041500Y028932D01*
X041427Y028895D01*
X041361Y028847D01*
X041303Y028789D01*
X041255Y028723D01*
X041218Y028650D01*
X041193Y028572D01*
X041192Y028568D01*
X041124Y028733D01*
X040983Y028874D01*
X040799Y028950D01*
X040601Y028950D01*
X040417Y028874D01*
X040276Y028733D01*
X040200Y028549D01*
X040200Y028351D01*
X040200Y028549D01*
X040124Y028733D01*
X040080Y028777D01*
X040304Y029000D01*
X041510Y029000D01*
X041602Y029038D01*
X041604Y029040D01*
X041622Y029040D01*
X041736Y029087D01*
X041823Y029174D01*
X041870Y029288D01*
X041870Y029412D01*
X041870Y029413D01*
X041967Y029543D01*
X042048Y029543D01*
X042124Y029619D01*
X042124Y030081D01*
X042105Y030100D01*
X042124Y030119D01*
X042124Y030540D01*
X042387Y030540D01*
X042510Y030663D01*
X042510Y030663D01*
X042687Y030840D01*
X042810Y030963D01*
X042810Y031270D01*
X043375Y031270D01*
X043480Y031375D01*
X043480Y031375D01*
X043636Y031531D01*
X043636Y032643D01*
X043648Y032643D01*
X043724Y032719D01*
X043724Y033181D01*
X043655Y033250D01*
X043724Y033319D01*
X043724Y033781D01*
X043648Y033857D01*
X043264Y033857D01*
X043211Y033804D01*
X043202Y033819D01*
X043174Y033847D01*
X043140Y033867D01*
X043102Y033877D01*
X042963Y033877D01*
X042963Y033569D01*
X042925Y033569D01*
X042925Y033531D01*
X042656Y033531D01*
X042656Y033353D01*
X042667Y033315D01*
X042686Y033281D01*
X042714Y033253D01*
X042736Y033240D01*
X042676Y033181D01*
X042676Y032773D01*
X042631Y032773D01*
X042555Y032697D01*
X042555Y032526D01*
X042544Y032526D01*
X042462Y032560D01*
X042338Y032560D01*
X042224Y032513D01*
X042137Y032426D01*
X042090Y032312D01*
X042090Y032188D01*
X042137Y032074D01*
X042224Y031987D01*
X042338Y031940D01*
X042462Y031940D01*
X042555Y031979D01*
X042555Y031760D01*
X041869Y031760D01*
X041866Y031757D01*
X041664Y031757D01*
X041638Y031731D01*
X041644Y031753D01*
X041644Y031931D01*
X041375Y031931D01*
X041375Y031969D01*
X041644Y031969D01*
X041644Y032147D01*
X041639Y032164D01*
X041732Y032164D01*
X041770Y032174D01*
X041804Y032194D01*
X041832Y032222D01*
X041852Y032256D01*
X041862Y032294D01*
X041862Y032521D01*
X041583Y032521D01*
X041583Y032579D01*
X041862Y032579D01*
X041862Y032806D01*
X041852Y032843D01*
X042036Y032843D01*
X042089Y032896D01*
X042098Y032881D01*
X042126Y032853D01*
X042160Y032833D01*
X042198Y032823D01*
X042337Y032823D01*
X042337Y033131D01*
X042375Y033131D01*
X042375Y033169D01*
X042644Y033169D01*
X042644Y033347D01*
X042633Y033385D01*
X042614Y033419D01*
X042586Y033447D01*
X042581Y033450D01*
X042586Y033453D01*
X042614Y033481D01*
X042633Y033515D01*
X042644Y033553D01*
X042644Y033731D01*
X042375Y033731D01*
X042375Y033769D01*
X042644Y033769D01*
X042644Y033947D01*
X042638Y033970D01*
X042875Y033970D01*
X043575Y034670D01*
X043680Y034775D01*
X043750Y034845D01*
X043750Y029138D01*
X043676Y029213D01*
X043562Y029260D01*
X043465Y029260D01*
X043465Y029660D01*
X043050Y029660D01*
X043050Y029760D01*
X042950Y029760D01*
X042950Y030313D01*
X042665Y030313D01*
X042627Y030302D01*
X042593Y030283D01*
X042565Y030255D01*
X042545Y030220D01*
X042535Y030182D01*
X042535Y029760D01*
X042950Y029760D01*
X042950Y029660D01*
X042535Y029660D01*
X042535Y029260D01*
X042438Y029260D01*
X042324Y029213D01*
X042237Y029126D01*
X042190Y029012D01*
X042190Y028888D01*
X042237Y028774D01*
X042290Y028722D01*
X042290Y028674D01*
X042269Y028674D01*
X042197Y028602D01*
X042186Y028638D02*
X042233Y028638D01*
X042276Y028736D02*
X042135Y028736D01*
X042212Y028835D02*
X042051Y028835D01*
X042190Y028933D02*
X041896Y028933D01*
X041750Y028933D02*
X041650Y028933D01*
X041650Y028835D02*
X041750Y028835D01*
X041750Y028736D02*
X041650Y028736D01*
X041650Y028638D02*
X041750Y028638D01*
X041750Y028539D02*
X041650Y028539D01*
X041650Y028342D02*
X041750Y028342D01*
X041750Y028244D02*
X041650Y028244D01*
X041650Y028145D02*
X041750Y028145D01*
X041750Y028047D02*
X041650Y028047D01*
X041371Y028047D02*
X041004Y028047D01*
X041102Y028145D02*
X041279Y028145D01*
X041222Y028244D02*
X041156Y028244D01*
X041164Y028638D02*
X041214Y028638D01*
X041265Y028736D02*
X041121Y028736D01*
X041023Y028835D02*
X041349Y028835D01*
X041504Y028933D02*
X040840Y028933D01*
X040560Y028933D02*
X040237Y028933D01*
X040138Y028835D02*
X040377Y028835D01*
X040279Y028736D02*
X040121Y028736D01*
X040164Y028638D02*
X040236Y028638D01*
X040200Y028539D02*
X040200Y028539D01*
X040200Y028441D02*
X040200Y028441D01*
X040196Y028342D02*
X040204Y028342D01*
X040244Y028244D02*
X040156Y028244D01*
X040102Y028145D02*
X040298Y028145D01*
X040396Y028047D02*
X040004Y028047D01*
X039396Y028047D02*
X039004Y028047D01*
X039102Y028145D02*
X039298Y028145D01*
X039244Y028244D02*
X039156Y028244D01*
X039196Y028342D02*
X039204Y028342D01*
X039200Y028351D02*
X039200Y028549D01*
X039276Y028733D01*
X039417Y028874D01*
X039508Y028912D01*
X039966Y029370D01*
X039517Y029370D01*
X039451Y029364D01*
X039444Y029370D01*
X039435Y029370D01*
X039425Y029380D01*
X039324Y029380D01*
X039221Y029423D01*
X039221Y029423D01*
X039173Y029375D01*
X039045Y029375D01*
X039045Y028812D01*
X039124Y028733D01*
X039200Y028549D01*
X039200Y028351D01*
X039200Y028441D02*
X039200Y028441D01*
X039200Y028539D02*
X039200Y028539D01*
X039164Y028638D02*
X039236Y028638D01*
X039279Y028736D02*
X039121Y028736D01*
X039045Y028835D02*
X039377Y028835D01*
X039529Y028933D02*
X039045Y028933D01*
X039045Y029032D02*
X039628Y029032D01*
X039726Y029130D02*
X039045Y029130D01*
X039045Y029229D02*
X039825Y029229D01*
X039923Y029327D02*
X039045Y029327D01*
X039380Y029660D02*
X039510Y029550D01*
X039800Y029550D01*
X041100Y029550D01*
X041400Y029850D01*
X041344Y029850D01*
X040900Y029841D02*
X040900Y029841D01*
X040699Y029841D01*
X040699Y029927D01*
X040709Y029966D01*
X040719Y029982D01*
X040703Y029982D01*
X040627Y030059D01*
X040627Y030080D01*
X040326Y030080D01*
X040288Y030042D01*
X040294Y030041D01*
X040328Y030021D01*
X040356Y029993D01*
X040376Y029959D01*
X040386Y029921D01*
X040386Y029850D01*
X040169Y029850D01*
X040169Y029850D01*
X040386Y029850D01*
X040386Y029779D01*
X040376Y029741D01*
X040370Y029730D01*
X040705Y029730D01*
X040699Y029754D01*
X040699Y029841D01*
X040900Y029841D01*
X040699Y029820D02*
X040386Y029820D01*
X040386Y029918D02*
X040699Y029918D01*
X040669Y030017D02*
X040333Y030017D01*
X040100Y030250D02*
X039850Y030500D01*
X039850Y030588D01*
X039850Y030785D02*
X040265Y030785D01*
X040420Y030530D01*
X040500Y030450D01*
X041030Y030450D01*
X041130Y030350D01*
X041344Y030350D01*
X041344Y030850D02*
X040990Y030850D01*
X040970Y030750D01*
X040600Y030750D01*
X040457Y030946D01*
X040431Y030981D01*
X039850Y030981D01*
X039850Y031178D02*
X040328Y031178D01*
X040600Y031450D01*
X040700Y031450D01*
X041344Y031450D01*
X041644Y031790D02*
X042555Y031790D01*
X042555Y031888D02*
X041644Y031888D01*
X041644Y031987D02*
X042226Y031987D01*
X042133Y032085D02*
X041644Y032085D01*
X041786Y032184D02*
X042092Y032184D01*
X042090Y032282D02*
X041859Y032282D01*
X041862Y032381D02*
X042119Y032381D01*
X042191Y032479D02*
X041862Y032479D01*
X041862Y032676D02*
X042555Y032676D01*
X042555Y032578D02*
X041583Y032578D01*
X041526Y032578D02*
X041133Y032578D01*
X041133Y032676D02*
X041247Y032676D01*
X041247Y032579D02*
X041526Y032579D01*
X041526Y032521D01*
X041247Y032521D01*
X041247Y032294D01*
X041251Y032277D01*
X041198Y032277D01*
X041160Y032267D01*
X041126Y032247D01*
X041098Y032219D01*
X041089Y032204D01*
X041083Y032210D01*
X041133Y032260D01*
X041133Y032840D01*
X041086Y032887D01*
X041285Y032887D01*
X041277Y032878D01*
X041257Y032844D01*
X041247Y032806D01*
X041247Y032579D01*
X041247Y032479D02*
X041133Y032479D01*
X041133Y032381D02*
X041247Y032381D01*
X041250Y032282D02*
X041133Y032282D01*
X040746Y032450D02*
X040420Y032360D01*
X040309Y032359D01*
X039850Y032359D01*
X039391Y032359D01*
X039300Y032450D01*
X039300Y032650D01*
X039400Y032750D01*
X039846Y032750D01*
X039850Y032753D01*
X039850Y032556D02*
X040295Y032556D01*
X039850Y032556D01*
X039850Y032556D01*
X040295Y032556D02*
X040295Y032633D01*
X040285Y032671D01*
X040275Y032688D01*
X040275Y033212D01*
X040285Y033229D01*
X040295Y033267D01*
X040328Y033267D01*
X040295Y033267D02*
X040295Y033301D01*
X040520Y033075D01*
X040625Y032970D01*
X040894Y032970D01*
X040894Y032963D01*
X040941Y032916D01*
X040634Y032916D01*
X040558Y032840D01*
X040558Y032609D01*
X040395Y032570D01*
X040333Y032570D01*
X040314Y032551D01*
X040295Y032546D01*
X040295Y032556D01*
X040295Y032578D02*
X040427Y032578D01*
X040558Y032676D02*
X040282Y032676D01*
X040275Y032775D02*
X040558Y032775D01*
X040591Y032873D02*
X040275Y032873D01*
X040275Y032972D02*
X040624Y032972D01*
X040525Y033070D02*
X040275Y033070D01*
X040275Y033169D02*
X040427Y033169D01*
X040700Y033150D02*
X041295Y033150D01*
X041300Y033155D01*
X041505Y033150D01*
X041844Y033150D01*
X041495Y033150D02*
X041300Y033155D01*
X041200Y033150D02*
X041495Y033150D01*
X041274Y032873D02*
X041100Y032873D01*
X041133Y032775D02*
X041247Y032775D01*
X041862Y032775D02*
X042676Y032775D01*
X042676Y032873D02*
X042606Y032873D01*
X042614Y032881D02*
X042633Y032915D01*
X042644Y032953D01*
X042644Y033131D01*
X042375Y033131D01*
X042375Y032823D01*
X042513Y032823D01*
X042552Y032833D01*
X042586Y032853D01*
X042614Y032881D01*
X042644Y032972D02*
X042676Y032972D01*
X042676Y033070D02*
X042644Y033070D01*
X042676Y033169D02*
X042375Y033169D01*
X042337Y033169D01*
X042337Y033731D01*
X042375Y033731D01*
X042375Y033423D01*
X042375Y033169D01*
X042375Y033267D02*
X042337Y033267D01*
X042337Y033366D02*
X042375Y033366D01*
X042375Y033464D02*
X042337Y033464D01*
X042337Y033563D02*
X042375Y033563D01*
X042375Y033661D02*
X042337Y033661D01*
X042375Y033760D02*
X042660Y033760D01*
X042656Y033747D02*
X042656Y033569D01*
X042925Y033569D01*
X042925Y033877D01*
X042787Y033877D01*
X042748Y033867D01*
X042714Y033847D01*
X042686Y033819D01*
X042667Y033785D01*
X042656Y033747D01*
X042644Y033661D02*
X042656Y033661D01*
X042644Y033563D02*
X042925Y033563D01*
X042925Y033661D02*
X042963Y033661D01*
X042963Y033760D02*
X042925Y033760D01*
X042925Y033858D02*
X042963Y033858D01*
X043155Y033858D02*
X043750Y033858D01*
X043750Y033760D02*
X043724Y033760D01*
X043724Y033661D02*
X043750Y033661D01*
X043750Y033563D02*
X043724Y033563D01*
X043724Y033464D02*
X043750Y033464D01*
X043750Y033366D02*
X043724Y033366D01*
X043750Y033267D02*
X043672Y033267D01*
X043724Y033169D02*
X043750Y033169D01*
X043750Y033070D02*
X043724Y033070D01*
X043724Y032972D02*
X043750Y032972D01*
X043750Y032873D02*
X043724Y032873D01*
X043724Y032775D02*
X043750Y032775D01*
X043750Y032676D02*
X043681Y032676D01*
X043636Y032578D02*
X043750Y032578D01*
X043750Y032479D02*
X043636Y032479D01*
X043636Y032381D02*
X043750Y032381D01*
X043750Y032282D02*
X043636Y032282D01*
X043636Y032184D02*
X043750Y032184D01*
X043750Y032085D02*
X043636Y032085D01*
X043636Y031987D02*
X043750Y031987D01*
X043750Y031888D02*
X043636Y031888D01*
X043636Y031790D02*
X043750Y031790D01*
X043750Y031691D02*
X043636Y031691D01*
X043636Y031593D02*
X043750Y031593D01*
X043750Y031494D02*
X043599Y031494D01*
X043500Y031396D02*
X043750Y031396D01*
X043750Y031297D02*
X043402Y031297D01*
X043300Y031450D02*
X042600Y031450D01*
X042390Y031340D02*
X042390Y031137D01*
X042213Y030960D01*
X042124Y030960D01*
X042124Y031081D01*
X042055Y031150D01*
X042124Y031219D01*
X042124Y031340D01*
X042390Y031340D01*
X042390Y031297D02*
X042124Y031297D01*
X042103Y031199D02*
X042390Y031199D01*
X042353Y031100D02*
X042105Y031100D01*
X042124Y031002D02*
X042255Y031002D01*
X042553Y030706D02*
X043750Y030706D01*
X043750Y030608D02*
X042455Y030608D01*
X042652Y030805D02*
X043750Y030805D01*
X043750Y030903D02*
X042750Y030903D01*
X042810Y031002D02*
X043750Y031002D01*
X043750Y031100D02*
X042810Y031100D01*
X042810Y031199D02*
X043750Y031199D01*
X043456Y031606D02*
X043300Y031450D01*
X043456Y031606D02*
X043456Y032950D01*
X042944Y032950D02*
X042944Y032694D01*
X042800Y032550D01*
X043000Y032350D01*
X042948Y032350D01*
X042944Y032346D01*
X042496Y032346D01*
X042400Y032250D01*
X043000Y032190D02*
X043000Y032350D01*
X042944Y032950D02*
X042944Y032994D01*
X043456Y033506D01*
X043456Y033550D01*
X043750Y033957D02*
X042641Y033957D01*
X042644Y033858D02*
X042733Y033858D01*
X042960Y034055D02*
X043750Y034055D01*
X043750Y034154D02*
X043058Y034154D01*
X043157Y034252D02*
X043750Y034252D01*
X043750Y034351D02*
X043255Y034351D01*
X043354Y034449D02*
X043750Y034449D01*
X043750Y034548D02*
X043452Y034548D01*
X043551Y034646D02*
X043750Y034646D01*
X043750Y034745D02*
X043649Y034745D01*
X043748Y034843D02*
X043750Y034843D01*
X043700Y035050D02*
X043500Y034850D01*
X043700Y035050D02*
X043700Y038050D01*
X041600Y040150D01*
X039000Y040150D01*
X038000Y039150D01*
X037800Y039150D01*
X037886Y039564D02*
X038200Y039850D01*
X037886Y039564D02*
X037700Y039564D01*
X037280Y039818D02*
X037174Y039944D01*
X036780Y039550D01*
X036500Y039550D01*
X036300Y039350D01*
X036300Y039006D01*
X035993Y039096D02*
X035993Y039198D01*
X036069Y039274D01*
X036120Y039274D01*
X036120Y039425D01*
X036320Y039625D01*
X036332Y039637D01*
X036215Y039637D01*
X036139Y039713D01*
X036139Y040175D01*
X036215Y040251D01*
X036287Y040251D01*
X036320Y040374D01*
X036320Y040425D01*
X036339Y040443D01*
X036346Y040469D01*
X036390Y040494D01*
X036425Y040530D01*
X036452Y040530D01*
X036475Y040543D01*
X036524Y040530D01*
X036962Y040530D01*
X036956Y040553D01*
X036956Y040731D01*
X037225Y040731D01*
X037225Y040769D01*
X036956Y040769D01*
X036956Y040947D01*
X036967Y040985D01*
X036975Y041000D01*
X034264Y041000D01*
X034476Y040912D01*
X034712Y040676D01*
X034840Y040367D01*
X034840Y040033D01*
X034712Y039724D01*
X034476Y039488D01*
X034167Y039360D01*
X033833Y039360D01*
X033791Y039377D01*
X033810Y039332D01*
X033810Y038658D01*
X033840Y038586D01*
X033810Y038685D02*
X034140Y038685D01*
X034140Y038783D02*
X033810Y038783D01*
X033810Y038882D02*
X034164Y038882D01*
X033810Y038980D02*
X035518Y038980D01*
X035537Y039026D02*
X035490Y038912D01*
X035490Y038788D01*
X035537Y038674D01*
X035624Y038587D01*
X035738Y038540D01*
X035755Y038540D01*
X035627Y038586D02*
X035040Y038586D01*
X035040Y038685D02*
X035533Y038685D01*
X035492Y038783D02*
X035040Y038783D01*
X035016Y038882D02*
X035490Y038882D01*
X035537Y039026D02*
X035624Y039113D01*
X035738Y039160D01*
X035862Y039160D01*
X035976Y039113D01*
X035993Y039096D01*
X035993Y039177D02*
X033810Y039177D01*
X033810Y039079D02*
X035590Y039079D01*
X035700Y038850D02*
X036056Y038494D01*
X036300Y038494D01*
X036005Y038291D02*
X035040Y038291D01*
X035040Y038389D02*
X035906Y038389D01*
X035800Y038850D02*
X035700Y038850D01*
X036120Y039276D02*
X033810Y039276D01*
X033799Y039374D02*
X033792Y039374D01*
X034201Y039374D02*
X036120Y039374D01*
X036168Y039473D02*
X034439Y039473D01*
X034559Y039571D02*
X036266Y039571D01*
X036182Y039670D02*
X034657Y039670D01*
X034730Y039768D02*
X036139Y039768D01*
X036139Y039867D02*
X034771Y039867D01*
X034812Y039965D02*
X036139Y039965D01*
X036139Y040064D02*
X034840Y040064D01*
X034840Y040162D02*
X036139Y040162D01*
X036289Y040261D02*
X034840Y040261D01*
X034840Y040359D02*
X036316Y040359D01*
X036343Y040458D02*
X034803Y040458D01*
X034762Y040556D02*
X036956Y040556D01*
X036956Y040655D02*
X034721Y040655D01*
X034635Y040753D02*
X037225Y040753D01*
X036956Y040852D02*
X034536Y040852D01*
X034384Y040950D02*
X036957Y040950D01*
X036500Y040350D02*
X037426Y040350D01*
X037700Y040076D01*
X037919Y040295D01*
X038300Y040295D01*
X038300Y040885D02*
X038035Y040885D01*
X037900Y040750D01*
X037756Y040750D01*
X039051Y040730D02*
X039503Y040730D01*
X039493Y040798D01*
X039468Y040874D01*
X039432Y040944D01*
X039392Y041000D01*
X041208Y041000D01*
X041168Y040944D01*
X041132Y040874D01*
X041107Y040798D01*
X041097Y040730D01*
X041549Y040730D01*
X041549Y040630D01*
X041097Y040630D01*
X041107Y040562D01*
X041132Y040486D01*
X041168Y040416D01*
X041215Y040351D01*
X041236Y040330D01*
X039364Y040330D01*
X039385Y040351D01*
X039432Y040416D01*
X039468Y040486D01*
X039493Y040562D01*
X039503Y040630D01*
X039051Y040630D01*
X039051Y040730D01*
X039051Y040655D02*
X041549Y040655D01*
X041649Y040655D02*
X042344Y040655D01*
X042375Y040686D02*
X042164Y040475D01*
X042050Y040199D01*
X042050Y039955D01*
X041792Y040212D01*
X041793Y040213D01*
X041864Y040249D01*
X041928Y040295D01*
X041984Y040351D01*
X042031Y040416D01*
X042067Y040486D01*
X042091Y040562D01*
X042102Y040630D01*
X041649Y040630D01*
X041649Y040730D01*
X042102Y040730D01*
X042091Y040798D01*
X042067Y040874D01*
X042031Y040944D01*
X041990Y041000D01*
X043750Y041000D01*
X043750Y039387D01*
X043465Y039101D01*
X043750Y038816D01*
X043750Y038255D01*
X043423Y038581D01*
X043435Y038581D01*
X043516Y038594D01*
X043594Y038620D01*
X043666Y038657D01*
X043725Y038699D01*
X043394Y039031D01*
X043465Y039101D01*
X043394Y039172D01*
X043725Y039504D01*
X043666Y039546D01*
X043594Y039583D01*
X043516Y039609D01*
X043435Y039621D01*
X043432Y039621D01*
X043436Y039625D01*
X043550Y039901D01*
X043550Y040199D01*
X043436Y040475D01*
X043225Y040686D01*
X042949Y040800D01*
X042651Y040800D01*
X042375Y040686D01*
X042537Y040753D02*
X042098Y040753D01*
X042074Y040852D02*
X043750Y040852D01*
X043750Y040950D02*
X042026Y040950D01*
X042089Y040556D02*
X042245Y040556D01*
X042157Y040458D02*
X042052Y040458D01*
X041989Y040359D02*
X042116Y040359D01*
X042075Y040261D02*
X041880Y040261D01*
X041843Y040162D02*
X042050Y040162D01*
X042050Y040064D02*
X041941Y040064D01*
X042040Y039965D02*
X042050Y039965D01*
X041209Y040359D02*
X039391Y040359D01*
X039453Y040458D02*
X041147Y040458D01*
X041109Y040556D02*
X039491Y040556D01*
X039500Y040753D02*
X041100Y040753D01*
X041125Y040852D02*
X039475Y040852D01*
X039428Y040950D02*
X041172Y040950D01*
X043063Y040753D02*
X043750Y040753D01*
X043750Y040655D02*
X043256Y040655D01*
X043355Y040556D02*
X043750Y040556D01*
X043750Y040458D02*
X043443Y040458D01*
X043484Y040359D02*
X043750Y040359D01*
X043750Y040261D02*
X043525Y040261D01*
X043550Y040162D02*
X043750Y040162D01*
X043750Y040064D02*
X043550Y040064D01*
X043550Y039965D02*
X043750Y039965D01*
X043750Y039867D02*
X043536Y039867D01*
X043495Y039768D02*
X043750Y039768D01*
X043750Y039670D02*
X043454Y039670D01*
X043618Y039571D02*
X043750Y039571D01*
X043750Y039473D02*
X043694Y039473D01*
X043737Y039374D02*
X043596Y039374D01*
X043639Y039276D02*
X043497Y039276D01*
X043540Y039177D02*
X043399Y039177D01*
X043442Y039079D02*
X043488Y039079D01*
X043445Y038980D02*
X043586Y038980D01*
X043543Y038882D02*
X043685Y038882D01*
X043642Y038783D02*
X043750Y038783D01*
X043750Y038685D02*
X043705Y038685D01*
X043750Y038586D02*
X043464Y038586D01*
X043517Y038488D02*
X043750Y038488D01*
X043750Y038389D02*
X043616Y038389D01*
X043714Y038291D02*
X043750Y038291D01*
X042500Y037994D02*
X042500Y037180D01*
X042500Y035940D02*
X042210Y035940D01*
X042757Y035631D02*
X042973Y035631D01*
X042999Y035730D02*
X042846Y035730D01*
X040973Y036616D02*
X040930Y036616D01*
X040410Y036813D02*
X040137Y036813D01*
X040144Y036715D02*
X040325Y036715D01*
X040201Y036616D02*
X040144Y036616D01*
X040034Y036912D02*
X040410Y036912D01*
X040491Y037010D02*
X039165Y037010D01*
X039263Y037109D02*
X040590Y037109D01*
X040688Y037207D02*
X039758Y037207D01*
X039344Y036590D02*
X039324Y036600D01*
X038800Y036600D01*
X038669Y036469D01*
X038669Y036100D01*
X038078Y036025D02*
X038078Y036025D01*
X038078Y035927D02*
X038078Y035927D01*
X038078Y035828D02*
X038078Y035828D01*
X038078Y035730D02*
X038078Y035730D01*
X036897Y036100D02*
X036897Y037047D01*
X037100Y037250D01*
X037390Y037560D02*
X037280Y037670D01*
X037390Y037560D02*
X037440Y037560D01*
X036390Y037601D02*
X036217Y037601D01*
X036227Y037503D02*
X036390Y037503D01*
X036320Y037150D02*
X036306Y036944D01*
X035881Y037404D02*
X034890Y037404D01*
X034890Y037306D02*
X034790Y037306D01*
X034790Y037404D02*
X033901Y037404D01*
X033999Y037306D02*
X034237Y037306D01*
X034237Y037207D02*
X034098Y037207D01*
X034196Y037109D02*
X034239Y037109D01*
X034295Y037010D02*
X034304Y037010D01*
X034393Y036912D02*
X035131Y036912D01*
X035091Y036813D02*
X034492Y036813D01*
X034518Y036715D02*
X035090Y036715D01*
X035120Y036616D02*
X034518Y036616D01*
X034790Y037010D02*
X034890Y037010D01*
X034890Y037109D02*
X034790Y037109D01*
X034790Y037207D02*
X034890Y037207D01*
X034890Y037503D02*
X034790Y037503D01*
X034790Y037500D02*
X034790Y037915D01*
X034368Y037915D01*
X034330Y037905D01*
X034295Y037885D01*
X034267Y037857D01*
X034248Y037823D01*
X034237Y037785D01*
X034237Y037500D01*
X034790Y037500D01*
X034790Y037601D02*
X034890Y037601D01*
X034890Y037700D02*
X034790Y037700D01*
X034790Y037798D02*
X034890Y037798D01*
X034890Y037897D02*
X034790Y037897D01*
X034640Y038094D02*
X034540Y038094D01*
X034540Y038192D02*
X034640Y038192D01*
X034640Y038291D02*
X034540Y038291D01*
X034540Y038389D02*
X034640Y038389D01*
X034640Y038685D02*
X034540Y038685D01*
X034540Y038783D02*
X034640Y038783D01*
X034640Y038882D02*
X034540Y038882D01*
X034140Y038291D02*
X033789Y038291D01*
X033710Y038192D02*
X034140Y038192D01*
X034184Y038094D02*
X033552Y038094D01*
X033408Y037897D02*
X034315Y037897D01*
X034241Y037798D02*
X033507Y037798D01*
X033605Y037700D02*
X034237Y037700D01*
X034237Y037601D02*
X033704Y037601D01*
X033802Y037503D02*
X034237Y037503D01*
X033500Y036950D02*
X033500Y036050D01*
X033344Y035894D01*
X033160Y035894D01*
X033160Y035690D01*
X033300Y035550D01*
X033300Y035450D01*
X033438Y035312D01*
X033550Y035312D01*
X033550Y034919D02*
X033131Y034919D01*
X032950Y035100D01*
X033467Y035730D02*
X034172Y035730D01*
X034151Y035828D02*
X033533Y035828D01*
X033631Y035927D02*
X034151Y035927D01*
X034151Y036025D02*
X033680Y036025D01*
X033160Y036406D02*
X032660Y036406D01*
X032256Y036406D01*
X032200Y036350D01*
X032368Y036616D02*
X032371Y036616D01*
X032427Y038192D02*
X033110Y038192D01*
X033045Y038256D02*
X032980Y038414D01*
X032980Y038586D01*
X032980Y038488D02*
X032418Y038488D01*
X032427Y038389D02*
X032991Y038389D01*
X033211Y038094D02*
X033268Y038094D01*
X031773Y038192D02*
X031724Y038192D01*
X029736Y037700D02*
X029288Y037700D01*
X029163Y036616D02*
X029772Y036616D01*
X029715Y036518D02*
X029163Y036518D01*
X029163Y036419D02*
X029715Y036419D01*
X029715Y036321D02*
X029163Y036321D01*
X030690Y035139D02*
X030791Y035139D01*
X030823Y035040D02*
X030668Y035040D01*
X030602Y034942D02*
X030881Y034942D01*
X030975Y034843D02*
X030503Y034843D01*
X030405Y034745D02*
X031173Y034745D01*
X031250Y034745D02*
X031350Y034745D01*
X031350Y034843D02*
X031250Y034843D01*
X031250Y034942D02*
X031350Y034942D01*
X031350Y035040D02*
X031250Y035040D01*
X030534Y034449D02*
X030109Y034449D01*
X030105Y034351D02*
X030437Y034351D01*
X030340Y034252D02*
X030105Y034252D01*
X030105Y034154D02*
X030242Y034154D01*
X030145Y034055D02*
X030063Y034055D01*
X030047Y033957D02*
X029544Y033957D01*
X029445Y033858D02*
X029950Y033858D01*
X029852Y033760D02*
X029347Y033760D01*
X029248Y033661D02*
X029755Y033661D01*
X029657Y033563D02*
X029150Y033563D01*
X029072Y033464D02*
X029559Y033464D01*
X029520Y033366D02*
X029072Y033366D01*
X029072Y033267D02*
X029520Y033267D01*
X029520Y033169D02*
X029072Y033169D01*
X029072Y033070D02*
X029520Y033070D01*
X029520Y032972D02*
X029072Y032972D01*
X029072Y032873D02*
X029520Y032873D01*
X029520Y032775D02*
X029072Y032775D01*
X029072Y032676D02*
X029520Y032676D01*
X029520Y032578D02*
X029072Y032578D01*
X029072Y032479D02*
X029520Y032479D01*
X029520Y032381D02*
X029072Y032381D01*
X029072Y032282D02*
X029520Y032282D01*
X029520Y032184D02*
X029072Y032184D01*
X029018Y032085D02*
X029520Y032085D01*
X029520Y031987D02*
X028344Y031987D01*
X028344Y031810D02*
X027850Y031810D01*
X027850Y031474D01*
X028213Y031474D01*
X028252Y031484D01*
X028286Y031504D01*
X028314Y031532D01*
X028333Y031566D01*
X028344Y031604D01*
X028344Y031810D01*
X028344Y031790D02*
X029520Y031790D01*
X029520Y031888D02*
X027850Y031888D01*
X027850Y031790D02*
X027750Y031790D01*
X027750Y031691D02*
X027850Y031691D01*
X027850Y031593D02*
X027750Y031593D01*
X027750Y031494D02*
X027850Y031494D01*
X028247Y031396D02*
X027336Y031396D01*
X027331Y031494D02*
X027312Y031494D01*
X027347Y031297D02*
X028233Y031297D01*
X028233Y031199D02*
X027347Y031199D01*
X027347Y031100D02*
X028233Y031100D01*
X028233Y031002D02*
X027347Y031002D01*
X026457Y031002D02*
X026080Y031002D01*
X026080Y031100D02*
X026457Y031100D01*
X026457Y031199D02*
X026080Y031199D01*
X026080Y031297D02*
X026457Y031297D01*
X026457Y031384D02*
X026457Y030095D01*
X026534Y030019D01*
X026620Y030019D01*
X026620Y029984D01*
X026590Y029912D01*
X026590Y029788D01*
X026637Y029674D01*
X026724Y029587D01*
X026838Y029540D01*
X026962Y029540D01*
X027076Y029587D01*
X027163Y029674D01*
X027185Y029728D01*
X027285Y029628D01*
X027420Y029572D01*
X027420Y029263D01*
X026604Y029263D01*
X026528Y029187D01*
X026528Y027570D01*
X026518Y027570D01*
X026476Y027613D01*
X026362Y027660D01*
X026238Y027660D01*
X026124Y027613D01*
X026080Y027568D01*
X026080Y032169D01*
X026080Y032351D01*
X025823Y032608D01*
X026390Y032608D01*
X026428Y032646D01*
X026528Y032646D01*
X026528Y032605D01*
X026492Y032518D01*
X026492Y031419D01*
X026457Y031384D01*
X026469Y031396D02*
X026080Y031396D01*
X026080Y031494D02*
X026492Y031494D01*
X026492Y031593D02*
X026080Y031593D01*
X026080Y031691D02*
X026492Y031691D01*
X026492Y031790D02*
X026080Y031790D01*
X026080Y031888D02*
X026492Y031888D01*
X026492Y031987D02*
X026080Y031987D01*
X026080Y032085D02*
X026492Y032085D01*
X026492Y032184D02*
X026080Y032184D01*
X026080Y032282D02*
X026492Y032282D01*
X026492Y032381D02*
X026051Y032381D01*
X025952Y032479D02*
X026492Y032479D01*
X026517Y032578D02*
X025854Y032578D01*
X025795Y033169D02*
X025780Y033169D01*
X025780Y033267D02*
X026528Y033267D01*
X026528Y033169D02*
X026405Y033169D01*
X026439Y033366D02*
X026528Y033366D01*
X026528Y033464D02*
X026466Y033464D01*
X026466Y033563D02*
X026528Y033563D01*
X026528Y033661D02*
X026466Y033661D01*
X026466Y033760D02*
X026528Y033760D01*
X026528Y033858D02*
X026440Y033858D01*
X026466Y033957D02*
X026528Y033957D01*
X026528Y034055D02*
X026466Y034055D01*
X026466Y034154D02*
X026528Y034154D01*
X026528Y034252D02*
X026466Y034252D01*
X026423Y034351D02*
X026528Y034351D01*
X025777Y034351D02*
X025081Y034351D01*
X025179Y034252D02*
X025734Y034252D01*
X025734Y034154D02*
X025278Y034154D01*
X025376Y034055D02*
X025734Y034055D01*
X025734Y033957D02*
X025475Y033957D01*
X025573Y033858D02*
X025760Y033858D01*
X025734Y033760D02*
X025672Y033760D01*
X025080Y033267D02*
X025031Y033267D01*
X025080Y033169D02*
X024932Y033169D01*
X024924Y033070D02*
X025080Y033070D01*
X025080Y032972D02*
X024924Y032972D01*
X024924Y032873D02*
X025080Y032873D01*
X025080Y032775D02*
X024924Y032775D01*
X024924Y032676D02*
X025080Y032676D01*
X025080Y032578D02*
X024882Y032578D01*
X024934Y032479D02*
X025080Y032479D01*
X025080Y032381D02*
X025033Y032381D01*
X025099Y032282D02*
X025157Y032282D01*
X025140Y032184D02*
X025255Y032184D01*
X025157Y032085D02*
X025354Y032085D01*
X025380Y031987D02*
X025157Y031987D01*
X025139Y031888D02*
X025380Y031888D01*
X025380Y031790D02*
X025098Y031790D01*
X025029Y031691D02*
X025380Y031691D01*
X025380Y031593D02*
X024931Y031593D01*
X025380Y031494D02*
X023439Y031494D01*
X023420Y031494D02*
X023320Y031494D01*
X023301Y031494D02*
X022750Y031494D01*
X022750Y031396D02*
X025380Y031396D01*
X025380Y031297D02*
X022750Y031297D01*
X022750Y031199D02*
X025380Y031199D01*
X025380Y031100D02*
X022750Y031100D01*
X022750Y031002D02*
X023273Y031002D01*
X023242Y030997D02*
X023160Y030970D01*
X023083Y030931D01*
X023013Y030880D01*
X022952Y030819D01*
X022902Y030750D01*
X022863Y030673D01*
X022836Y030591D01*
X022824Y030513D01*
X023320Y030513D01*
X023320Y031009D01*
X023242Y030997D01*
X023320Y031002D02*
X023420Y031002D01*
X023420Y031009D02*
X023420Y030513D01*
X023320Y030513D01*
X023320Y030413D01*
X022824Y030413D01*
X022836Y030334D01*
X022863Y030252D01*
X022902Y030176D01*
X022952Y030106D01*
X023013Y030045D01*
X023083Y029994D01*
X023117Y029977D01*
X022987Y029977D01*
X022948Y029967D01*
X022914Y029947D01*
X022886Y029919D01*
X022867Y029885D01*
X022856Y029847D01*
X022856Y029669D01*
X023125Y029669D01*
X023125Y029631D01*
X022856Y029631D01*
X022856Y029453D01*
X022867Y029415D01*
X022886Y029381D01*
X022914Y029353D01*
X022948Y029333D01*
X022987Y029323D01*
X023059Y029323D01*
X022923Y029187D01*
X022843Y028993D01*
X022843Y028783D01*
X022923Y028589D01*
X023071Y028441D01*
X023265Y028360D01*
X023475Y028360D01*
X023669Y028441D01*
X023817Y028589D01*
X023897Y028783D01*
X023897Y028993D01*
X023836Y029141D01*
X023836Y029343D01*
X023848Y029343D01*
X023924Y029419D01*
X023924Y029881D01*
X023848Y029957D01*
X023584Y029957D01*
X023657Y029994D01*
X023727Y030045D01*
X023788Y030106D01*
X023838Y030176D01*
X023877Y030252D01*
X023904Y030334D01*
X023916Y030413D01*
X023420Y030413D01*
X023420Y030513D01*
X023916Y030513D01*
X023904Y030591D01*
X023877Y030673D01*
X023838Y030750D01*
X023788Y030819D01*
X023727Y030880D01*
X023657Y030931D01*
X023580Y030970D01*
X023498Y030997D01*
X023420Y031009D01*
X023467Y031002D02*
X025380Y031002D01*
X025380Y030903D02*
X024935Y030903D01*
X024929Y030910D02*
X024735Y030990D01*
X024525Y030990D01*
X024331Y030910D01*
X024183Y030761D01*
X024102Y030568D01*
X024102Y030358D01*
X024183Y030164D01*
X024331Y030015D01*
X024472Y029957D01*
X024152Y029957D01*
X024076Y029881D01*
X024076Y029419D01*
X024152Y029343D01*
X024164Y029343D01*
X024164Y029142D01*
X024102Y028993D01*
X024102Y028783D01*
X024183Y028589D01*
X024331Y028441D01*
X024525Y028360D01*
X024735Y028360D01*
X024929Y028441D01*
X025077Y028589D01*
X025157Y028783D01*
X025157Y028993D01*
X025077Y029187D01*
X024941Y029323D01*
X025013Y029323D01*
X025052Y029333D01*
X025086Y029353D01*
X025114Y029381D01*
X025133Y029415D01*
X025144Y029453D01*
X025144Y029631D01*
X024875Y029631D01*
X024875Y029669D01*
X025144Y029669D01*
X025144Y029847D01*
X025133Y029885D01*
X025114Y029919D01*
X025086Y029947D01*
X025052Y029967D01*
X025013Y029977D01*
X024875Y029977D01*
X024875Y029669D01*
X024837Y029669D01*
X024837Y029977D01*
X024836Y029977D01*
X024929Y030015D01*
X025077Y030164D01*
X025157Y030358D01*
X025157Y030568D01*
X025077Y030761D01*
X024929Y030910D01*
X025034Y030805D02*
X025380Y030805D01*
X025380Y030706D02*
X025100Y030706D01*
X025141Y030608D02*
X025380Y030608D01*
X025380Y030509D02*
X025157Y030509D01*
X025157Y030411D02*
X025380Y030411D01*
X025380Y030312D02*
X025138Y030312D01*
X025098Y030214D02*
X025380Y030214D01*
X025380Y030115D02*
X025028Y030115D01*
X024930Y030017D02*
X025380Y030017D01*
X025380Y029918D02*
X025114Y029918D01*
X025144Y029820D02*
X025380Y029820D01*
X025380Y029721D02*
X025144Y029721D01*
X025144Y029623D02*
X025380Y029623D01*
X025380Y029524D02*
X025144Y029524D01*
X025136Y029426D02*
X025380Y029426D01*
X025380Y029327D02*
X025029Y029327D01*
X025035Y029229D02*
X025380Y029229D01*
X025380Y029130D02*
X025100Y029130D01*
X025141Y029032D02*
X025380Y029032D01*
X025380Y028933D02*
X025157Y028933D01*
X025157Y028835D02*
X025380Y028835D01*
X025380Y028736D02*
X025138Y028736D01*
X025097Y028638D02*
X025380Y028638D01*
X025380Y028539D02*
X025027Y028539D01*
X024928Y028441D02*
X025380Y028441D01*
X025380Y028342D02*
X022750Y028342D01*
X022750Y028244D02*
X025380Y028244D01*
X025380Y028145D02*
X022750Y028145D01*
X022750Y028047D02*
X025380Y028047D01*
X025380Y027948D02*
X022750Y027948D01*
X022750Y027850D02*
X025380Y027850D01*
X025380Y027751D02*
X024938Y027751D01*
X024929Y027760D02*
X024735Y027840D01*
X024525Y027840D01*
X024331Y027760D01*
X024183Y027612D01*
X024102Y027418D01*
X024102Y027208D01*
X024183Y027014D01*
X024331Y026866D01*
X024525Y026785D01*
X024735Y026785D01*
X024929Y026866D01*
X025077Y027014D01*
X025157Y027208D01*
X025157Y027418D01*
X025077Y027612D01*
X024929Y027760D01*
X025036Y027653D02*
X025380Y027653D01*
X025380Y027554D02*
X025101Y027554D01*
X025142Y027456D02*
X025380Y027456D01*
X025380Y027357D02*
X025157Y027357D01*
X025157Y027259D02*
X025380Y027259D01*
X025380Y027160D02*
X025137Y027160D01*
X025097Y027062D02*
X025380Y027062D01*
X025380Y026963D02*
X025026Y026963D01*
X024926Y026865D02*
X025380Y026865D01*
X025380Y026766D02*
X022750Y026766D01*
X022750Y026668D02*
X025380Y026668D01*
X025380Y026569D02*
X022750Y026569D01*
X022750Y026471D02*
X025468Y026471D01*
X025567Y026372D02*
X022750Y026372D01*
X022750Y026274D02*
X025665Y026274D01*
X025764Y026175D02*
X024939Y026175D01*
X025038Y026077D02*
X025862Y026077D01*
X025961Y025978D02*
X025101Y025978D01*
X025142Y025880D02*
X026059Y025880D01*
X026158Y025781D02*
X025157Y025781D01*
X025157Y025683D02*
X025595Y025683D01*
X025563Y025584D02*
X025137Y025584D01*
X025096Y025486D02*
X025563Y025486D01*
X025563Y025387D02*
X025025Y025387D01*
X025220Y025289D02*
X025862Y025289D01*
X025862Y025387D02*
X025958Y025387D01*
X025958Y025486D02*
X025862Y025486D01*
X025862Y025584D02*
X025958Y025584D01*
X025958Y025683D02*
X025862Y025683D01*
X025563Y025190D02*
X025518Y025190D01*
X025423Y025027D02*
X025570Y024890D01*
X026570Y024890D01*
X026700Y024750D01*
X026898Y024750D01*
X026898Y024250D02*
X026341Y024250D01*
X026284Y024447D01*
X026074Y024024D01*
X025900Y023850D01*
X025900Y023750D01*
X025700Y023550D01*
X025200Y023550D01*
X024956Y023794D01*
X024900Y023794D01*
X024656Y023794D01*
X024500Y023950D01*
X024500Y024650D01*
X024200Y024950D01*
X024477Y025092D02*
X024520Y025092D01*
X024520Y025190D02*
X024398Y025190D01*
X024337Y025289D02*
X023916Y025289D01*
X023924Y025190D02*
X024002Y025190D01*
X023836Y025387D02*
X024235Y025387D01*
X024164Y025486D02*
X023839Y025486D01*
X023877Y025584D02*
X024123Y025584D01*
X024102Y025683D02*
X023897Y025683D01*
X023897Y025781D02*
X024102Y025781D01*
X024117Y025880D02*
X023882Y025880D01*
X023842Y025978D02*
X024158Y025978D01*
X024222Y026077D02*
X023778Y026077D01*
X023679Y026175D02*
X024321Y026175D01*
X024334Y026865D02*
X023666Y026865D01*
X023669Y026866D02*
X023817Y027014D01*
X023897Y027208D01*
X023897Y027418D01*
X023817Y027612D01*
X023669Y027760D01*
X023475Y027840D01*
X023265Y027840D01*
X023071Y027760D01*
X022923Y027612D01*
X022843Y027418D01*
X022843Y027208D01*
X022923Y027014D01*
X023071Y026866D01*
X023265Y026785D01*
X023475Y026785D01*
X023669Y026866D01*
X023766Y026963D02*
X024234Y026963D01*
X024163Y027062D02*
X023837Y027062D01*
X023878Y027160D02*
X024122Y027160D01*
X024102Y027259D02*
X023897Y027259D01*
X023897Y027357D02*
X024102Y027357D01*
X024118Y027456D02*
X023882Y027456D01*
X023841Y027554D02*
X024159Y027554D01*
X024223Y027653D02*
X023776Y027653D01*
X023678Y027751D02*
X024322Y027751D01*
X024331Y028441D02*
X023669Y028441D01*
X023767Y028539D02*
X024233Y028539D01*
X024163Y028638D02*
X023837Y028638D01*
X023878Y028736D02*
X024122Y028736D01*
X024102Y028835D02*
X023897Y028835D01*
X023897Y028933D02*
X024102Y028933D01*
X024118Y029032D02*
X023881Y029032D01*
X023841Y029130D02*
X024159Y029130D01*
X024164Y029229D02*
X023836Y029229D01*
X023836Y029327D02*
X024164Y029327D01*
X024076Y029426D02*
X023924Y029426D01*
X023924Y029524D02*
X024076Y029524D01*
X024076Y029623D02*
X023924Y029623D01*
X023924Y029721D02*
X024076Y029721D01*
X024076Y029820D02*
X023924Y029820D01*
X023887Y029918D02*
X024113Y029918D01*
X024231Y030115D02*
X023794Y030115D01*
X023858Y030214D02*
X024162Y030214D01*
X024121Y030312D02*
X023897Y030312D01*
X023916Y030411D02*
X024102Y030411D01*
X024102Y030509D02*
X023420Y030509D01*
X023370Y030463D02*
X023144Y030237D01*
X023144Y029650D01*
X022856Y029623D02*
X022750Y029623D01*
X022750Y029721D02*
X022856Y029721D01*
X022856Y029820D02*
X022750Y029820D01*
X022750Y029918D02*
X022886Y029918D01*
X022750Y030017D02*
X023053Y030017D01*
X022946Y030115D02*
X022750Y030115D01*
X022750Y030214D02*
X022882Y030214D01*
X022843Y030312D02*
X022750Y030312D01*
X022750Y030411D02*
X022824Y030411D01*
X022750Y030509D02*
X023320Y030509D01*
X023320Y030413D02*
X023320Y029972D01*
X023340Y029967D01*
X023374Y029947D01*
X023402Y029919D01*
X023411Y029904D01*
X023424Y029917D01*
X023420Y029916D01*
X023420Y030413D01*
X023320Y030413D01*
X023320Y030411D02*
X023420Y030411D01*
X023420Y030312D02*
X023320Y030312D01*
X023320Y030214D02*
X023420Y030214D01*
X023420Y030115D02*
X023320Y030115D01*
X023320Y030017D02*
X023420Y030017D01*
X023420Y029918D02*
X023403Y029918D01*
X023687Y030017D02*
X024330Y030017D01*
X024344Y029650D02*
X024344Y029174D01*
X024630Y028888D01*
X024837Y029721D02*
X024875Y029721D01*
X024875Y029820D02*
X024837Y029820D01*
X024837Y029918D02*
X024875Y029918D01*
X024119Y030608D02*
X023899Y030608D01*
X023860Y030706D02*
X024160Y030706D01*
X024226Y030805D02*
X023798Y030805D01*
X023695Y030903D02*
X024324Y030903D01*
X024329Y031593D02*
X023689Y031593D01*
X023795Y031691D02*
X024230Y031691D01*
X024162Y031790D02*
X023858Y031790D01*
X023420Y031790D02*
X023320Y031790D01*
X023320Y031888D02*
X023420Y031888D01*
X023420Y031691D02*
X023320Y031691D01*
X023320Y031593D02*
X023420Y031593D01*
X023051Y031593D02*
X022750Y031593D01*
X022750Y031691D02*
X022945Y031691D01*
X022882Y031790D02*
X022750Y031790D01*
X022750Y031888D02*
X022843Y031888D01*
X022750Y030903D02*
X023045Y030903D01*
X022942Y030805D02*
X022750Y030805D01*
X022750Y030706D02*
X022880Y030706D01*
X022841Y030608D02*
X022750Y030608D01*
X023320Y030608D02*
X023420Y030608D01*
X023420Y030706D02*
X023320Y030706D01*
X023320Y030805D02*
X023420Y030805D01*
X023420Y030903D02*
X023320Y030903D01*
X023656Y029650D02*
X023656Y029174D01*
X023370Y028888D01*
X022973Y028539D02*
X022750Y028539D01*
X022750Y028441D02*
X023071Y028441D01*
X022903Y028638D02*
X022750Y028638D01*
X022750Y028736D02*
X022862Y028736D01*
X022843Y028835D02*
X022750Y028835D01*
X022750Y028933D02*
X022843Y028933D01*
X022859Y029032D02*
X022750Y029032D01*
X022750Y029130D02*
X022899Y029130D01*
X022965Y029229D02*
X022750Y029229D01*
X022750Y029327D02*
X022971Y029327D01*
X022864Y029426D02*
X022750Y029426D01*
X022750Y029524D02*
X022856Y029524D01*
X022750Y027751D02*
X023062Y027751D01*
X022964Y027653D02*
X022750Y027653D01*
X022750Y027554D02*
X022899Y027554D01*
X022858Y027456D02*
X022750Y027456D01*
X022750Y027357D02*
X022843Y027357D01*
X022843Y027259D02*
X022750Y027259D01*
X022750Y027160D02*
X022862Y027160D01*
X022903Y027062D02*
X022750Y027062D01*
X022750Y026963D02*
X022974Y026963D01*
X023074Y026865D02*
X022750Y026865D01*
X022750Y026175D02*
X023061Y026175D01*
X022962Y026077D02*
X022750Y026077D01*
X022750Y025978D02*
X022898Y025978D01*
X022858Y025880D02*
X022750Y025880D01*
X022750Y025781D02*
X022843Y025781D01*
X022843Y025683D02*
X022750Y025683D01*
X022750Y025584D02*
X022863Y025584D01*
X022904Y025486D02*
X022750Y025486D01*
X022750Y025387D02*
X022975Y025387D01*
X022869Y025289D02*
X022750Y025289D01*
X022750Y025190D02*
X022856Y025190D01*
X022856Y025092D02*
X022750Y025092D01*
X022750Y024993D02*
X022856Y024993D01*
X022856Y024895D02*
X022750Y024895D01*
X022750Y024796D02*
X022877Y024796D01*
X022750Y024698D02*
X024014Y024698D01*
X023928Y024796D02*
X023901Y024796D01*
X023656Y025050D02*
X023656Y025424D01*
X023370Y025738D01*
X023144Y025050D02*
X023144Y024806D01*
X023420Y024600D01*
X023592Y024501D02*
X022750Y024501D01*
X022750Y024599D02*
X024296Y024599D01*
X024180Y024353D02*
X024200Y024150D01*
X024200Y024127D01*
X024200Y023850D01*
X024600Y023450D01*
X024900Y023450D01*
X025000Y023350D01*
X025000Y023250D01*
X025326Y022924D01*
X025626Y022924D01*
X026000Y023250D01*
X026898Y023250D01*
X026898Y022750D02*
X026341Y022750D01*
X026274Y022683D01*
X025841Y022250D01*
X025200Y022250D01*
X025000Y022450D01*
X025000Y022750D01*
X024300Y023450D01*
X023644Y023450D01*
X022944Y024150D01*
X023191Y024402D02*
X023209Y024402D01*
X023456Y024150D02*
X023800Y024150D01*
X023163Y024796D02*
X023125Y024796D01*
X023125Y024895D02*
X023163Y024895D01*
X023163Y024993D02*
X023125Y024993D01*
X024510Y024993D02*
X024520Y024993D01*
X024510Y024895D02*
X024520Y024895D01*
X024900Y025050D02*
X025423Y025027D01*
X025570Y024890D02*
X025536Y024786D01*
X025536Y024447D01*
X025536Y023986D01*
X025540Y023890D01*
X024956Y023750D02*
X024900Y023794D01*
X024900Y024306D02*
X024900Y024650D01*
X026400Y025450D02*
X026600Y025250D01*
X026898Y025250D01*
X028280Y024796D02*
X028299Y024796D01*
X028280Y024698D02*
X028398Y024698D01*
X028496Y024599D02*
X028280Y024599D01*
X028280Y024501D02*
X028795Y024501D01*
X028720Y024402D02*
X028280Y024402D01*
X028280Y024304D02*
X028716Y024304D01*
X028716Y024205D02*
X028280Y024205D01*
X028280Y024107D02*
X028718Y024107D01*
X028781Y024008D02*
X028280Y024008D01*
X028280Y023910D02*
X028736Y023910D01*
X028736Y023811D02*
X028280Y023811D01*
X028280Y023713D02*
X028736Y023713D01*
X028736Y023614D02*
X028280Y023614D01*
X028280Y023516D02*
X028799Y023516D01*
X028736Y023417D02*
X028280Y023417D01*
X028280Y023319D02*
X028736Y023319D01*
X028736Y023220D02*
X028280Y023220D01*
X028283Y023122D02*
X028736Y023122D01*
X028791Y023023D02*
X028382Y023023D01*
X028480Y022925D02*
X028726Y022925D01*
X028716Y022826D02*
X028579Y022826D01*
X028677Y022728D02*
X028716Y022728D01*
X028900Y022250D02*
X028100Y023050D01*
X027824Y022432D02*
X027254Y022432D01*
X027224Y022038D02*
X027769Y022038D01*
X027800Y022250D02*
X026898Y022250D01*
X026531Y022235D02*
X026145Y022235D01*
X026240Y022137D02*
X026531Y022137D01*
X026571Y022038D02*
X026247Y022038D01*
X025553Y021743D02*
X023952Y021743D01*
X023448Y021743D02*
X022750Y021743D01*
X022750Y021841D02*
X023248Y021841D01*
X023150Y021940D02*
X022750Y021940D01*
X022750Y022038D02*
X023059Y022038D01*
X023018Y022137D02*
X022750Y022137D01*
X022750Y022235D02*
X022977Y022235D01*
X022950Y022334D02*
X022750Y022334D01*
X022750Y022432D02*
X022950Y022432D01*
X022950Y022531D02*
X022750Y022531D01*
X022750Y022629D02*
X022962Y022629D01*
X023003Y022728D02*
X022750Y022728D01*
X022750Y022826D02*
X023044Y022826D01*
X023114Y022925D02*
X022750Y022925D01*
X022750Y023023D02*
X023212Y023023D01*
X023361Y023122D02*
X022750Y023122D01*
X022750Y021644D02*
X025553Y021644D01*
X025553Y021546D02*
X022750Y021546D01*
X025526Y022683D02*
X025626Y022924D01*
X026340Y023730D02*
X026360Y023750D01*
X026898Y023750D01*
X028400Y024950D02*
X028600Y024750D01*
X029102Y024750D01*
X029469Y024796D02*
X029820Y024796D01*
X029820Y024698D02*
X029469Y024698D01*
X029469Y024599D02*
X029820Y024599D01*
X029820Y024501D02*
X029409Y024501D01*
X029398Y024507D02*
X029469Y024578D01*
X029469Y024922D01*
X029392Y024998D01*
X028812Y024998D01*
X028744Y024930D01*
X028675Y024930D01*
X028580Y025025D01*
X028580Y025448D01*
X028676Y025487D01*
X028715Y025527D01*
X028737Y025474D01*
X028763Y025449D01*
X028736Y025422D01*
X028736Y025078D01*
X028812Y025002D01*
X029392Y025002D01*
X029469Y025078D01*
X029469Y025422D01*
X029392Y025498D01*
X029273Y025498D01*
X029310Y025588D01*
X029310Y025712D01*
X029263Y025826D01*
X029198Y025890D01*
X029273Y025890D01*
X029330Y025879D01*
X029346Y025890D01*
X029365Y025890D01*
X029405Y025931D01*
X029756Y026170D01*
X029775Y026170D01*
X029815Y026211D01*
X029820Y026214D01*
X029820Y024125D01*
X029725Y024030D01*
X029449Y024030D01*
X029459Y024040D01*
X029478Y024074D01*
X029489Y024112D01*
X029489Y024241D01*
X029111Y024241D01*
X029111Y024259D01*
X029489Y024259D01*
X029489Y024388D01*
X029478Y024426D01*
X029459Y024460D01*
X029431Y024488D01*
X029398Y024507D01*
X029485Y024402D02*
X029820Y024402D01*
X029820Y024304D02*
X029489Y024304D01*
X029489Y024205D02*
X029820Y024205D01*
X029802Y024107D02*
X029487Y024107D01*
X029469Y024895D02*
X029820Y024895D01*
X029820Y024993D02*
X029398Y024993D01*
X029469Y025092D02*
X029820Y025092D01*
X029820Y025190D02*
X029469Y025190D01*
X029469Y025289D02*
X029820Y025289D01*
X029820Y025387D02*
X029469Y025387D01*
X029405Y025486D02*
X029820Y025486D01*
X029820Y025584D02*
X029308Y025584D01*
X029310Y025683D02*
X029820Y025683D01*
X029820Y025781D02*
X029281Y025781D01*
X029329Y025880D02*
X029209Y025880D01*
X029330Y025880D02*
X029820Y025880D01*
X029820Y025978D02*
X029474Y025978D01*
X029619Y026077D02*
X029820Y026077D01*
X029820Y026175D02*
X029780Y026175D01*
X029520Y026471D02*
X029364Y026471D01*
X029364Y026569D02*
X029520Y026569D01*
X029520Y026668D02*
X029325Y026668D01*
X029520Y026766D02*
X029072Y026766D01*
X029072Y026668D02*
X029095Y026668D01*
X029095Y026569D02*
X029057Y026569D01*
X029057Y026471D02*
X029095Y026471D01*
X029095Y026372D02*
X029413Y026372D01*
X029520Y026865D02*
X029072Y026865D01*
X029072Y026963D02*
X029520Y026963D01*
X029520Y027062D02*
X029072Y027062D01*
X029072Y027160D02*
X029520Y027160D01*
X029520Y027259D02*
X029072Y027259D01*
X029072Y027357D02*
X029520Y027357D01*
X029520Y027456D02*
X029072Y027456D01*
X029072Y027554D02*
X029520Y027554D01*
X029520Y027653D02*
X029072Y027653D01*
X029072Y027751D02*
X029520Y027751D01*
X029520Y027850D02*
X029072Y027850D01*
X029072Y027948D02*
X029520Y027948D01*
X029520Y028047D02*
X029072Y028047D01*
X029072Y028145D02*
X029520Y028145D01*
X029520Y028244D02*
X029072Y028244D01*
X029072Y028342D02*
X029520Y028342D01*
X029520Y028441D02*
X029072Y028441D01*
X029072Y028539D02*
X029520Y028539D01*
X029520Y028638D02*
X029072Y028638D01*
X029072Y028736D02*
X029520Y028736D01*
X029520Y028835D02*
X029072Y028835D01*
X029072Y028933D02*
X029520Y028933D01*
X029520Y029032D02*
X029072Y029032D01*
X029072Y029130D02*
X029520Y029130D01*
X029520Y029229D02*
X029031Y029229D01*
X029520Y029327D02*
X028180Y029327D01*
X028180Y029426D02*
X029520Y029426D01*
X029520Y029524D02*
X028180Y029524D01*
X028302Y029623D02*
X029520Y029623D01*
X029520Y029721D02*
X028408Y029721D01*
X028457Y029820D02*
X029520Y029820D01*
X029520Y029918D02*
X028480Y029918D01*
X028648Y030017D02*
X028748Y030017D01*
X028748Y029999D02*
X029032Y029999D01*
X029070Y030009D01*
X029105Y030029D01*
X029133Y030057D01*
X029152Y030091D01*
X029163Y030129D01*
X029163Y030690D01*
X028748Y030690D01*
X028748Y029999D01*
X028748Y030115D02*
X028648Y030115D01*
X028648Y030214D02*
X028748Y030214D01*
X028748Y030312D02*
X028648Y030312D01*
X028648Y030411D02*
X028748Y030411D01*
X028748Y030509D02*
X028648Y030509D01*
X028648Y030608D02*
X028748Y030608D01*
X028748Y030706D02*
X029520Y030706D01*
X029520Y030608D02*
X029163Y030608D01*
X029163Y030509D02*
X029520Y030509D01*
X029520Y030411D02*
X029163Y030411D01*
X029163Y030312D02*
X029520Y030312D01*
X029520Y030214D02*
X029163Y030214D01*
X029159Y030115D02*
X029520Y030115D01*
X029520Y030017D02*
X029083Y030017D01*
X029163Y030805D02*
X029520Y030805D01*
X029520Y030903D02*
X029163Y030903D01*
X029163Y031002D02*
X029520Y031002D01*
X029520Y031100D02*
X029163Y031100D01*
X029163Y031199D02*
X029520Y031199D01*
X029520Y031297D02*
X029163Y031297D01*
X029148Y031396D02*
X029520Y031396D01*
X029520Y031494D02*
X028269Y031494D01*
X028341Y031593D02*
X029520Y031593D01*
X029520Y031691D02*
X028344Y031691D01*
X028648Y031396D02*
X028748Y031396D01*
X028748Y031297D02*
X028648Y031297D01*
X028648Y031199D02*
X028748Y031199D01*
X028748Y031100D02*
X028648Y031100D01*
X028648Y031002D02*
X028748Y031002D01*
X028748Y030903D02*
X028648Y030903D01*
X028648Y030805D02*
X028748Y030805D01*
X027420Y029524D02*
X026080Y029524D01*
X026080Y029426D02*
X027420Y029426D01*
X027420Y029327D02*
X026080Y029327D01*
X026080Y029229D02*
X026569Y029229D01*
X026528Y029130D02*
X026080Y029130D01*
X026080Y029032D02*
X026528Y029032D01*
X026528Y028933D02*
X026080Y028933D01*
X026080Y028835D02*
X026528Y028835D01*
X026528Y028736D02*
X026080Y028736D01*
X026080Y028638D02*
X026528Y028638D01*
X026528Y028539D02*
X026080Y028539D01*
X026080Y028441D02*
X026528Y028441D01*
X026528Y028342D02*
X026080Y028342D01*
X026080Y028244D02*
X026528Y028244D01*
X026528Y028145D02*
X026080Y028145D01*
X026080Y028047D02*
X026528Y028047D01*
X026528Y027948D02*
X026080Y027948D01*
X026080Y027850D02*
X026528Y027850D01*
X026528Y027751D02*
X026080Y027751D01*
X026080Y027653D02*
X026220Y027653D01*
X026380Y027653D02*
X026528Y027653D01*
X026300Y026850D02*
X026740Y026410D01*
X028160Y026410D01*
X028500Y025750D02*
X028400Y025650D01*
X028400Y024950D01*
X028612Y024993D02*
X028807Y024993D01*
X028736Y025092D02*
X028580Y025092D01*
X028580Y025190D02*
X028736Y025190D01*
X028736Y025289D02*
X028580Y025289D01*
X028580Y025387D02*
X028736Y025387D01*
X028733Y025486D02*
X028672Y025486D01*
X029000Y025650D02*
X029002Y025252D01*
X029102Y025250D01*
X030480Y025289D02*
X030520Y025289D01*
X030520Y025387D02*
X030480Y025387D01*
X030480Y025486D02*
X030520Y025486D01*
X030520Y025584D02*
X030480Y025584D01*
X030480Y025683D02*
X030520Y025683D01*
X030520Y025781D02*
X030480Y025781D01*
X030480Y025880D02*
X030520Y025880D01*
X030520Y025978D02*
X030480Y025978D01*
X030480Y026077D02*
X030520Y026077D01*
X030520Y026175D02*
X030480Y026175D01*
X030480Y026274D02*
X030520Y026274D01*
X030520Y026372D02*
X030480Y026372D01*
X030480Y026471D02*
X030520Y026471D01*
X030520Y026569D02*
X030480Y026569D01*
X030480Y026668D02*
X030520Y026668D01*
X030520Y026766D02*
X030480Y026766D01*
X030480Y026865D02*
X030520Y026865D01*
X030520Y026963D02*
X030480Y026963D01*
X030480Y027062D02*
X030520Y027062D01*
X030555Y027160D02*
X030480Y027160D01*
X030480Y027259D02*
X030654Y027259D01*
X030752Y027357D02*
X030480Y027357D01*
X030480Y027456D02*
X030851Y027456D01*
X030949Y027554D02*
X030480Y027554D01*
X030480Y027653D02*
X031048Y027653D01*
X031146Y027751D02*
X030480Y027751D01*
X030480Y027850D02*
X030812Y027850D01*
X030745Y027948D02*
X030480Y027948D01*
X030480Y028047D02*
X030720Y028047D01*
X030726Y028145D02*
X030480Y028145D01*
X030480Y028244D02*
X030730Y028244D01*
X030570Y028342D02*
X030480Y028342D01*
X031030Y028070D02*
X031130Y028190D01*
X031130Y028820D01*
X031000Y028950D01*
X031000Y032150D01*
X032194Y033344D01*
X033550Y033344D01*
X033550Y033147D02*
X032497Y033147D01*
X031400Y032050D01*
X031400Y027750D01*
X030700Y027050D01*
X030700Y022350D01*
X031300Y021750D01*
X032900Y021750D01*
X033000Y021650D01*
X033002Y021752D01*
X033002Y022252D01*
X032600Y022250D02*
X032400Y022050D01*
X031400Y022050D01*
X031000Y022450D01*
X031000Y026850D01*
X031700Y027550D01*
X031700Y031950D01*
X032700Y032950D01*
X033550Y032950D01*
X033550Y032753D02*
X033163Y032753D01*
X032960Y032600D01*
X033203Y032753D01*
X033550Y032753D01*
X033550Y032359D02*
X033209Y032359D01*
X033100Y032250D01*
X032500Y032250D01*
X032233Y032085D02*
X032090Y032085D01*
X032188Y032184D02*
X032192Y032184D01*
X032326Y031987D02*
X031991Y031987D01*
X031893Y031888D02*
X032394Y031888D01*
X032526Y031888D02*
X032603Y031888D01*
X032674Y031987D02*
X032911Y031987D01*
X032930Y031464D02*
X033019Y031375D01*
X033550Y031375D01*
X032775Y031375D01*
X032460Y031580D01*
X032170Y031691D02*
X031880Y031691D01*
X031880Y031593D02*
X032150Y031593D01*
X032160Y031494D02*
X031880Y031494D01*
X031880Y031396D02*
X032206Y031396D01*
X032333Y031297D02*
X031880Y031297D01*
X031880Y031199D02*
X032697Y031199D01*
X032795Y031100D02*
X031880Y031100D01*
X031880Y031002D02*
X032697Y031002D01*
X032931Y030981D02*
X032700Y030750D01*
X032300Y030750D01*
X032000Y030450D01*
X032000Y027150D01*
X033946Y025204D01*
X033946Y022252D01*
X033946Y021696D01*
X033950Y021650D01*
X034420Y021650D02*
X034419Y021731D01*
X034419Y022252D01*
X034419Y025131D01*
X032300Y027250D01*
X032300Y030150D01*
X032500Y030350D01*
X032779Y030214D02*
X034215Y030214D01*
X034151Y030115D02*
X033532Y030115D01*
X033610Y030037D02*
X033610Y030037D01*
X033630Y030017D02*
X034151Y030017D01*
X034151Y029918D02*
X033729Y029918D01*
X034033Y029820D02*
X034151Y029820D01*
X034151Y029721D02*
X034113Y029721D01*
X034400Y029250D02*
X034200Y029050D01*
X034400Y029250D02*
X034800Y029250D01*
X034928Y029378D01*
X034928Y029800D01*
X035125Y029800D02*
X035125Y029275D01*
X034900Y029050D01*
X034800Y029050D01*
X034600Y028850D01*
X035030Y028890D02*
X035030Y028650D01*
X035030Y028890D02*
X035322Y029182D01*
X035322Y029800D01*
X035716Y029820D02*
X035716Y029820D01*
X035716Y029918D02*
X035716Y029918D01*
X035716Y030017D02*
X035716Y030017D01*
X035716Y030115D02*
X035716Y030115D01*
X035716Y030214D02*
X035716Y030214D01*
X035733Y030312D02*
X032810Y030312D01*
X032810Y030411D02*
X033191Y030411D01*
X033125Y030509D02*
X032770Y030509D01*
X032812Y030608D02*
X033125Y030608D01*
X033125Y030706D02*
X032911Y030706D01*
X032931Y030981D02*
X033550Y030981D01*
X033976Y030509D02*
X035904Y030509D01*
X035806Y030411D02*
X033909Y030411D01*
X032198Y030903D02*
X031880Y030903D01*
X031880Y030805D02*
X032100Y030805D01*
X032001Y030706D02*
X031880Y030706D01*
X031880Y030608D02*
X031903Y030608D01*
X031880Y031790D02*
X032231Y031790D01*
X030971Y034131D02*
X033550Y034131D01*
X029195Y034745D02*
X029015Y034745D01*
X029072Y034646D02*
X029159Y034646D01*
X026457Y036124D02*
X026377Y036124D01*
X026370Y036117D02*
X026446Y036193D01*
X026446Y036616D01*
X026457Y036616D01*
X026446Y036616D02*
X026446Y037027D01*
X026370Y037103D01*
X025790Y037103D01*
X025714Y037027D01*
X025714Y036193D01*
X025790Y036117D01*
X026370Y036117D01*
X026446Y036222D02*
X026457Y036222D01*
X026446Y036321D02*
X026457Y036321D01*
X026446Y036419D02*
X026457Y036419D01*
X026446Y036518D02*
X026457Y036518D01*
X026446Y036715D02*
X026457Y036715D01*
X026446Y036813D02*
X026457Y036813D01*
X026446Y036912D02*
X026485Y036912D01*
X026485Y037010D02*
X026446Y037010D01*
X026485Y037109D02*
X025280Y037109D01*
X025280Y037010D02*
X025714Y037010D01*
X025714Y036912D02*
X025280Y036912D01*
X025280Y036813D02*
X025714Y036813D01*
X025714Y036715D02*
X025280Y036715D01*
X025280Y036616D02*
X025714Y036616D01*
X025714Y036518D02*
X025280Y036518D01*
X025280Y036419D02*
X025714Y036419D01*
X025714Y036321D02*
X025280Y036321D01*
X025280Y036222D02*
X025714Y036222D01*
X025783Y036124D02*
X025228Y036124D01*
X026051Y035927D02*
X026109Y035927D01*
X026109Y035828D02*
X026051Y035828D01*
X026051Y035730D02*
X026109Y035730D01*
X026109Y035631D02*
X026051Y035631D01*
X026051Y035533D02*
X026109Y035533D01*
X026109Y035434D02*
X026051Y035434D01*
X024229Y035533D02*
X023770Y035533D01*
X023839Y035434D02*
X024161Y035434D01*
X024120Y035336D02*
X023879Y035336D01*
X023897Y035237D02*
X024102Y035237D01*
X024102Y035139D02*
X023897Y035139D01*
X023880Y035040D02*
X024120Y035040D01*
X024161Y034942D02*
X023839Y034942D01*
X023937Y034843D02*
X023975Y034843D01*
X023975Y034745D02*
X023937Y034745D01*
X023937Y034646D02*
X023975Y034646D01*
X024158Y034843D02*
X024228Y034843D01*
X024239Y034745D02*
X024326Y034745D01*
X024630Y033612D02*
X024656Y033586D01*
X024656Y032850D01*
X024161Y033366D02*
X023839Y033366D01*
X023925Y033464D02*
X024120Y033464D01*
X024102Y033563D02*
X024024Y033563D01*
X023954Y033169D02*
X023896Y033169D01*
X022906Y034154D02*
X022750Y034154D01*
X022750Y034252D02*
X022760Y034252D01*
X023253Y035730D02*
X023367Y035730D01*
X023367Y035828D02*
X023253Y035828D01*
X025312Y037207D02*
X026485Y037207D01*
X026480Y037274D02*
X026480Y037274D01*
X025721Y037306D02*
X025410Y037306D01*
X025509Y037404D02*
X025714Y037404D01*
X025714Y037503D02*
X025607Y037503D01*
X025706Y037601D02*
X025714Y037601D01*
X029232Y038685D02*
X029272Y038685D01*
X029272Y038783D02*
X029232Y038783D01*
X035881Y037601D02*
X035919Y037601D01*
X035919Y037503D02*
X035881Y037503D01*
X036820Y038575D02*
X036820Y038575D01*
X037280Y039006D02*
X037280Y039818D01*
X036426Y039944D02*
X036426Y040076D01*
X036500Y040350D01*
X039344Y036590D02*
X039438Y036450D01*
X039440Y036060D01*
X039850Y034919D02*
X040219Y034919D01*
X040350Y035050D01*
X040350Y035150D01*
X039850Y033934D02*
X040916Y033934D01*
X041105Y033745D01*
X041300Y033745D01*
X041839Y033745D01*
X041844Y033750D01*
X042597Y033464D02*
X042656Y033464D01*
X042656Y033366D02*
X042639Y033366D01*
X042644Y033267D02*
X042700Y033267D01*
X042375Y033070D02*
X042337Y033070D01*
X042337Y032972D02*
X042375Y032972D01*
X042375Y032873D02*
X042337Y032873D01*
X042106Y032873D02*
X042066Y032873D01*
X040700Y033150D02*
X040309Y033541D01*
X039850Y033541D01*
X039850Y033737D02*
X040573Y033737D01*
X040690Y033620D01*
X040613Y033737D01*
X040844Y031950D02*
X040744Y031750D01*
X040600Y031750D01*
X040225Y031375D01*
X039850Y031375D01*
X039425Y031375D01*
X039300Y031250D01*
X039300Y030550D01*
X039600Y030250D01*
X039353Y030115D02*
X039249Y030115D01*
X039249Y030017D02*
X039437Y030017D01*
X039489Y029918D02*
X039592Y029918D01*
X039616Y029820D02*
X039634Y029820D01*
X039380Y029660D02*
X039350Y029700D01*
X039062Y029800D01*
X038865Y029800D02*
X038865Y028615D01*
X038700Y028450D01*
X038236Y028638D02*
X038212Y028638D01*
X038178Y028603D02*
X038254Y028679D01*
X038200Y028549D01*
X038200Y028351D01*
X038200Y028549D01*
X038178Y028603D01*
X038200Y028539D02*
X038200Y028539D01*
X038200Y028441D02*
X038200Y028441D01*
X038196Y028342D02*
X038204Y028342D01*
X038244Y028244D02*
X038156Y028244D01*
X038102Y028145D02*
X038298Y028145D01*
X038396Y028047D02*
X038004Y028047D01*
X038170Y027850D02*
X038227Y027850D01*
X038227Y027751D02*
X038170Y027751D01*
X038170Y027653D02*
X038227Y027653D01*
X038227Y027554D02*
X038170Y027554D01*
X038227Y027456D02*
X038840Y027456D01*
X038840Y027554D02*
X038506Y027554D01*
X038506Y027653D02*
X038840Y027653D01*
X038840Y027357D02*
X038506Y027357D01*
X038506Y027420D02*
X038227Y027420D01*
X038227Y026983D01*
X038376Y026983D01*
X038414Y026994D01*
X038448Y027013D01*
X038476Y027041D01*
X038496Y027076D01*
X038506Y027114D01*
X038506Y027420D01*
X038506Y027259D02*
X038840Y027259D01*
X038840Y027160D02*
X038506Y027160D01*
X038488Y027062D02*
X038840Y027062D01*
X038840Y026963D02*
X032842Y026963D01*
X032940Y026865D02*
X038840Y026865D01*
X038840Y026766D02*
X033039Y026766D01*
X033137Y026668D02*
X038840Y026668D01*
X038840Y026569D02*
X033236Y026569D01*
X033334Y026471D02*
X038840Y026471D01*
X038840Y026372D02*
X033433Y026372D01*
X033531Y026274D02*
X038840Y026274D01*
X038840Y026175D02*
X033630Y026175D01*
X033728Y026077D02*
X038840Y026077D01*
X038840Y025978D02*
X033827Y025978D01*
X033925Y025880D02*
X038840Y025880D01*
X038840Y025781D02*
X034024Y025781D01*
X034122Y025683D02*
X038840Y025683D01*
X038840Y025584D02*
X034221Y025584D01*
X034319Y025486D02*
X038840Y025486D01*
X038840Y025387D02*
X034418Y025387D01*
X034493Y025311D02*
X034493Y025311D01*
X034516Y025289D02*
X038840Y025289D01*
X038840Y025190D02*
X034599Y025190D01*
X034599Y025092D02*
X038840Y025092D01*
X038840Y024993D02*
X034599Y024993D01*
X034599Y024895D02*
X038840Y024895D01*
X038840Y024796D02*
X034599Y024796D01*
X034599Y024698D02*
X038840Y024698D01*
X038840Y024599D02*
X034599Y024599D01*
X034599Y024501D02*
X038840Y024501D01*
X038837Y024402D02*
X034599Y024402D01*
X034599Y024304D02*
X038836Y024304D01*
X038836Y024107D02*
X034599Y024107D01*
X034599Y024205D02*
X039272Y024205D01*
X038845Y024008D02*
X034599Y024008D01*
X034599Y023910D02*
X038850Y023910D01*
X038865Y023811D02*
X034599Y023811D01*
X034599Y023713D02*
X038856Y023713D01*
X038856Y023614D02*
X034599Y023614D01*
X034599Y023516D02*
X038856Y023516D01*
X038856Y023417D02*
X034599Y023417D01*
X034599Y023319D02*
X038850Y023319D01*
X038859Y023220D02*
X034599Y023220D01*
X034599Y023122D02*
X038836Y023122D01*
X038836Y023023D02*
X034599Y023023D01*
X034599Y022925D02*
X038836Y022925D01*
X038836Y022826D02*
X034599Y022826D01*
X034599Y022728D02*
X038840Y022728D01*
X038840Y022629D02*
X038477Y022629D01*
X038486Y022531D02*
X038840Y022531D01*
X038840Y022432D02*
X038486Y022432D01*
X038486Y022334D02*
X038505Y022334D01*
X038700Y022090D02*
X038522Y021872D01*
X038522Y021646D01*
X038010Y021646D02*
X037399Y021646D01*
X037395Y021650D01*
X036805Y021650D02*
X036800Y021655D01*
X036800Y022070D01*
X036781Y022252D01*
X035836Y022252D02*
X035836Y021686D01*
X035800Y021650D01*
X033766Y022697D02*
X033735Y022697D01*
X033710Y022672D01*
X033685Y022697D01*
X033608Y022697D01*
X033549Y022756D01*
X033480Y022825D01*
X033375Y022930D01*
X032725Y022930D01*
X032525Y022730D01*
X032420Y022625D01*
X032420Y022325D01*
X032325Y022230D01*
X031475Y022230D01*
X031180Y022525D01*
X031180Y026775D01*
X031820Y027415D01*
X031820Y027075D01*
X031925Y026970D01*
X031925Y026970D01*
X032135Y026760D01*
X031530Y026760D01*
X031454Y026684D01*
X031454Y026303D01*
X031444Y026286D01*
X031434Y026248D01*
X031434Y026099D01*
X031870Y026099D01*
X031870Y026042D01*
X031434Y026042D01*
X031434Y025893D01*
X031444Y025855D01*
X031464Y025821D01*
X031465Y025820D01*
X031454Y025809D01*
X031454Y025387D01*
X031180Y025387D01*
X031180Y025289D02*
X031454Y025289D01*
X031454Y025337D02*
X031454Y024914D01*
X031519Y024850D01*
X031454Y024786D01*
X031454Y024363D01*
X031479Y024338D01*
X031454Y024313D01*
X031454Y023891D01*
X031465Y023880D01*
X031464Y023879D01*
X031444Y023845D01*
X031434Y023807D01*
X031434Y023658D01*
X031870Y023658D01*
X031870Y023601D01*
X031434Y023601D01*
X031434Y023452D01*
X031444Y023414D01*
X031454Y023397D01*
X031454Y023016D01*
X031530Y022940D01*
X032268Y022940D01*
X032344Y023016D01*
X032344Y023397D01*
X032354Y023414D01*
X032364Y023452D01*
X032364Y023601D01*
X031928Y023601D01*
X031928Y023658D01*
X032364Y023658D01*
X032364Y023807D01*
X032354Y023845D01*
X032334Y023879D01*
X032333Y023880D01*
X032344Y023891D01*
X032344Y024313D01*
X032319Y024338D01*
X032344Y024363D01*
X032344Y024786D01*
X032280Y024850D01*
X032344Y024914D01*
X032344Y025337D01*
X032319Y025362D01*
X032344Y025387D01*
X033508Y025387D01*
X033410Y025486D02*
X032344Y025486D01*
X032344Y025584D02*
X033311Y025584D01*
X033213Y025683D02*
X032344Y025683D01*
X032344Y025781D02*
X033114Y025781D01*
X033016Y025880D02*
X032360Y025880D01*
X032364Y025893D02*
X032364Y026042D01*
X031928Y026042D01*
X031928Y026099D01*
X032364Y026099D01*
X032364Y026248D01*
X032354Y026286D01*
X032344Y026303D01*
X032344Y026551D01*
X033766Y025129D01*
X033766Y022697D01*
X033766Y022728D02*
X033577Y022728D01*
X033479Y022826D02*
X033766Y022826D01*
X033766Y022925D02*
X033380Y022925D01*
X033300Y022750D02*
X032800Y022750D01*
X032600Y022550D01*
X032600Y022250D01*
X032420Y022334D02*
X031371Y022334D01*
X031273Y022432D02*
X032420Y022432D01*
X032420Y022531D02*
X031180Y022531D01*
X031180Y022629D02*
X032424Y022629D01*
X032523Y022728D02*
X031180Y022728D01*
X031180Y022826D02*
X032621Y022826D01*
X032720Y022925D02*
X031180Y022925D01*
X031180Y023023D02*
X031454Y023023D01*
X031454Y023122D02*
X031180Y023122D01*
X031180Y023220D02*
X031454Y023220D01*
X031454Y023319D02*
X031180Y023319D01*
X031180Y023417D02*
X031444Y023417D01*
X031434Y023516D02*
X031180Y023516D01*
X031180Y023614D02*
X031870Y023614D01*
X031928Y023614D02*
X033766Y023614D01*
X033766Y023516D02*
X032364Y023516D01*
X032355Y023417D02*
X033766Y023417D01*
X033766Y023319D02*
X032344Y023319D01*
X032344Y023220D02*
X033766Y023220D01*
X033766Y023122D02*
X032344Y023122D01*
X032344Y023023D02*
X033766Y023023D01*
X033474Y022576D02*
X033474Y022252D01*
X033474Y021676D01*
X033470Y021650D01*
X032708Y021546D02*
X029850Y021546D01*
X029949Y021644D02*
X031151Y021644D01*
X031120Y021675D02*
X031120Y021675D01*
X031053Y021743D02*
X030047Y021743D01*
X030146Y021841D02*
X030954Y021841D01*
X030856Y021940D02*
X030244Y021940D01*
X030343Y022038D02*
X030757Y022038D01*
X030659Y022137D02*
X030441Y022137D01*
X030375Y022070D02*
X030375Y022070D01*
X030480Y022235D02*
X030560Y022235D01*
X030520Y022334D02*
X030480Y022334D01*
X030480Y022432D02*
X030520Y022432D01*
X030520Y022531D02*
X030480Y022531D01*
X030480Y022629D02*
X030520Y022629D01*
X030520Y022728D02*
X030480Y022728D01*
X030480Y022826D02*
X030520Y022826D01*
X030520Y022925D02*
X030480Y022925D01*
X030480Y023023D02*
X030520Y023023D01*
X030520Y023122D02*
X030480Y023122D01*
X030480Y023220D02*
X030520Y023220D01*
X030520Y023319D02*
X030480Y023319D01*
X030480Y023417D02*
X030520Y023417D01*
X030520Y023516D02*
X030480Y023516D01*
X030480Y023614D02*
X030520Y023614D01*
X030520Y023713D02*
X030480Y023713D01*
X030480Y023811D02*
X030520Y023811D01*
X030520Y023910D02*
X030480Y023910D01*
X030480Y024008D02*
X030520Y024008D01*
X030520Y024107D02*
X030480Y024107D01*
X030480Y024205D02*
X030520Y024205D01*
X030520Y024304D02*
X030480Y024304D01*
X030480Y024402D02*
X030520Y024402D01*
X030520Y024501D02*
X030480Y024501D01*
X030480Y024599D02*
X030520Y024599D01*
X030520Y024698D02*
X030480Y024698D01*
X030480Y024796D02*
X030520Y024796D01*
X030520Y024895D02*
X030480Y024895D01*
X030480Y024993D02*
X030520Y024993D01*
X030520Y025092D02*
X030480Y025092D01*
X030480Y025190D02*
X030520Y025190D01*
X031180Y025190D02*
X031454Y025190D01*
X031454Y025092D02*
X031180Y025092D01*
X031180Y024993D02*
X031454Y024993D01*
X031474Y024895D02*
X031180Y024895D01*
X031180Y024796D02*
X031465Y024796D01*
X031454Y024698D02*
X031180Y024698D01*
X031180Y024599D02*
X031454Y024599D01*
X031454Y024501D02*
X031180Y024501D01*
X031180Y024402D02*
X031454Y024402D01*
X031454Y024304D02*
X031180Y024304D01*
X031180Y024205D02*
X031454Y024205D01*
X031454Y024107D02*
X031180Y024107D01*
X031180Y024008D02*
X031454Y024008D01*
X031454Y023910D02*
X031180Y023910D01*
X031180Y023811D02*
X031435Y023811D01*
X031434Y023713D02*
X031180Y023713D01*
X032344Y023910D02*
X033766Y023910D01*
X033766Y024008D02*
X032344Y024008D01*
X032344Y024107D02*
X033766Y024107D01*
X033766Y024205D02*
X032344Y024205D01*
X032344Y024304D02*
X033766Y024304D01*
X033766Y024402D02*
X032344Y024402D01*
X032344Y024501D02*
X033766Y024501D01*
X033766Y024599D02*
X032344Y024599D01*
X032344Y024698D02*
X033766Y024698D01*
X033766Y024796D02*
X032334Y024796D01*
X032324Y024895D02*
X033766Y024895D01*
X033766Y024993D02*
X032344Y024993D01*
X032344Y025092D02*
X033766Y025092D01*
X033705Y025190D02*
X032344Y025190D01*
X032344Y025289D02*
X033607Y025289D01*
X032917Y025978D02*
X032364Y025978D01*
X032364Y025893D02*
X032354Y025855D01*
X032334Y025821D01*
X032333Y025820D01*
X032344Y025809D01*
X032344Y025387D01*
X032364Y026175D02*
X032720Y026175D01*
X032622Y026274D02*
X032357Y026274D01*
X032344Y026372D02*
X032523Y026372D01*
X032425Y026471D02*
X032344Y026471D01*
X032129Y026766D02*
X031180Y026766D01*
X031180Y026668D02*
X031454Y026668D01*
X031454Y026569D02*
X031180Y026569D01*
X031180Y026471D02*
X031454Y026471D01*
X031454Y026372D02*
X031180Y026372D01*
X031180Y026274D02*
X031441Y026274D01*
X031434Y026175D02*
X031180Y026175D01*
X031180Y026077D02*
X031870Y026077D01*
X031928Y026077D02*
X032819Y026077D01*
X032973Y027062D02*
X033030Y027062D01*
X033030Y027160D02*
X032973Y027160D01*
X032973Y027259D02*
X033030Y027259D01*
X033030Y027357D02*
X032973Y027357D01*
X032973Y027456D02*
X032480Y027456D01*
X032480Y027554D02*
X032694Y027554D01*
X032694Y027477D02*
X032973Y027477D01*
X032973Y027913D01*
X032824Y027913D01*
X032786Y027903D01*
X032752Y027883D01*
X032724Y027855D01*
X032704Y027821D01*
X032694Y027783D01*
X032694Y027477D01*
X032694Y027357D02*
X032480Y027357D01*
X032546Y027259D02*
X032694Y027259D01*
X032694Y027160D02*
X032645Y027160D01*
X032694Y027653D02*
X032480Y027653D01*
X032480Y027751D02*
X032694Y027751D01*
X032721Y027850D02*
X032480Y027850D01*
X032480Y027948D02*
X033105Y027948D01*
X033046Y028047D02*
X032480Y028047D01*
X032480Y028145D02*
X033046Y028145D01*
X033046Y028244D02*
X032958Y028244D01*
X032763Y028244D02*
X032725Y028244D01*
X032725Y028342D02*
X032763Y028342D01*
X032763Y028441D02*
X032725Y028441D01*
X032725Y028569D02*
X032725Y029031D01*
X032763Y029031D01*
X032763Y028723D01*
X032763Y028569D01*
X032725Y028569D01*
X032725Y028638D02*
X032763Y028638D01*
X032763Y028736D02*
X032725Y028736D01*
X032725Y028835D02*
X032763Y028835D01*
X032763Y028933D02*
X032725Y028933D01*
X032530Y028244D02*
X032480Y028244D01*
X032973Y027850D02*
X033030Y027850D01*
X033030Y027751D02*
X032973Y027751D01*
X032973Y027653D02*
X033030Y027653D01*
X033030Y027554D02*
X032973Y027554D01*
X033800Y028140D02*
X033900Y028250D01*
X034200Y028250D01*
X034600Y028250D02*
X034900Y028250D01*
X035200Y027950D01*
X036100Y027950D01*
X036309Y027741D01*
X036309Y027448D01*
X035523Y028350D02*
X035500Y028880D01*
X035930Y029160D02*
X035913Y029237D01*
X035913Y029800D01*
X035913Y030263D01*
X036000Y030350D01*
X038200Y030350D01*
X038275Y030275D01*
X038275Y029800D01*
X038275Y029241D01*
X038256Y029240D01*
X038256Y029094D01*
X037725Y029229D02*
X036875Y029229D01*
X037144Y029327D02*
X037456Y029327D01*
X037456Y029130D02*
X037144Y029130D01*
X037144Y029032D02*
X037459Y029032D01*
X037531Y028933D02*
X037096Y028933D01*
X037023Y028835D02*
X037377Y028835D01*
X037279Y028736D02*
X037121Y028736D01*
X036430Y029120D02*
X036344Y029220D01*
X035930Y029220D01*
X035930Y029160D01*
X038170Y027357D02*
X038227Y027357D01*
X038227Y027259D02*
X038170Y027259D01*
X038170Y027160D02*
X038227Y027160D01*
X038227Y027062D02*
X038170Y027062D01*
X041586Y029032D02*
X042198Y029032D01*
X042242Y029130D02*
X041778Y029130D01*
X041845Y029229D02*
X042362Y029229D01*
X042535Y029327D02*
X041870Y029327D01*
X041879Y029426D02*
X042535Y029426D01*
X042535Y029524D02*
X041953Y029524D01*
X042124Y029623D02*
X042535Y029623D01*
X042535Y029820D02*
X042124Y029820D01*
X042124Y029918D02*
X042535Y029918D01*
X042535Y030017D02*
X042124Y030017D01*
X042120Y030115D02*
X042535Y030115D01*
X042543Y030214D02*
X042124Y030214D01*
X042124Y030312D02*
X042663Y030312D01*
X042950Y030312D02*
X043050Y030312D01*
X043050Y030313D02*
X043050Y029760D01*
X043465Y029760D01*
X043465Y030182D01*
X043455Y030220D01*
X043435Y030255D01*
X043407Y030283D01*
X043373Y030302D01*
X043335Y030313D01*
X043050Y030313D01*
X043050Y030214D02*
X042950Y030214D01*
X042950Y030115D02*
X043050Y030115D01*
X043050Y030017D02*
X042950Y030017D01*
X042950Y029918D02*
X043050Y029918D01*
X043050Y029820D02*
X042950Y029820D01*
X042950Y029721D02*
X042124Y029721D01*
X041900Y029806D02*
X041856Y029850D01*
X042124Y030411D02*
X043750Y030411D01*
X043750Y030509D02*
X042124Y030509D01*
X041400Y030850D02*
X041344Y030850D01*
X043337Y030312D02*
X043750Y030312D01*
X043750Y030214D02*
X043457Y030214D01*
X043465Y030115D02*
X043750Y030115D01*
X043750Y030017D02*
X043465Y030017D01*
X043465Y029918D02*
X043750Y029918D01*
X043750Y029820D02*
X043465Y029820D01*
X043465Y029623D02*
X043750Y029623D01*
X043750Y029721D02*
X043050Y029721D01*
X043465Y029524D02*
X043750Y029524D01*
X043750Y029426D02*
X043465Y029426D01*
X043465Y029327D02*
X043750Y029327D01*
X043750Y029229D02*
X043638Y029229D01*
X039320Y030214D02*
X039185Y030214D01*
X032031Y026865D02*
X031269Y026865D01*
X031368Y026963D02*
X031932Y026963D01*
X031834Y027062D02*
X031466Y027062D01*
X031565Y027160D02*
X031820Y027160D01*
X031820Y027259D02*
X031663Y027259D01*
X031762Y027357D02*
X031820Y027357D01*
X031434Y025978D02*
X031180Y025978D01*
X031180Y025880D02*
X031438Y025880D01*
X031454Y025781D02*
X031180Y025781D01*
X031180Y025683D02*
X031454Y025683D01*
X031454Y025584D02*
X031180Y025584D01*
X031180Y025486D02*
X031454Y025486D01*
X031454Y025387D02*
X031479Y025362D01*
X031454Y025337D01*
X032363Y023811D02*
X033766Y023811D01*
X033766Y023713D02*
X032364Y023713D01*
X033300Y022750D02*
X033474Y022576D01*
X032330Y022235D02*
X031470Y022235D01*
X029636Y021841D02*
X028541Y021841D01*
X028653Y021743D02*
X029538Y021743D01*
X029102Y022250D02*
X028900Y022250D01*
X028600Y021550D02*
X027800Y022250D01*
X027298Y029623D02*
X027111Y029623D01*
X027182Y029721D02*
X027192Y029721D01*
X026689Y029623D02*
X026080Y029623D01*
X026080Y029721D02*
X026618Y029721D01*
X026590Y029820D02*
X026080Y029820D01*
X026080Y029918D02*
X026593Y029918D01*
X026620Y030017D02*
X026080Y030017D01*
X026080Y030115D02*
X026457Y030115D01*
X026457Y030214D02*
X026080Y030214D01*
X026080Y030312D02*
X026457Y030312D01*
X026457Y030411D02*
X026080Y030411D01*
X026080Y030509D02*
X026457Y030509D01*
X026457Y030608D02*
X026080Y030608D01*
X026080Y030706D02*
X026457Y030706D01*
X026457Y030805D02*
X026080Y030805D01*
X026080Y030903D02*
X026457Y030903D01*
D50*
X026260Y030940D03*
X026260Y030240D03*
X026900Y029850D03*
X027500Y029950D03*
X028100Y029950D03*
X029380Y030250D03*
X029380Y030950D03*
X029380Y031650D03*
X028700Y031620D03*
X029380Y032350D03*
X029380Y033160D03*
X029690Y033850D03*
X030310Y034440D03*
X030990Y034650D03*
X031590Y034650D03*
X032350Y034850D03*
X031190Y033350D03*
X030690Y032850D03*
X032500Y032250D03*
X032960Y032600D03*
X032460Y031580D03*
X032450Y031120D03*
X032500Y030350D03*
X032950Y030510D03*
X033700Y030240D03*
X034200Y029050D03*
X034600Y028850D03*
X035030Y028650D03*
X035500Y028880D03*
X035930Y029160D03*
X037210Y028030D03*
X038650Y027700D03*
X041560Y029350D03*
X042050Y029400D03*
X042500Y028950D03*
X043000Y028950D03*
X043500Y028950D03*
X042050Y031920D03*
X042400Y032250D03*
X042010Y032680D03*
X040420Y032050D03*
X040690Y033620D03*
X042060Y035000D03*
X043060Y035940D03*
X043160Y036540D03*
X041450Y037000D03*
X040310Y035660D03*
X039890Y036110D03*
X039440Y036060D03*
X039860Y037070D03*
X040240Y037360D03*
X040240Y037860D03*
X040240Y038390D03*
X040200Y038850D03*
X040700Y038850D03*
X041040Y038490D03*
X041200Y038990D03*
X039697Y038850D03*
X039200Y038850D03*
X038830Y038390D03*
X038720Y037580D03*
X037650Y037990D03*
X037440Y037560D03*
X037100Y037250D03*
X036700Y037550D03*
X036320Y037150D03*
X035820Y037930D03*
X035800Y038850D03*
X037800Y039150D03*
X038200Y039850D03*
X035400Y036750D03*
X034920Y036730D03*
X033990Y035960D03*
X033100Y036850D03*
X032190Y036850D03*
X032200Y036350D03*
X031490Y036950D03*
X031490Y037550D03*
X030900Y037350D03*
X030490Y038450D03*
X030050Y038450D03*
X029620Y038450D03*
X029100Y037950D03*
X028210Y038720D03*
X028600Y040250D03*
X028600Y040750D03*
X029850Y040850D03*
X030290Y040850D03*
X030720Y040850D03*
X031600Y040850D03*
X032100Y040850D03*
X029310Y036050D03*
X027290Y035350D03*
X026100Y035250D03*
X025400Y035750D03*
X025100Y034550D03*
X024400Y034550D03*
X025600Y034050D03*
X026300Y032350D03*
X026300Y031650D03*
X025200Y031650D03*
X025200Y030850D03*
X025200Y030050D03*
X025200Y029250D03*
X026260Y029440D03*
X026260Y028740D03*
X026260Y027940D03*
X026300Y027350D03*
X026300Y026850D03*
X025200Y026850D03*
X025200Y026150D03*
X025240Y025450D03*
X024200Y024950D03*
X025540Y023890D03*
X026340Y023730D03*
X026400Y025450D03*
X028160Y026410D03*
X028500Y025750D03*
X029000Y025650D03*
X029620Y025860D03*
X029620Y025360D03*
X029620Y024760D03*
X029620Y024260D03*
X031310Y024140D03*
X031310Y023340D03*
X031410Y022540D03*
X030550Y022030D03*
X029600Y022030D03*
X029210Y021860D03*
X027900Y021660D03*
X026470Y021810D03*
X025370Y021810D03*
X031310Y024940D03*
X031310Y025740D03*
X031310Y026540D03*
X031760Y026910D03*
X030830Y027640D03*
X031030Y028070D03*
X030800Y028550D03*
X029350Y027350D03*
X029340Y026850D03*
X032720Y028080D03*
X033800Y028140D03*
X038700Y022090D03*
X035800Y021650D03*
X034420Y021650D03*
X033950Y021650D03*
X033470Y021650D03*
X033000Y021650D03*
X024230Y027880D03*
X023630Y028180D03*
X023000Y034450D03*
X023950Y037090D03*
X022910Y037270D03*
X022930Y038850D03*
X023420Y039040D03*
X023950Y039040D03*
X025480Y037110D03*
X043200Y034040D03*
X043600Y034460D03*
D51*
X040420Y032830D03*
X040970Y030750D03*
X040420Y030530D03*
X040100Y030250D03*
X039600Y030250D03*
X039380Y029660D03*
X040520Y029950D03*
X042200Y031150D03*
D52*
X042300Y030750D02*
X041956Y030750D01*
X041856Y030850D01*
X041856Y030350D01*
X041856Y029850D01*
X041900Y029806D02*
X041900Y029790D01*
X041860Y029750D01*
X041560Y029350D01*
X042500Y028950D02*
X042500Y028406D01*
X043000Y028406D02*
X043000Y028950D01*
X043500Y028950D02*
X043500Y028406D01*
X043500Y027894D02*
X043500Y026050D01*
X042770Y025320D01*
X042500Y025320D01*
X042500Y025940D02*
X042590Y025940D01*
X043000Y026350D01*
X043000Y027894D01*
X042500Y027894D02*
X042500Y027180D01*
X042000Y026950D02*
X042000Y027650D01*
X042000Y026950D02*
X042390Y026560D01*
X042500Y026560D01*
X042300Y030750D02*
X042600Y031050D01*
X042600Y031450D01*
X042500Y031550D01*
X041956Y031550D01*
X041856Y031450D01*
X040846Y032496D02*
X040800Y032450D01*
X040420Y032360D01*
X040420Y032050D01*
X040846Y032496D02*
X040846Y032550D01*
X036700Y028450D02*
X036600Y028350D01*
X035877Y028350D01*
X033800Y029550D02*
X033400Y029950D01*
X032800Y029950D01*
X032700Y029850D01*
X032700Y029594D01*
X032744Y029550D01*
X033256Y029550D02*
X033256Y029050D01*
X033256Y028550D01*
X033256Y028094D01*
X033474Y027876D01*
X033474Y027448D01*
X029690Y023420D02*
X029690Y023240D01*
X029700Y023250D01*
X029694Y023256D01*
X029900Y022956D01*
X029694Y023250D01*
X029102Y023250D01*
X024146Y035950D02*
X023654Y035950D01*
X023234Y038050D02*
X022944Y038060D01*
X031348Y038900D02*
X031456Y038892D01*
X031456Y038350D01*
X032100Y038806D02*
X032100Y039250D01*
X031950Y039400D01*
X031348Y039400D01*
X035400Y036750D02*
X035544Y036894D01*
X035900Y036894D01*
X037720Y038707D02*
X037720Y039070D01*
X037800Y039150D01*
D53*
X033800Y029550D03*
X029690Y023420D03*
D54*
X026898Y023750D02*
X026300Y023750D01*
X026330Y023730D01*
X028564Y026390D02*
X028564Y027149D01*
X027800Y027913D01*
X027200Y027313D01*
X027800Y032613D02*
X027800Y033413D01*
X027800Y036094D01*
X026080Y036404D02*
X026080Y036816D01*
X026080Y037524D02*
X026781Y037524D01*
X026940Y037366D01*
X028150Y039400D02*
X028100Y039450D01*
X028150Y039400D02*
X029252Y039400D01*
X026100Y034096D02*
X026100Y033604D01*
X026100Y032896D02*
X027317Y032896D01*
X027398Y032932D01*
X027800Y033413D01*
X039700Y028750D02*
X039700Y028450D01*
X039700Y028750D02*
X040200Y029250D01*
X041460Y029250D01*
X041560Y029350D01*
D55*
X027760Y025760D02*
X027760Y023210D01*
X027300Y022750D01*
X026898Y022750D01*
X026898Y023250D02*
X027300Y023250D01*
X027500Y023450D01*
X027500Y025650D01*
X027300Y025850D01*
X026400Y025850D01*
X025600Y026650D01*
X025600Y032150D01*
X025300Y032450D01*
X025300Y033450D01*
X025138Y033612D01*
X024630Y033612D01*
X024340Y034190D02*
X023762Y033612D01*
X023370Y033612D01*
X024340Y034190D02*
X024930Y034190D01*
X025560Y033560D01*
X025560Y032560D01*
X025860Y032260D01*
X025860Y026760D01*
X026510Y026110D01*
X027410Y026110D01*
X027760Y025760D01*
X027200Y027313D02*
X026937Y027313D01*
X026900Y027350D01*
X026300Y027350D01*
D56*
X027800Y027913D02*
X027800Y029950D01*
X027500Y029950D01*
X027800Y029950D02*
X028100Y029950D01*
X027800Y029950D02*
X027800Y030600D01*
X028600Y033213D02*
X027800Y033413D01*
X028600Y033550D02*
X028600Y033213D01*
X028600Y033550D02*
X029526Y034476D01*
X029650Y034476D01*
X026902Y036240D02*
X026902Y037328D01*
X026940Y037366D01*
D57*
X032150Y039900D02*
X032750Y039900D01*
X033400Y039250D01*
X033400Y038510D01*
X033410Y038500D01*
X027398Y032932D02*
X026902Y032436D01*
X026902Y030740D01*
D58*
X026900Y030737D01*
X026900Y029850D01*
D59*
X029650Y034476D02*
X029726Y034476D01*
X030400Y035150D01*
X030400Y035850D01*
X030200Y036050D01*
X030200Y036190D01*
X030200Y037310D02*
X030240Y037350D01*
X030900Y037350D01*
D60*
X031348Y039900D02*
X032100Y039900D01*
X032150Y039900D01*
X024854Y036537D02*
X024854Y035950D01*
X024854Y036537D02*
X024642Y036750D01*
D61*
X024642Y037392D01*
X024966Y037716D01*
X024966Y038050D01*
X024966Y038250D01*
X024966Y039616D01*
X025700Y040350D01*
X027200Y040350D01*
X028100Y039450D01*
X024642Y036750D02*
X024630Y036762D01*
D62*
X024966Y038250D02*
X025066Y038350D01*
X026048Y038350D01*
X026940Y037366D02*
X027084Y037366D01*
X027100Y037350D01*
X027552Y037802D01*
X027552Y038350D01*
D63*
X040600Y036850D02*
X040600Y036308D01*
X040565Y036273D01*
X040600Y036850D02*
X041100Y037350D01*
X041100Y037950D01*
X040944Y038106D01*
X040700Y038106D01*
M02*
