G75*
G70*
%OFA0B0*%
%FSLAX24Y24*%
%IPPOS*%
%LPD*%
%AMOC8*
5,1,8,0,0,1.08239X$1,22.5*
%
%ADD10C,0.1060*%
%ADD11R,0.0350X0.1160*%
%ADD12R,0.0710X0.0710*%
%ADD13C,0.0710*%
%ADD14C,0.1240*%
%ADD15C,0.0660*%
%ADD16R,0.0660X0.0660*%
%ADD17C,0.0855*%
%ADD18R,0.0310X0.0560*%
%ADD19C,0.0600*%
%ADD20C,0.0800*%
%ADD21R,0.0217X0.0591*%
%ADD22C,0.0769*%
%ADD23C,0.0560*%
%ADD24C,0.0420*%
%ADD25C,0.0360*%
%ADD26C,0.0510*%
D10*
X023700Y022450D03*
X042800Y022450D03*
X042800Y040050D03*
X023700Y040050D03*
D11*
X035600Y033550D03*
X036100Y033550D03*
X036600Y033550D03*
X037100Y033550D03*
X037600Y033550D03*
X037600Y031950D03*
X037100Y031950D03*
X036600Y031950D03*
X036100Y031950D03*
X035600Y031950D03*
D12*
X029650Y034476D03*
X026940Y037366D03*
D13*
X026940Y039334D03*
X029650Y035264D03*
D14*
X034000Y040200D03*
D15*
X033410Y038500D03*
D16*
X034590Y038500D03*
D17*
X024630Y036762D03*
X023370Y036762D03*
X023370Y035187D03*
X024630Y035187D03*
X024630Y033612D03*
X023370Y033612D03*
X023370Y032037D03*
X024630Y032037D03*
X024630Y030463D03*
X023370Y030463D03*
X023370Y028888D03*
X024630Y028888D03*
X024630Y027313D03*
X023370Y027313D03*
X023370Y025738D03*
X024630Y025738D03*
D18*
X024480Y024050D03*
X024800Y024050D03*
X025120Y024050D03*
X023820Y024050D03*
X023500Y024050D03*
X023180Y024050D03*
D19*
X042500Y025320D03*
X042500Y025940D03*
X042500Y026560D03*
X042500Y027180D03*
X042500Y035320D03*
X042500Y035940D03*
X042500Y036560D03*
X042500Y037180D03*
D20*
X043394Y039101D03*
X040565Y036273D03*
X031300Y036250D03*
X031300Y035250D03*
X036700Y028450D03*
X037700Y028450D03*
X038700Y028450D03*
X039700Y028450D03*
X040700Y028450D03*
X041700Y028450D03*
D21*
X040812Y039627D03*
X040556Y039627D03*
X040300Y039627D03*
X040044Y039627D03*
X039788Y039627D03*
D22*
X039001Y040680D03*
X041599Y040680D03*
D23*
X032700Y037450D03*
X032700Y035450D03*
X029700Y036450D03*
X029700Y039450D03*
X030700Y039450D03*
X031700Y039450D03*
X025700Y040450D03*
X023700Y038450D03*
X023700Y034450D03*
X025700Y033450D03*
X027700Y028450D03*
X031500Y027450D03*
X035700Y027450D03*
X036700Y027450D03*
X037700Y027450D03*
X036700Y022450D03*
X035700Y022450D03*
X034700Y022450D03*
X033700Y022450D03*
X032700Y022450D03*
X026900Y023450D03*
X025700Y022450D03*
X023700Y026450D03*
D24*
X025370Y021810D03*
X026470Y021810D03*
X027900Y021660D03*
X029210Y021860D03*
X029600Y022030D03*
X030550Y022030D03*
X031410Y022540D03*
X031310Y023340D03*
X031310Y024140D03*
X031310Y024940D03*
X031310Y025740D03*
X031310Y026540D03*
X031760Y026910D03*
X030830Y027640D03*
X031030Y028070D03*
X030800Y028550D03*
X029350Y027350D03*
X029340Y026850D03*
X029620Y025860D03*
X029620Y025360D03*
X029620Y024760D03*
X029620Y024260D03*
X029000Y025650D03*
X028500Y025750D03*
X028160Y026410D03*
X026300Y026850D03*
X026300Y027350D03*
X026260Y027940D03*
X026260Y028740D03*
X026260Y029440D03*
X026900Y029850D03*
X027500Y029950D03*
X028100Y029950D03*
X029380Y030250D03*
X029380Y030950D03*
X029380Y031650D03*
X028700Y031620D03*
X029380Y032350D03*
X029380Y033160D03*
X029690Y033850D03*
X030310Y034440D03*
X030990Y034650D03*
X031590Y034650D03*
X032350Y034850D03*
X031190Y033350D03*
X030690Y032850D03*
X032500Y032250D03*
X032960Y032600D03*
X032460Y031580D03*
X032450Y031120D03*
X032500Y030350D03*
X032950Y030510D03*
X033700Y030240D03*
X034200Y029050D03*
X034600Y028850D03*
X035030Y028650D03*
X035500Y028880D03*
X035930Y029160D03*
X037210Y028030D03*
X038650Y027700D03*
X041560Y029350D03*
X042050Y029400D03*
X042500Y028950D03*
X043000Y028950D03*
X043500Y028950D03*
X042050Y031920D03*
X042400Y032250D03*
X042010Y032680D03*
X040420Y032050D03*
X040690Y033620D03*
X042060Y035000D03*
X043060Y035940D03*
X043160Y036540D03*
X041450Y037000D03*
X040310Y035660D03*
X039890Y036110D03*
X039440Y036060D03*
X039860Y037070D03*
X040240Y037360D03*
X040240Y037860D03*
X040240Y038390D03*
X040200Y038850D03*
X040700Y038850D03*
X041040Y038490D03*
X041200Y038990D03*
X039697Y038850D03*
X039200Y038850D03*
X038830Y038390D03*
X038720Y037580D03*
X037650Y037990D03*
X037440Y037560D03*
X037100Y037250D03*
X036700Y037550D03*
X036320Y037150D03*
X035820Y037930D03*
X035800Y038850D03*
X037800Y039150D03*
X038200Y039850D03*
X035400Y036750D03*
X034920Y036730D03*
X033990Y035960D03*
X033100Y036850D03*
X032190Y036850D03*
X032200Y036350D03*
X031490Y036950D03*
X031490Y037550D03*
X030900Y037350D03*
X030490Y038450D03*
X030050Y038450D03*
X029620Y038450D03*
X029100Y037950D03*
X028210Y038720D03*
X028600Y040250D03*
X028600Y040750D03*
X029850Y040850D03*
X030290Y040850D03*
X030720Y040850D03*
X031600Y040850D03*
X032100Y040850D03*
X029310Y036050D03*
X027290Y035350D03*
X026100Y035250D03*
X025400Y035750D03*
X025100Y034550D03*
X024400Y034550D03*
X025600Y034050D03*
X026300Y032350D03*
X026300Y031650D03*
X026260Y030940D03*
X026260Y030240D03*
X025200Y030050D03*
X025200Y029250D03*
X025200Y030850D03*
X025200Y031650D03*
X023000Y034450D03*
X023950Y037090D03*
X022910Y037270D03*
X022930Y038850D03*
X023420Y039040D03*
X023950Y039040D03*
X025480Y037110D03*
X023630Y028180D03*
X024230Y027880D03*
X025200Y026850D03*
X025200Y026150D03*
X025240Y025450D03*
X024200Y024950D03*
X025540Y023890D03*
X026340Y023730D03*
X026400Y025450D03*
X032720Y028080D03*
X033800Y028140D03*
X038700Y022090D03*
X035800Y021650D03*
X034420Y021650D03*
X033950Y021650D03*
X033470Y021650D03*
X033000Y021650D03*
X043200Y034040D03*
X043600Y034460D03*
D25*
X040420Y032830D03*
X040970Y030750D03*
X040420Y030530D03*
X040100Y030250D03*
X039600Y030250D03*
X039380Y029660D03*
X040520Y029950D03*
X042200Y031150D03*
D26*
X033800Y029550D03*
X029690Y023420D03*
M02*
