G75*
G70*
%OFA0B0*%
%FSLAX24Y24*%
%IPPOS*%
%LPD*%
%AMOC8*
5,1,8,0,0,1.08239X$1,22.5*
%
%ADD10C,0.0000*%
D10*
X022500Y021250D02*
X022500Y041250D01*
X044000Y041250D01*
X044000Y021250D01*
X022500Y021250D01*
X023200Y022450D02*
X023202Y022494D01*
X023208Y022538D01*
X023218Y022581D01*
X023231Y022623D01*
X023248Y022664D01*
X023269Y022703D01*
X023293Y022740D01*
X023320Y022775D01*
X023350Y022807D01*
X023383Y022837D01*
X023419Y022863D01*
X023456Y022887D01*
X023496Y022906D01*
X023537Y022923D01*
X023580Y022935D01*
X023623Y022944D01*
X023667Y022949D01*
X023711Y022950D01*
X023755Y022947D01*
X023799Y022940D01*
X023842Y022929D01*
X023884Y022915D01*
X023924Y022897D01*
X023963Y022875D01*
X023999Y022851D01*
X024033Y022823D01*
X024065Y022792D01*
X024094Y022758D01*
X024120Y022722D01*
X024142Y022684D01*
X024161Y022644D01*
X024176Y022602D01*
X024188Y022560D01*
X024196Y022516D01*
X024200Y022472D01*
X024200Y022428D01*
X024196Y022384D01*
X024188Y022340D01*
X024176Y022298D01*
X024161Y022256D01*
X024142Y022216D01*
X024120Y022178D01*
X024094Y022142D01*
X024065Y022108D01*
X024033Y022077D01*
X023999Y022049D01*
X023963Y022025D01*
X023924Y022003D01*
X023884Y021985D01*
X023842Y021971D01*
X023799Y021960D01*
X023755Y021953D01*
X023711Y021950D01*
X023667Y021951D01*
X023623Y021956D01*
X023580Y021965D01*
X023537Y021977D01*
X023496Y021994D01*
X023456Y022013D01*
X023419Y022037D01*
X023383Y022063D01*
X023350Y022093D01*
X023320Y022125D01*
X023293Y022160D01*
X023269Y022197D01*
X023248Y022236D01*
X023231Y022277D01*
X023218Y022319D01*
X023208Y022362D01*
X023202Y022406D01*
X023200Y022450D01*
X042300Y022450D02*
X042302Y022494D01*
X042308Y022538D01*
X042318Y022581D01*
X042331Y022623D01*
X042348Y022664D01*
X042369Y022703D01*
X042393Y022740D01*
X042420Y022775D01*
X042450Y022807D01*
X042483Y022837D01*
X042519Y022863D01*
X042556Y022887D01*
X042596Y022906D01*
X042637Y022923D01*
X042680Y022935D01*
X042723Y022944D01*
X042767Y022949D01*
X042811Y022950D01*
X042855Y022947D01*
X042899Y022940D01*
X042942Y022929D01*
X042984Y022915D01*
X043024Y022897D01*
X043063Y022875D01*
X043099Y022851D01*
X043133Y022823D01*
X043165Y022792D01*
X043194Y022758D01*
X043220Y022722D01*
X043242Y022684D01*
X043261Y022644D01*
X043276Y022602D01*
X043288Y022560D01*
X043296Y022516D01*
X043300Y022472D01*
X043300Y022428D01*
X043296Y022384D01*
X043288Y022340D01*
X043276Y022298D01*
X043261Y022256D01*
X043242Y022216D01*
X043220Y022178D01*
X043194Y022142D01*
X043165Y022108D01*
X043133Y022077D01*
X043099Y022049D01*
X043063Y022025D01*
X043024Y022003D01*
X042984Y021985D01*
X042942Y021971D01*
X042899Y021960D01*
X042855Y021953D01*
X042811Y021950D01*
X042767Y021951D01*
X042723Y021956D01*
X042680Y021965D01*
X042637Y021977D01*
X042596Y021994D01*
X042556Y022013D01*
X042519Y022037D01*
X042483Y022063D01*
X042450Y022093D01*
X042420Y022125D01*
X042393Y022160D01*
X042369Y022197D01*
X042348Y022236D01*
X042331Y022277D01*
X042318Y022319D01*
X042308Y022362D01*
X042302Y022406D01*
X042300Y022450D01*
X042300Y040050D02*
X042302Y040094D01*
X042308Y040138D01*
X042318Y040181D01*
X042331Y040223D01*
X042348Y040264D01*
X042369Y040303D01*
X042393Y040340D01*
X042420Y040375D01*
X042450Y040407D01*
X042483Y040437D01*
X042519Y040463D01*
X042556Y040487D01*
X042596Y040506D01*
X042637Y040523D01*
X042680Y040535D01*
X042723Y040544D01*
X042767Y040549D01*
X042811Y040550D01*
X042855Y040547D01*
X042899Y040540D01*
X042942Y040529D01*
X042984Y040515D01*
X043024Y040497D01*
X043063Y040475D01*
X043099Y040451D01*
X043133Y040423D01*
X043165Y040392D01*
X043194Y040358D01*
X043220Y040322D01*
X043242Y040284D01*
X043261Y040244D01*
X043276Y040202D01*
X043288Y040160D01*
X043296Y040116D01*
X043300Y040072D01*
X043300Y040028D01*
X043296Y039984D01*
X043288Y039940D01*
X043276Y039898D01*
X043261Y039856D01*
X043242Y039816D01*
X043220Y039778D01*
X043194Y039742D01*
X043165Y039708D01*
X043133Y039677D01*
X043099Y039649D01*
X043063Y039625D01*
X043024Y039603D01*
X042984Y039585D01*
X042942Y039571D01*
X042899Y039560D01*
X042855Y039553D01*
X042811Y039550D01*
X042767Y039551D01*
X042723Y039556D01*
X042680Y039565D01*
X042637Y039577D01*
X042596Y039594D01*
X042556Y039613D01*
X042519Y039637D01*
X042483Y039663D01*
X042450Y039693D01*
X042420Y039725D01*
X042393Y039760D01*
X042369Y039797D01*
X042348Y039836D01*
X042331Y039877D01*
X042318Y039919D01*
X042308Y039962D01*
X042302Y040006D01*
X042300Y040050D01*
X033410Y040200D02*
X033412Y040248D01*
X033418Y040296D01*
X033428Y040343D01*
X033441Y040389D01*
X033458Y040434D01*
X033479Y040477D01*
X033504Y040519D01*
X033531Y040558D01*
X033562Y040595D01*
X033596Y040630D01*
X033632Y040661D01*
X033671Y040690D01*
X033712Y040715D01*
X033755Y040737D01*
X033799Y040755D01*
X033845Y040769D01*
X033892Y040780D01*
X033940Y040787D01*
X033988Y040790D01*
X034036Y040789D01*
X034084Y040784D01*
X034131Y040775D01*
X034178Y040763D01*
X034223Y040746D01*
X034267Y040726D01*
X034309Y040703D01*
X034349Y040676D01*
X034386Y040646D01*
X034421Y040613D01*
X034454Y040577D01*
X034483Y040539D01*
X034509Y040498D01*
X034532Y040456D01*
X034551Y040412D01*
X034566Y040366D01*
X034578Y040320D01*
X034586Y040272D01*
X034590Y040224D01*
X034590Y040176D01*
X034586Y040128D01*
X034578Y040080D01*
X034566Y040034D01*
X034551Y039988D01*
X034532Y039944D01*
X034509Y039902D01*
X034483Y039861D01*
X034454Y039823D01*
X034421Y039787D01*
X034386Y039754D01*
X034349Y039724D01*
X034309Y039697D01*
X034267Y039674D01*
X034223Y039654D01*
X034178Y039637D01*
X034131Y039625D01*
X034084Y039616D01*
X034036Y039611D01*
X033988Y039610D01*
X033940Y039613D01*
X033892Y039620D01*
X033845Y039631D01*
X033799Y039645D01*
X033755Y039663D01*
X033712Y039685D01*
X033671Y039710D01*
X033632Y039739D01*
X033596Y039770D01*
X033562Y039805D01*
X033531Y039842D01*
X033504Y039881D01*
X033479Y039923D01*
X033458Y039966D01*
X033441Y040011D01*
X033428Y040057D01*
X033418Y040104D01*
X033412Y040152D01*
X033410Y040200D01*
X023200Y040050D02*
X023202Y040094D01*
X023208Y040138D01*
X023218Y040181D01*
X023231Y040223D01*
X023248Y040264D01*
X023269Y040303D01*
X023293Y040340D01*
X023320Y040375D01*
X023350Y040407D01*
X023383Y040437D01*
X023419Y040463D01*
X023456Y040487D01*
X023496Y040506D01*
X023537Y040523D01*
X023580Y040535D01*
X023623Y040544D01*
X023667Y040549D01*
X023711Y040550D01*
X023755Y040547D01*
X023799Y040540D01*
X023842Y040529D01*
X023884Y040515D01*
X023924Y040497D01*
X023963Y040475D01*
X023999Y040451D01*
X024033Y040423D01*
X024065Y040392D01*
X024094Y040358D01*
X024120Y040322D01*
X024142Y040284D01*
X024161Y040244D01*
X024176Y040202D01*
X024188Y040160D01*
X024196Y040116D01*
X024200Y040072D01*
X024200Y040028D01*
X024196Y039984D01*
X024188Y039940D01*
X024176Y039898D01*
X024161Y039856D01*
X024142Y039816D01*
X024120Y039778D01*
X024094Y039742D01*
X024065Y039708D01*
X024033Y039677D01*
X023999Y039649D01*
X023963Y039625D01*
X023924Y039603D01*
X023884Y039585D01*
X023842Y039571D01*
X023799Y039560D01*
X023755Y039553D01*
X023711Y039550D01*
X023667Y039551D01*
X023623Y039556D01*
X023580Y039565D01*
X023537Y039577D01*
X023496Y039594D01*
X023456Y039613D01*
X023419Y039637D01*
X023383Y039663D01*
X023350Y039693D01*
X023320Y039725D01*
X023293Y039760D01*
X023269Y039797D01*
X023248Y039836D01*
X023231Y039877D01*
X023218Y039919D01*
X023208Y039962D01*
X023202Y040006D01*
X023200Y040050D01*
M02*
