%
M48
M72
T01C0.0140
T02C0.0200
T03C0.0290
T04C0.0330
T05C0.0360
T06C0.0400
T07C0.0460
T08C0.0472
T09C0.0530
T10C0.1000
T11C0.1180
%
T01
X39380Y29660
X39600Y30250
X40100Y30250
X40420Y30530
X40520Y29950
X40970Y30750
X42200Y31150
X40420Y32830
T02
X25370Y21810
X26470Y21810
X27900Y21660
X29210Y21860
X29600Y22030
X30550Y22030
X31410Y22540
X31310Y23340
X31310Y24140
X31310Y24940
X31310Y25740
X31310Y26540
X31760Y26910
X30830Y27640
X31030Y28070
X30800Y28550
X29350Y27350
X29340Y26850
X29620Y25860
X29620Y25360
X29620Y24760
X29620Y24260
X29000Y25650
X28500Y25750
X28160Y26410
X26300Y26850
X26300Y27350
X26260Y27940
X26260Y28740
X26260Y29440
X26900Y29850
X27500Y29950
X28100Y29950
X29380Y30250
X29380Y30950
X29380Y31650
X28700Y31620
X29380Y32350
X29380Y33160
X29690Y33850
X30310Y34440
X30990Y34650
X31590Y34650
X32350Y34850
X31190Y33350
X30690Y32850
X32500Y32250
X32960Y32600
X32460Y31580
X32450Y31120
X32500Y30350
X32950Y30510
X33700Y30240
X34200Y29050
X34600Y28850
X35030Y28650
X35500Y28880
X35930Y29160
X37210Y28030
X38650Y27700
X41560Y29350
X42050Y29400
X42500Y28950
X43000Y28950
X43500Y28950
X42050Y31920
X42400Y32250
X42010Y32680
X40420Y32050
X40690Y33620
X42060Y35000
X43060Y35940
X43160Y36540
X41450Y37000
X40310Y35660
X39890Y36110
X39440Y36060
X39860Y37070
X40240Y37360
X40240Y37860
X40240Y38390
X40200Y38850
X40700Y38850
X41040Y38490
X41200Y38990
X39697Y38850
X39200Y38850
X38830Y38390
X38720Y37580
X37650Y37990
X37440Y37560
X37100Y37250
X36700Y37550
X36320Y37150
X35820Y37930
X35800Y38850
X37800Y39150
X38200Y39850
X35400Y36750
X34920Y36730
X33990Y35960
X33100Y36850
X32190Y36850
X32200Y36350
X31490Y36950
X31490Y37550
X30900Y37350
X30490Y38450
X30050Y38450
X29620Y38450
X29100Y37950
X28210Y38720
X28600Y40250
X28600Y40750
X29850Y40850
X30290Y40850
X30720Y40850
X31600Y40850
X32100Y40850
X29310Y36050
X27290Y35350
X26100Y35250
X25400Y35750
X25100Y34550
X24400Y34550
X25600Y34050
X26300Y32350
X26300Y31650
X26260Y30940
X26260Y30240
X25200Y30050
X25200Y29250
X25200Y30850
X25200Y31650
X23000Y34450
X23950Y37090
X22910Y37270
X22930Y38850
X23420Y39040
X23950Y39040
X25480Y37110
X23630Y28180
X24230Y27880
X25200Y26850
X25200Y26150
X25240Y25450
X24200Y24950
X25540Y23890
X26340Y23730
X26400Y25450
X32720Y28080
X33800Y28140
X38700Y22090
X35800Y21650
X34420Y21650
X33950Y21650
X33470Y21650
X33000Y21650
X43200Y34040
X43600Y34460
T03
X33800Y29550
X29650Y34476
X29650Y35264
X29690Y23420
T04
X26940Y37366
X26940Y39334
T05
X42500Y37180
X42500Y36560
X42500Y35940
X42500Y35320
X42500Y27180
X42500Y26560
X42500Y25940
X42500Y25320
T06
X41700Y28450
X40700Y28450
X39700Y28450
X38700Y28450
X37700Y28450
X36700Y28450
X31300Y35250
X31300Y36250
X33410Y38500
X34590Y38500
T07
X40565Y36273
X43394Y39101
T08
X41599Y40680
X39001Y40680
T09
X24630Y36762
X23370Y36762
X23370Y35187
X24630Y35187
X24630Y33612
X23370Y33612
X23370Y32037
X24630Y32037
X24630Y30463
X23370Y30463
X23370Y28888
X24630Y28888
X24630Y27313
X23370Y27313
X23370Y25738
X24630Y25738
T10
X23700Y22450
X42800Y22450
X42800Y40050
X23700Y40050
T11
X34000Y40200
M30
