G75*
%MOIN*%
%OFA0B0*%
%FSLAX24Y24*%
%IPPOS*%
%LPD*%
%AMOC8*
5,1,8,0,0,1.08239X$1,22.5*
%
%ADD10R,0.0591X0.0114*%
%ADD11R,0.0114X0.0591*%
%ADD12R,0.0276X0.0354*%
%ADD13R,0.0354X0.0276*%
%ADD14R,0.0315X0.0472*%
%ADD15R,0.0315X0.0630*%
%ADD16R,0.0630X0.0315*%
%ADD17R,0.0315X0.0315*%
%ADD18R,0.0394X0.0551*%
%ADD19R,0.0630X0.1181*%
%ADD20R,0.2283X0.2441*%
%ADD21R,0.0945X0.0945*%
%ADD22R,0.0472X0.0315*%
%ADD23R,0.0689X0.0709*%
%ADD24R,0.0551X0.0276*%
%ADD25R,0.0413X0.0512*%
%ADD26R,0.0472X0.0236*%
%ADD27R,0.0315X0.0354*%
%ADD28R,0.0700X0.0280*%
%ADD29R,0.0906X0.1220*%
%ADD30R,0.0630X0.0906*%
%ADD31R,0.0906X0.0630*%
%ADD32R,0.0787X0.0472*%
%ADD33R,0.0157X0.0276*%
%ADD34R,0.0276X0.0197*%
%ADD35R,0.0710X0.0630*%
%ADD36R,0.0134X0.0102*%
%ADD37R,0.0102X0.0134*%
D10*
X033550Y030588D03*
X033550Y030785D03*
X033550Y030981D03*
X033550Y031178D03*
X033550Y031375D03*
X033550Y031572D03*
X033550Y031769D03*
X033550Y031966D03*
X033550Y032163D03*
X033550Y032359D03*
X033550Y032556D03*
X033550Y032753D03*
X033550Y032950D03*
X033550Y033147D03*
X033550Y033344D03*
X033550Y033541D03*
X033550Y033737D03*
X033550Y033934D03*
X033550Y034131D03*
X033550Y034328D03*
X033550Y034525D03*
X033550Y034722D03*
X033550Y034919D03*
X033550Y035115D03*
X033550Y035312D03*
X039850Y035312D03*
X039850Y035115D03*
X039850Y034919D03*
X039850Y034722D03*
X039850Y034525D03*
X039850Y034328D03*
X039850Y034131D03*
X039850Y033934D03*
X039850Y033737D03*
X039850Y033541D03*
X039850Y033344D03*
X039850Y033147D03*
X039850Y032950D03*
X039850Y032753D03*
X039850Y032556D03*
X039850Y032359D03*
X039850Y032163D03*
X039850Y031966D03*
X039850Y031769D03*
X039850Y031572D03*
X039850Y031375D03*
X039850Y031178D03*
X039850Y030981D03*
X039850Y030785D03*
X039850Y030588D03*
D11*
X039062Y029800D03*
X038865Y029800D03*
X038669Y029800D03*
X038472Y029800D03*
X038275Y029800D03*
X038078Y029800D03*
X037881Y029800D03*
X037684Y029800D03*
X037487Y029800D03*
X037291Y029800D03*
X037094Y029800D03*
X036897Y029800D03*
X036700Y029800D03*
X036503Y029800D03*
X036306Y029800D03*
X036109Y029800D03*
X035913Y029800D03*
X035716Y029800D03*
X035519Y029800D03*
X035322Y029800D03*
X035125Y029800D03*
X034928Y029800D03*
X034731Y029800D03*
X034535Y029800D03*
X034338Y029800D03*
X034338Y036100D03*
X034535Y036100D03*
X034731Y036100D03*
X034928Y036100D03*
X035125Y036100D03*
X035322Y036100D03*
X035519Y036100D03*
X035716Y036100D03*
X035913Y036100D03*
X036109Y036100D03*
X036306Y036100D03*
X036503Y036100D03*
X036700Y036100D03*
X036897Y036100D03*
X037094Y036100D03*
X037291Y036100D03*
X037487Y036100D03*
X037684Y036100D03*
X037881Y036100D03*
X038078Y036100D03*
X038275Y036100D03*
X038472Y036100D03*
X038669Y036100D03*
X038865Y036100D03*
X039062Y036100D03*
D12*
X039344Y036590D03*
X039856Y036590D03*
X042144Y034550D03*
X042656Y034550D03*
X042356Y033750D03*
X041844Y033750D03*
X041844Y033150D03*
X042356Y033150D03*
X042944Y032950D03*
X043456Y032950D03*
X043456Y033550D03*
X042944Y033550D03*
X041356Y031950D03*
X041344Y031450D03*
X041856Y031450D03*
X041856Y030850D03*
X041856Y030350D03*
X041856Y029850D03*
X041344Y029850D03*
X041344Y030350D03*
X041344Y030850D03*
X040844Y031950D03*
X038256Y029240D03*
X037744Y029240D03*
X036856Y029220D03*
X036344Y029220D03*
X033256Y029050D03*
X033256Y028550D03*
X032744Y028550D03*
X032744Y029050D03*
X032744Y029550D03*
X033256Y029550D03*
X029076Y026390D03*
X028564Y026390D03*
X024856Y029650D03*
X024344Y029650D03*
X023656Y029650D03*
X023144Y029650D03*
X023194Y032850D03*
X023706Y032850D03*
X024144Y032850D03*
X024656Y032850D03*
X023956Y034530D03*
X023444Y034530D03*
X030944Y038350D03*
X031456Y038350D03*
X032114Y035310D03*
X032626Y035310D03*
X037244Y040750D03*
X037756Y040750D03*
X023656Y025050D03*
X023144Y025050D03*
X022944Y024150D03*
X023456Y024150D03*
X038010Y021646D03*
X038522Y021646D03*
D13*
X042500Y027894D03*
X043000Y027894D03*
X043500Y027894D03*
X043500Y028406D03*
X043000Y028406D03*
X042500Y028406D03*
X043300Y034994D03*
X043300Y035506D03*
X041300Y035994D03*
X041300Y036506D03*
X040700Y037594D03*
X040700Y038106D03*
X041500Y037994D03*
X042000Y037994D03*
X042500Y037994D03*
X042500Y038506D03*
X042000Y038506D03*
X041500Y038506D03*
X039800Y038106D03*
X039300Y038106D03*
X039300Y037594D03*
X039800Y037594D03*
X037280Y038494D03*
X037280Y039006D03*
X037700Y039564D03*
X037700Y040076D03*
X036300Y039006D03*
X036300Y038494D03*
X035900Y037406D03*
X035900Y036894D03*
X033160Y036406D03*
X032660Y036406D03*
X032660Y035894D03*
X033160Y035894D03*
X032100Y038294D03*
X032100Y038806D03*
X027800Y036606D03*
X027800Y036094D03*
X032930Y031976D03*
X032930Y031464D03*
X024900Y024306D03*
X024900Y023794D03*
X029900Y022956D03*
X029900Y022444D03*
D14*
X040846Y032550D03*
X041554Y032550D03*
X024854Y035950D03*
X024146Y035950D03*
X023654Y035950D03*
X022946Y035950D03*
D15*
X033002Y027448D03*
X033474Y027448D03*
X033946Y027448D03*
X034419Y027448D03*
X034891Y027448D03*
X035364Y027448D03*
X035836Y027448D03*
X036309Y027448D03*
X036781Y027448D03*
X037254Y027448D03*
X037726Y027448D03*
X038198Y027448D03*
X038198Y022252D03*
X037726Y022252D03*
X037254Y022252D03*
X036781Y022252D03*
X036309Y022252D03*
X035836Y022252D03*
X035364Y022252D03*
X034891Y022252D03*
X034419Y022252D03*
X033946Y022252D03*
X033474Y022252D03*
X033002Y022252D03*
D16*
X031899Y023227D03*
X031899Y023630D03*
X031899Y024102D03*
X031899Y024574D03*
X031899Y025126D03*
X031899Y025598D03*
X031899Y026070D03*
X031899Y026473D03*
X039301Y024220D03*
X039301Y023590D03*
X039301Y022960D03*
D17*
X037395Y021650D03*
X036805Y021650D03*
X038300Y040295D03*
X038300Y040885D03*
D18*
X025900Y021817D03*
X025526Y022683D03*
X026274Y022683D03*
X026284Y024447D03*
X025536Y024447D03*
X025910Y025313D03*
D19*
X026902Y030740D03*
X028698Y030740D03*
X028698Y036240D03*
X026902Y036240D03*
D20*
X027800Y033413D03*
X027800Y027913D03*
D21*
X024966Y038050D03*
X023234Y038050D03*
D22*
X026080Y037524D03*
X026080Y036816D03*
X026080Y036404D03*
X026080Y035696D03*
X026100Y034804D03*
X026100Y034096D03*
X026100Y033604D03*
X026100Y032896D03*
D23*
X026048Y038350D03*
X027552Y038350D03*
D24*
X041300Y033745D03*
X041300Y033155D03*
D25*
X040936Y034557D03*
X041664Y034557D03*
X041664Y035463D03*
X040936Y035463D03*
D26*
X029102Y025250D03*
X029102Y024750D03*
X029102Y024250D03*
X029102Y023750D03*
X029102Y023250D03*
X029102Y022750D03*
X029102Y022250D03*
X026898Y022250D03*
X026898Y022750D03*
X026898Y023250D03*
X026898Y023750D03*
X026898Y024250D03*
X026898Y024750D03*
X026898Y025250D03*
D27*
X036800Y039117D03*
X036426Y039944D03*
X037174Y039944D03*
D28*
X031348Y039900D03*
X031348Y040400D03*
X031348Y039400D03*
X031348Y038900D03*
X029252Y038900D03*
X029252Y039400D03*
X029252Y039900D03*
X029252Y040400D03*
D29*
X030300Y039650D03*
D30*
X043000Y032190D03*
X043000Y029710D03*
D31*
X034840Y037450D03*
X032360Y037450D03*
D32*
X027800Y031860D03*
X027800Y030600D03*
D33*
X039682Y039270D03*
X039958Y039270D03*
X040302Y039270D03*
X040578Y039270D03*
D34*
X037720Y038707D03*
X037720Y038393D03*
D35*
X030200Y037310D03*
X030200Y036190D03*
D36*
X039831Y029942D03*
X039831Y029758D03*
X040169Y029850D03*
X040711Y031068D03*
X040711Y031252D03*
X041049Y031160D03*
D37*
X040992Y030179D03*
X040808Y030179D03*
X040900Y029841D03*
M02*
