G75*
%MOIN*%
%OFA0B0*%
%FSLAX24Y24*%
%IPPOS*%
%LPD*%
%AMOC8*
5,1,8,0,0,1.08239X$1,22.5*
%
%ADD10C,0.0080*%
%ADD11C,0.0100*%
%ADD12C,0.0060*%
%ADD13C,0.0160*%
%ADD14R,0.0160X0.0280*%
%ADD15R,0.0280X0.0160*%
%ADD16R,0.0340X0.0300*%
%ADD17C,0.0040*%
%ADD18C,0.0050*%
%ADD19C,0.0059*%
D10*
X027428Y021930D02*
X027760Y021930D01*
X027760Y021950D02*
X027762Y021980D01*
X027767Y022010D01*
X027776Y022039D01*
X027789Y022066D01*
X027804Y022092D01*
X027823Y022116D01*
X027844Y022137D01*
X027868Y022156D01*
X027894Y022171D01*
X027921Y022184D01*
X027950Y022193D01*
X027980Y022198D01*
X028010Y022200D01*
X028040Y022198D01*
X028070Y022193D01*
X028099Y022184D01*
X028126Y022171D01*
X028152Y022156D01*
X028176Y022137D01*
X028197Y022116D01*
X028216Y022092D01*
X028231Y022066D01*
X028244Y022039D01*
X028253Y022010D01*
X028258Y021980D01*
X028260Y021950D01*
X028260Y021930D02*
X028656Y021930D01*
X028656Y021929D02*
X028676Y021934D01*
X028695Y021942D01*
X028713Y021953D01*
X028729Y021966D01*
X028742Y021982D01*
X028753Y021999D01*
X028761Y022018D01*
X028766Y022038D01*
X028768Y022059D01*
X028767Y022080D01*
X028766Y022080D02*
X028766Y025459D01*
X028767Y025460D02*
X028762Y025480D01*
X028754Y025499D01*
X028743Y025517D01*
X028730Y025533D01*
X028714Y025546D01*
X028697Y025557D01*
X028678Y025565D01*
X028658Y025570D01*
X028637Y025572D01*
X028616Y025571D01*
X028616Y025570D02*
X027384Y025570D01*
X027361Y025568D01*
X027338Y025563D01*
X027316Y025554D01*
X027296Y025541D01*
X027278Y025526D01*
X027263Y025508D01*
X027250Y025488D01*
X027241Y025466D01*
X027236Y025443D01*
X027234Y025420D01*
X027234Y022080D01*
X027233Y022080D02*
X027238Y022056D01*
X027246Y022033D01*
X027257Y022012D01*
X027271Y021992D01*
X027288Y021974D01*
X027307Y021959D01*
X027328Y021946D01*
X027350Y021937D01*
X027374Y021931D01*
X027398Y021929D01*
X027423Y021930D01*
X024325Y023750D02*
X023675Y023750D01*
X023658Y023752D01*
X023641Y023756D01*
X023625Y023763D01*
X023611Y023773D01*
X023598Y023786D01*
X023588Y023800D01*
X023581Y023816D01*
X023577Y023833D01*
X023575Y023850D01*
X023575Y024450D02*
X023577Y024467D01*
X023581Y024484D01*
X023588Y024500D01*
X023598Y024514D01*
X023611Y024527D01*
X023625Y024537D01*
X023641Y024544D01*
X023658Y024548D01*
X023675Y024550D01*
X024325Y024550D01*
X024342Y024548D01*
X024359Y024544D01*
X024375Y024537D01*
X024389Y024527D01*
X024402Y024514D01*
X024412Y024500D01*
X024419Y024484D01*
X024423Y024467D01*
X024425Y024450D01*
X024500Y024525D02*
X024500Y025175D01*
X024500Y025150D02*
X024250Y025300D01*
X024500Y025175D02*
X024502Y025192D01*
X024506Y025209D01*
X024513Y025225D01*
X024523Y025239D01*
X024536Y025252D01*
X024550Y025262D01*
X024566Y025269D01*
X024583Y025273D01*
X024600Y025275D01*
X025200Y025275D02*
X025217Y025273D01*
X025234Y025269D01*
X025250Y025262D01*
X025264Y025252D01*
X025277Y025239D01*
X025287Y025225D01*
X025294Y025209D01*
X025298Y025192D01*
X025300Y025175D01*
X025300Y024525D01*
X025298Y024508D01*
X025294Y024491D01*
X025287Y024475D01*
X025277Y024461D01*
X025264Y024448D01*
X025250Y024438D01*
X025234Y024431D01*
X025217Y024427D01*
X025200Y024425D01*
X024600Y024425D02*
X024583Y024427D01*
X024566Y024431D01*
X024550Y024438D01*
X024536Y024448D01*
X024523Y024461D01*
X024513Y024475D01*
X024506Y024491D01*
X024502Y024508D01*
X024500Y024525D01*
X024425Y023850D02*
X024423Y023833D01*
X024419Y023816D01*
X024412Y023800D01*
X024402Y023786D01*
X024389Y023773D01*
X024375Y023763D01*
X024359Y023756D01*
X024342Y023752D01*
X024325Y023750D01*
X026510Y027340D02*
X026510Y029700D01*
X029090Y029700D01*
X029090Y027340D01*
X030910Y029090D02*
X031190Y029090D01*
X031260Y029160D01*
X031260Y029300D01*
X031190Y029370D01*
X031260Y029550D02*
X030980Y029550D01*
X030840Y029691D01*
X030980Y029831D01*
X031260Y029831D01*
X031260Y030011D02*
X030840Y030011D01*
X031260Y030291D01*
X030840Y030291D01*
X030980Y030471D02*
X030980Y030611D01*
X030910Y030541D02*
X031190Y030541D01*
X031260Y030611D01*
X031260Y030778D02*
X030980Y030778D01*
X031120Y030778D02*
X030980Y030918D01*
X030980Y030988D01*
X030980Y031232D02*
X030980Y031372D01*
X031050Y031442D01*
X031260Y031442D01*
X031260Y031232D01*
X031190Y031162D01*
X031120Y031232D01*
X031120Y031442D01*
X031260Y031622D02*
X030980Y031622D01*
X030980Y031832D01*
X031050Y031902D01*
X031260Y031902D01*
X031260Y032083D02*
X031260Y032293D01*
X031190Y032363D01*
X031120Y032293D01*
X031120Y032153D01*
X031050Y032083D01*
X030980Y032153D01*
X030980Y032363D01*
X030840Y032543D02*
X030840Y032613D01*
X031260Y032613D01*
X031260Y032543D02*
X031260Y032683D01*
X031440Y032691D02*
X031510Y032761D01*
X031790Y032480D01*
X031860Y032550D01*
X031860Y032691D01*
X031790Y032761D01*
X031510Y032761D01*
X031440Y032691D02*
X031440Y032550D01*
X031510Y032480D01*
X031790Y032480D01*
X031860Y032300D02*
X031720Y032160D01*
X031720Y032230D02*
X031720Y032020D01*
X031860Y032020D02*
X031440Y032020D01*
X031440Y032230D01*
X031510Y032300D01*
X031650Y032300D01*
X031720Y032230D01*
X031790Y032941D02*
X031790Y033011D01*
X031860Y033011D01*
X031860Y032941D01*
X031790Y032941D01*
X031790Y033171D02*
X031860Y033241D01*
X031860Y033381D01*
X031790Y033451D01*
X031720Y033451D01*
X031650Y033381D01*
X031650Y033311D01*
X031650Y033381D02*
X031580Y033451D01*
X031510Y033451D01*
X031440Y033381D01*
X031440Y033241D01*
X031510Y033171D01*
X031260Y033130D02*
X031260Y032920D01*
X031190Y032850D01*
X031120Y032920D01*
X031120Y033130D01*
X031050Y033130D02*
X031260Y033130D01*
X031050Y033130D02*
X030980Y033060D01*
X030980Y032920D01*
X030980Y033310D02*
X030980Y033450D01*
X030910Y033380D02*
X031190Y033380D01*
X031260Y033450D01*
X031190Y033617D02*
X031260Y033687D01*
X031260Y033827D01*
X031190Y033897D01*
X031050Y033897D01*
X030980Y033827D01*
X030980Y033687D01*
X031050Y033617D01*
X031190Y033617D01*
X031260Y034078D02*
X030980Y034078D01*
X031120Y034078D02*
X030980Y034218D01*
X030980Y034288D01*
X031050Y034750D02*
X031550Y034750D01*
X031800Y035000D01*
X031800Y035500D01*
X031550Y035750D01*
X031800Y036000D01*
X031800Y036500D01*
X031550Y036750D01*
X031050Y036750D01*
X030800Y036500D01*
X030800Y036000D01*
X031050Y035750D01*
X030800Y035500D01*
X030800Y035000D01*
X031050Y034750D01*
X032080Y034730D02*
X032200Y034550D01*
X032080Y034730D02*
X032080Y034880D01*
X032170Y035060D01*
X032750Y035600D02*
X032680Y035700D01*
X033340Y036150D02*
X033380Y036150D01*
X031100Y038650D02*
X029500Y038650D01*
X027706Y038785D02*
X027706Y038921D01*
X025894Y038921D01*
X025894Y038787D01*
X025894Y037915D02*
X025894Y037779D01*
X027706Y037779D01*
X027706Y037915D01*
X027115Y037956D02*
X027115Y038744D01*
X024387Y038444D02*
X024387Y037656D01*
X024387Y038050D02*
X023847Y037656D01*
X023847Y038444D01*
X024387Y038050D01*
X024220Y036390D02*
X024430Y036270D01*
X023750Y035550D02*
X023610Y035650D01*
X026510Y035200D02*
X029090Y035200D01*
X029090Y032840D01*
X028312Y031860D02*
X028312Y030600D01*
X027288Y030600D02*
X027288Y031860D01*
X026510Y032840D02*
X026510Y035200D01*
X023770Y032430D02*
X023470Y032620D01*
X023440Y029410D02*
X023840Y029300D01*
X030840Y029300D02*
X030840Y029160D01*
X030910Y029090D01*
X030840Y029300D02*
X030910Y029370D01*
X031050Y029550D02*
X031050Y029831D01*
X031580Y029731D02*
X031650Y029801D01*
X031720Y029801D01*
X031720Y029521D01*
X031790Y029521D02*
X031650Y029521D01*
X031580Y029591D01*
X031580Y029731D01*
X031580Y029981D02*
X031580Y030191D01*
X031650Y030261D01*
X031860Y030261D01*
X031860Y030442D02*
X031440Y030722D01*
X031510Y030902D02*
X031790Y030902D01*
X031860Y030972D01*
X031860Y031112D01*
X031790Y031182D01*
X031510Y031182D02*
X031440Y031112D01*
X031440Y030972D01*
X031510Y030902D01*
X031860Y030722D02*
X031440Y030442D01*
X031580Y029981D02*
X031860Y029981D01*
X031860Y029731D02*
X031860Y029591D01*
X031790Y029521D01*
X031790Y029341D02*
X031860Y029271D01*
X031860Y029060D01*
X032000Y029060D02*
X031580Y029060D01*
X031580Y029271D01*
X031650Y029341D01*
X031790Y029341D01*
X031790Y028880D02*
X031510Y028880D01*
X031440Y028810D01*
X031440Y028670D01*
X031510Y028600D01*
X031790Y028600D01*
X031860Y028670D01*
X031860Y028810D01*
X031790Y028880D01*
X031899Y027448D02*
X032293Y027448D01*
X031899Y027448D02*
X031899Y027055D01*
X034075Y027850D02*
X034725Y027850D01*
X034742Y027852D01*
X034759Y027856D01*
X034775Y027863D01*
X034789Y027873D01*
X034802Y027886D01*
X034812Y027900D01*
X034819Y027916D01*
X034823Y027933D01*
X034825Y027950D01*
X034930Y028400D02*
X035240Y028400D01*
X035307Y028625D02*
X035305Y028643D01*
X035306Y028660D01*
X035310Y028677D01*
X035317Y028693D01*
X035327Y028708D01*
X035339Y028720D01*
X035353Y028730D01*
X035369Y028738D01*
X035385Y028743D01*
X035385Y028744D02*
X036015Y028744D01*
X036015Y028743D02*
X036031Y028738D01*
X036047Y028730D01*
X036061Y028720D01*
X036073Y028708D01*
X036083Y028693D01*
X036090Y028677D01*
X036094Y028660D01*
X036095Y028643D01*
X036093Y028625D01*
X036200Y028700D02*
X036200Y028200D01*
X036450Y027950D01*
X036950Y027950D01*
X037200Y028200D01*
X037450Y027950D01*
X037950Y027950D01*
X038200Y028200D01*
X038450Y027950D01*
X038950Y027950D01*
X039200Y028200D01*
X039450Y027950D01*
X039950Y027950D01*
X040200Y028200D01*
X040450Y027950D01*
X040950Y027950D01*
X041200Y028200D01*
X041450Y027950D01*
X041950Y027950D01*
X042200Y028200D01*
X042200Y028700D01*
X041950Y028950D01*
X041450Y028950D01*
X041200Y028700D01*
X040950Y028950D01*
X040450Y028950D01*
X040200Y028700D01*
X039950Y028950D01*
X039450Y028950D01*
X039200Y028700D01*
X038950Y028950D01*
X038450Y028950D01*
X038200Y028700D01*
X037950Y028950D01*
X037450Y028950D01*
X037200Y028700D01*
X036950Y028950D01*
X036450Y028950D01*
X036200Y028700D01*
X036093Y028075D02*
X036095Y028057D01*
X036094Y028040D01*
X036090Y028023D01*
X036083Y028007D01*
X036073Y027992D01*
X036061Y027980D01*
X036047Y027970D01*
X036031Y027962D01*
X036015Y027957D01*
X036015Y027956D02*
X035385Y027956D01*
X035385Y027957D02*
X035369Y027962D01*
X035353Y027970D01*
X035339Y027980D01*
X035327Y027992D01*
X035317Y028007D01*
X035310Y028023D01*
X035306Y028040D01*
X035305Y028057D01*
X035307Y028075D01*
X035270Y028750D02*
X035100Y029050D01*
X034725Y028650D02*
X034075Y028650D01*
X034058Y028648D01*
X034041Y028644D01*
X034025Y028637D01*
X034011Y028627D01*
X033998Y028614D01*
X033988Y028600D01*
X033981Y028584D01*
X033977Y028567D01*
X033975Y028550D01*
X033975Y027950D02*
X033977Y027933D01*
X033981Y027916D01*
X033988Y027900D01*
X033998Y027886D01*
X034011Y027873D01*
X034025Y027863D01*
X034041Y027856D01*
X034058Y027852D01*
X034075Y027850D01*
X034825Y028550D02*
X034823Y028567D01*
X034819Y028584D01*
X034812Y028600D01*
X034802Y028614D01*
X034789Y028627D01*
X034775Y028637D01*
X034759Y028644D01*
X034742Y028648D01*
X034725Y028650D01*
X038946Y027448D02*
X039616Y027448D01*
X041663Y027448D02*
X042057Y027448D01*
X042057Y027055D01*
X041034Y029853D02*
X041034Y030030D01*
X040766Y030030D02*
X040766Y029853D01*
X040157Y029984D02*
X039980Y029984D01*
X039980Y029716D02*
X040157Y029716D01*
X040860Y031026D02*
X041037Y031026D01*
X041037Y031294D02*
X040860Y031294D01*
X041580Y031790D02*
X041790Y031850D01*
X041536Y033381D02*
X041536Y033519D01*
X041064Y033519D02*
X041064Y033381D01*
X041300Y034310D02*
X041300Y035710D01*
X041231Y035640D02*
X041369Y035640D01*
X041792Y035118D02*
X041792Y034902D01*
X041369Y034380D02*
X041231Y034380D01*
X040812Y034902D02*
X040812Y035118D01*
X042610Y034810D02*
X042820Y035150D01*
X040440Y039152D02*
X040440Y039388D01*
X039820Y039388D02*
X039820Y039152D01*
X037917Y038904D02*
X037917Y038865D01*
X037523Y038865D01*
X037523Y038904D01*
X037917Y038904D01*
X037917Y038865D02*
X037917Y038826D01*
X037917Y038707D01*
X037523Y038707D02*
X037523Y038865D01*
X037351Y039274D02*
X037115Y039274D01*
X037351Y039274D02*
X037351Y039589D01*
X036485Y039274D02*
X036249Y039274D01*
X036249Y039589D01*
X038119Y040657D02*
X038300Y040657D01*
X038392Y040535D01*
X038481Y040657D02*
X038300Y040657D01*
X038290Y040651D02*
X038214Y040535D01*
X031100Y040650D02*
X029500Y040650D01*
X029191Y040765D02*
X029193Y040785D01*
X029199Y040803D01*
X029208Y040821D01*
X029220Y040836D01*
X029235Y040848D01*
X029253Y040857D01*
X029271Y040863D01*
X029291Y040865D01*
X029311Y040863D01*
X029329Y040857D01*
X029347Y040848D01*
X029362Y040836D01*
X029374Y040821D01*
X029383Y040803D01*
X029389Y040785D01*
X029391Y040765D01*
X029389Y040745D01*
X029383Y040727D01*
X029374Y040709D01*
X029362Y040694D01*
X029347Y040682D01*
X029329Y040673D01*
X029311Y040667D01*
X029291Y040665D01*
X029271Y040667D01*
X029253Y040673D01*
X029235Y040682D01*
X029220Y040694D01*
X029208Y040709D01*
X029199Y040727D01*
X029193Y040745D01*
X029191Y040765D01*
X032660Y032530D02*
X032810Y032210D01*
X031899Y022645D02*
X031899Y022252D01*
X032293Y022252D01*
X036100Y021650D02*
X036500Y021650D01*
X037033Y021650D02*
X037155Y021742D01*
X037033Y021831D02*
X037033Y021650D01*
X037033Y021469D01*
X037155Y021564D02*
X037039Y021640D01*
X038946Y022252D02*
X039616Y022252D01*
X041663Y022252D02*
X042057Y022252D01*
X042057Y022645D01*
D11*
X032100Y028420D02*
X030700Y028420D01*
X030700Y034450D01*
X032100Y034450D01*
X032100Y028420D01*
X033944Y030293D02*
X033944Y035607D01*
X034043Y035706D01*
X039357Y035706D01*
X039456Y035607D01*
X039456Y030489D01*
X039161Y030194D01*
X034043Y030194D01*
X033944Y030293D01*
X038964Y030588D02*
X038966Y030607D01*
X038971Y030626D01*
X038981Y030642D01*
X038993Y030657D01*
X039008Y030669D01*
X039024Y030679D01*
X039043Y030684D01*
X039062Y030686D01*
X039081Y030684D01*
X039100Y030679D01*
X039116Y030669D01*
X039131Y030657D01*
X039143Y030642D01*
X039153Y030626D01*
X039158Y030607D01*
X039160Y030588D01*
X039158Y030569D01*
X039153Y030550D01*
X039143Y030534D01*
X039131Y030519D01*
X039116Y030507D01*
X039100Y030497D01*
X039081Y030492D01*
X039062Y030490D01*
X039043Y030492D01*
X039024Y030497D01*
X039008Y030507D01*
X038993Y030519D01*
X038981Y030534D01*
X038971Y030550D01*
X038966Y030569D01*
X038964Y030588D01*
D12*
X024867Y021990D02*
X024717Y021990D01*
X024717Y022290D01*
X024867Y022290D01*
X024917Y022240D01*
X024917Y022040D01*
X024867Y021990D01*
X025049Y022140D02*
X025249Y022140D01*
X025199Y021990D02*
X025199Y022290D01*
X025049Y022140D01*
X025071Y023275D02*
X025272Y023475D01*
X025272Y023525D01*
X025222Y023575D01*
X025122Y023575D01*
X025071Y023525D01*
X024940Y023525D02*
X024940Y023425D01*
X024890Y023375D01*
X024740Y023375D01*
X024740Y023275D02*
X024740Y023575D01*
X024890Y023575D01*
X024940Y023525D01*
X024840Y023375D02*
X024940Y023275D01*
X025071Y023275D02*
X025272Y023275D01*
X024476Y023350D02*
X024275Y023350D01*
X024376Y023350D02*
X024376Y023650D01*
X024275Y023550D01*
X024144Y023650D02*
X024044Y023650D01*
X024094Y023650D02*
X024094Y023400D01*
X024044Y023350D01*
X023994Y023350D01*
X023944Y023400D01*
X023813Y023400D02*
X023763Y023350D01*
X023663Y023350D01*
X023613Y023400D01*
X023663Y023500D02*
X023763Y023500D01*
X023813Y023450D01*
X023813Y023400D01*
X023663Y023500D02*
X023613Y023550D01*
X023613Y023600D01*
X023663Y023650D01*
X023763Y023650D01*
X023813Y023600D01*
X023339Y023575D02*
X023139Y023575D01*
X023239Y023575D02*
X023239Y023875D01*
X023139Y023775D01*
X023007Y023725D02*
X022957Y023675D01*
X022807Y023675D01*
X022807Y023575D02*
X022807Y023875D01*
X022957Y023875D01*
X023007Y023825D01*
X023007Y023725D01*
X022907Y023675D02*
X023007Y023575D01*
X023900Y025233D02*
X023950Y025233D01*
X024000Y025283D01*
X024000Y025383D01*
X024050Y025433D01*
X024100Y025433D01*
X024150Y025383D01*
X024150Y025283D01*
X024100Y025233D01*
X023900Y025233D02*
X023850Y025283D01*
X023850Y025383D01*
X023900Y025433D01*
X023850Y025665D02*
X023850Y025765D01*
X023850Y025715D02*
X024100Y025715D01*
X024150Y025665D01*
X024150Y025615D01*
X024100Y025565D01*
X024150Y025896D02*
X023950Y026096D01*
X023900Y026096D01*
X023850Y026046D01*
X023850Y025946D01*
X023900Y025896D01*
X024150Y025896D02*
X024150Y026096D01*
X025577Y026040D02*
X025727Y026040D01*
X025777Y025990D01*
X025777Y025790D01*
X025727Y025740D01*
X025577Y025740D01*
X025577Y026040D01*
X025909Y026040D02*
X025909Y025890D01*
X026009Y025940D01*
X026059Y025940D01*
X026109Y025890D01*
X026109Y025790D01*
X026059Y025740D01*
X025959Y025740D01*
X025909Y025790D01*
X025909Y026040D02*
X026109Y026040D01*
X027506Y025980D02*
X027606Y025980D01*
X027556Y025980D02*
X027556Y025680D01*
X027506Y025680D02*
X027606Y025680D01*
X027727Y025730D02*
X027777Y025680D01*
X027877Y025680D01*
X027927Y025730D01*
X028059Y025730D02*
X028109Y025680D01*
X028209Y025680D01*
X028259Y025730D01*
X028259Y025780D01*
X028209Y025830D01*
X028159Y025830D01*
X028209Y025830D02*
X028259Y025880D01*
X028259Y025930D01*
X028209Y025980D01*
X028109Y025980D01*
X028059Y025930D01*
X027927Y025930D02*
X027877Y025980D01*
X027777Y025980D01*
X027727Y025930D01*
X027727Y025730D01*
X029346Y026315D02*
X029396Y026265D01*
X029496Y026265D01*
X029546Y026315D01*
X029677Y026265D02*
X029877Y026265D01*
X029777Y026265D02*
X029777Y026565D01*
X029677Y026465D01*
X029546Y026515D02*
X029496Y026565D01*
X029396Y026565D01*
X029346Y026515D01*
X029346Y026315D01*
X030009Y026265D02*
X030209Y026265D01*
X030109Y026265D02*
X030109Y026565D01*
X030009Y026465D01*
X029993Y027880D02*
X029792Y027880D01*
X029993Y028080D01*
X029993Y028130D01*
X029943Y028180D01*
X029843Y028180D01*
X029792Y028130D01*
X029661Y028130D02*
X029611Y028180D01*
X029511Y028180D01*
X029461Y028130D01*
X029461Y027930D01*
X029511Y027880D01*
X029611Y027880D01*
X029661Y027930D01*
X029340Y027880D02*
X029240Y027880D01*
X029290Y027880D02*
X029290Y028180D01*
X029240Y028180D02*
X029340Y028180D01*
X032195Y028212D02*
X032195Y028112D01*
X032245Y028061D01*
X032245Y027930D02*
X032195Y027880D01*
X032195Y027780D01*
X032245Y027730D01*
X032445Y027730D01*
X032495Y027780D01*
X032495Y027880D01*
X032445Y027930D01*
X032495Y028061D02*
X032295Y028262D01*
X032245Y028262D01*
X032195Y028212D01*
X032295Y028393D02*
X032195Y028493D01*
X032495Y028493D01*
X032495Y028393D02*
X032495Y028593D01*
X032495Y028262D02*
X032495Y028061D01*
X033570Y028455D02*
X033570Y028555D01*
X033620Y028605D01*
X033720Y028555D02*
X033770Y028605D01*
X033820Y028605D01*
X033870Y028555D01*
X033870Y028455D01*
X033820Y028405D01*
X033720Y028455D02*
X033720Y028555D01*
X033720Y028455D02*
X033670Y028405D01*
X033620Y028405D01*
X033570Y028455D01*
X033820Y028736D02*
X033870Y028787D01*
X033870Y028837D01*
X033820Y028887D01*
X033570Y028887D01*
X033570Y028837D02*
X033570Y028937D01*
X033720Y029068D02*
X033720Y029218D01*
X033770Y029268D01*
X033820Y029268D01*
X033870Y029218D01*
X033870Y029118D01*
X033820Y029068D01*
X033720Y029068D01*
X033620Y029168D01*
X033570Y029268D01*
X033439Y029805D02*
X033239Y029805D01*
X033339Y029805D02*
X033339Y030105D01*
X033239Y030005D01*
X033107Y030005D02*
X033057Y029955D01*
X032907Y029955D01*
X032907Y029805D02*
X032907Y030105D01*
X033057Y030105D01*
X033107Y030055D01*
X033107Y030005D01*
X033057Y029955D02*
X033107Y029905D01*
X033107Y029855D01*
X033057Y029805D01*
X032907Y029805D01*
X032676Y029955D02*
X032576Y029955D01*
X032576Y029805D02*
X032576Y030105D01*
X032776Y030105D01*
X034825Y029380D02*
X034825Y029330D01*
X034875Y029280D01*
X034975Y029280D01*
X035025Y029230D01*
X035025Y029180D01*
X034975Y029130D01*
X034875Y029130D01*
X034825Y029180D01*
X034825Y029380D02*
X034875Y029430D01*
X034975Y029430D01*
X035025Y029380D01*
X035257Y029430D02*
X035357Y029430D01*
X035307Y029430D02*
X035307Y029180D01*
X035257Y029130D01*
X035207Y029130D01*
X035156Y029180D01*
X035488Y029180D02*
X035538Y029130D01*
X035638Y029130D01*
X035688Y029180D01*
X035688Y029280D01*
X035638Y029330D01*
X035588Y029330D01*
X035488Y029280D01*
X035488Y029430D01*
X035688Y029430D01*
X036730Y029365D02*
X036730Y029165D01*
X036780Y029115D01*
X036880Y029115D01*
X036930Y029165D01*
X037061Y029115D02*
X037262Y029115D01*
X037162Y029115D02*
X037162Y029415D01*
X037061Y029315D01*
X036930Y029365D02*
X036880Y029415D01*
X036780Y029415D01*
X036730Y029365D01*
X037393Y029265D02*
X037393Y029165D01*
X037443Y029115D01*
X037543Y029115D01*
X037593Y029165D01*
X037593Y029215D01*
X037543Y029265D01*
X037393Y029265D01*
X037493Y029365D01*
X037593Y029415D01*
X038476Y029335D02*
X038476Y029135D01*
X038526Y029085D01*
X038626Y029085D01*
X038676Y029135D01*
X038807Y029085D02*
X039007Y029085D01*
X038907Y029085D02*
X038907Y029385D01*
X038807Y029285D01*
X038676Y029335D02*
X038626Y029385D01*
X038526Y029385D01*
X038476Y029335D01*
X039139Y029385D02*
X039139Y029235D01*
X039239Y029285D01*
X039289Y029285D01*
X039339Y029235D01*
X039339Y029135D01*
X039289Y029085D01*
X039189Y029085D01*
X039139Y029135D01*
X039139Y029385D02*
X039339Y029385D01*
X039682Y029277D02*
X039832Y029277D01*
X039882Y029327D01*
X039882Y029527D01*
X039832Y029577D01*
X039682Y029577D01*
X039682Y029277D01*
X040013Y029277D02*
X040214Y029277D01*
X040114Y029277D02*
X040114Y029577D01*
X040013Y029477D01*
X040345Y029527D02*
X040395Y029577D01*
X040495Y029577D01*
X040545Y029527D01*
X040345Y029327D01*
X040395Y029277D01*
X040495Y029277D01*
X040545Y029327D01*
X040545Y029527D01*
X040345Y029527D02*
X040345Y029327D01*
X040622Y030307D02*
X040772Y030307D01*
X040822Y030357D01*
X040822Y030557D01*
X040772Y030607D01*
X040622Y030607D01*
X040622Y030307D01*
X040953Y030357D02*
X041003Y030307D01*
X041104Y030307D01*
X041154Y030357D01*
X041154Y030557D01*
X041104Y030607D01*
X041003Y030607D01*
X040953Y030557D01*
X040953Y030507D01*
X041003Y030457D01*
X041154Y030457D01*
X041726Y030505D02*
X041876Y030505D01*
X041926Y030455D01*
X041926Y030355D01*
X041876Y030305D01*
X041726Y030305D01*
X041826Y030305D02*
X041926Y030205D01*
X042057Y030205D02*
X042257Y030205D01*
X042157Y030205D02*
X042157Y030505D01*
X042057Y030405D01*
X042051Y030715D02*
X042252Y030715D01*
X042152Y030715D02*
X042152Y031015D01*
X042051Y030915D01*
X041920Y030865D02*
X041870Y030815D01*
X041720Y030815D01*
X041720Y030715D02*
X041720Y031015D01*
X041870Y031015D01*
X041920Y030965D01*
X041920Y030865D01*
X041820Y030815D02*
X041920Y030715D01*
X041726Y030505D02*
X041726Y030205D01*
X041730Y029985D02*
X041880Y029985D01*
X041930Y029935D01*
X041930Y029835D01*
X041880Y029785D01*
X041730Y029785D01*
X041730Y029685D02*
X041730Y029985D01*
X041830Y029785D02*
X041930Y029685D01*
X042061Y029685D02*
X042262Y029685D01*
X042162Y029685D02*
X042162Y029985D01*
X042061Y029885D01*
X042393Y029935D02*
X042443Y029985D01*
X042543Y029985D01*
X042593Y029935D01*
X042593Y029885D01*
X042393Y029685D01*
X042593Y029685D01*
X042539Y030205D02*
X042539Y030505D01*
X042389Y030355D01*
X042589Y030355D01*
X042533Y030715D02*
X042433Y030715D01*
X042383Y030765D01*
X042483Y030865D02*
X042533Y030865D01*
X042583Y030815D01*
X042583Y030765D01*
X042533Y030715D01*
X042533Y030865D02*
X042583Y030915D01*
X042583Y030965D01*
X042533Y031015D01*
X042433Y031015D01*
X042383Y030965D01*
X042433Y031305D02*
X042383Y031355D01*
X042433Y031305D02*
X042533Y031305D01*
X042583Y031355D01*
X042583Y031455D01*
X042533Y031505D01*
X042483Y031505D01*
X042383Y031455D01*
X042383Y031605D01*
X042583Y031605D01*
X042152Y031605D02*
X042152Y031305D01*
X042252Y031305D02*
X042051Y031305D01*
X041920Y031305D02*
X041820Y031405D01*
X041870Y031405D02*
X041720Y031405D01*
X041720Y031305D02*
X041720Y031605D01*
X041870Y031605D01*
X041920Y031555D01*
X041920Y031455D01*
X041870Y031405D01*
X042051Y031505D02*
X042152Y031605D01*
X041883Y032035D02*
X041883Y032085D01*
X042083Y032285D01*
X042083Y032335D01*
X041883Y032335D01*
X041652Y032335D02*
X041652Y032035D01*
X041752Y032035D02*
X041551Y032035D01*
X041420Y032035D02*
X041320Y032135D01*
X041370Y032135D02*
X041220Y032135D01*
X041220Y032035D02*
X041220Y032335D01*
X041370Y032335D01*
X041420Y032285D01*
X041420Y032185D01*
X041370Y032135D01*
X041318Y032314D02*
X041082Y032314D01*
X040683Y032475D02*
X040483Y032475D01*
X040633Y032625D01*
X040633Y032325D01*
X040352Y032325D02*
X040151Y032325D01*
X040252Y032325D02*
X040252Y032625D01*
X040151Y032525D01*
X040020Y032575D02*
X039970Y032625D01*
X039870Y032625D01*
X039820Y032575D01*
X039820Y032375D01*
X039870Y032325D01*
X039970Y032325D01*
X040020Y032375D01*
X040562Y031687D02*
X040712Y031687D01*
X040762Y031637D01*
X040762Y031437D01*
X040712Y031387D01*
X040562Y031387D01*
X040562Y031687D01*
X040893Y031637D02*
X040893Y031587D01*
X040943Y031537D01*
X041044Y031537D01*
X041094Y031487D01*
X041094Y031437D01*
X041044Y031387D01*
X040943Y031387D01*
X040893Y031437D01*
X040893Y031487D01*
X040943Y031537D01*
X041044Y031537D02*
X041094Y031587D01*
X041094Y031637D01*
X041044Y031687D01*
X040943Y031687D01*
X040893Y031637D01*
X041551Y032235D02*
X041652Y032335D01*
X041940Y032615D02*
X042040Y032615D01*
X042090Y032665D01*
X042221Y032615D02*
X042422Y032815D01*
X042422Y032865D01*
X042372Y032915D01*
X042272Y032915D01*
X042221Y032865D01*
X042090Y032865D02*
X042040Y032915D01*
X041940Y032915D01*
X041890Y032865D01*
X041890Y032665D01*
X041940Y032615D01*
X042221Y032615D02*
X042422Y032615D01*
X042553Y032765D02*
X042753Y032765D01*
X042703Y032615D02*
X042703Y032915D01*
X042553Y032765D01*
X043355Y032703D02*
X043405Y032603D01*
X043505Y032503D01*
X043505Y032653D01*
X043555Y032703D01*
X043605Y032703D01*
X043655Y032653D01*
X043655Y032553D01*
X043605Y032503D01*
X043505Y032503D01*
X043655Y032372D02*
X043655Y032171D01*
X043655Y032272D02*
X043355Y032272D01*
X043455Y032171D01*
X043505Y032040D02*
X043555Y031990D01*
X043555Y031840D01*
X043655Y031840D02*
X043355Y031840D01*
X043355Y031990D01*
X043405Y032040D01*
X043505Y032040D01*
X043555Y031940D02*
X043655Y032040D01*
X043695Y033370D02*
X043745Y033420D01*
X043745Y033520D01*
X043695Y033570D01*
X043745Y033701D02*
X043545Y033902D01*
X043495Y033902D01*
X043445Y033852D01*
X043445Y033752D01*
X043495Y033701D01*
X043495Y033570D02*
X043445Y033520D01*
X043445Y033420D01*
X043495Y033370D01*
X043695Y033370D01*
X043745Y033701D02*
X043745Y033902D01*
X043695Y034033D02*
X043745Y034083D01*
X043745Y034183D01*
X043695Y034233D01*
X043645Y034233D01*
X043595Y034183D01*
X043595Y034133D01*
X043595Y034183D02*
X043545Y034233D01*
X043495Y034233D01*
X043445Y034183D01*
X043445Y034083D01*
X043495Y034033D01*
X043125Y034290D02*
X043125Y034390D01*
X043075Y034440D01*
X043125Y034571D02*
X042925Y034772D01*
X042875Y034772D01*
X042825Y034722D01*
X042825Y034622D01*
X042875Y034571D01*
X042875Y034440D02*
X042825Y034390D01*
X042825Y034290D01*
X042875Y034240D01*
X043075Y034240D01*
X043125Y034290D01*
X043125Y034571D02*
X043125Y034772D01*
X043075Y034903D02*
X043125Y034953D01*
X043125Y035053D01*
X043075Y035103D01*
X043025Y035103D01*
X042975Y035053D01*
X042975Y034903D01*
X043075Y034903D01*
X042975Y034903D02*
X042875Y035003D01*
X042825Y035103D01*
X042803Y034295D02*
X042603Y034295D01*
X042603Y034145D01*
X042703Y034195D01*
X042753Y034195D01*
X042803Y034145D01*
X042803Y034045D01*
X042753Y033995D01*
X042653Y033995D01*
X042603Y034045D01*
X042472Y033995D02*
X042271Y033995D01*
X042472Y034195D01*
X042472Y034245D01*
X042422Y034295D01*
X042322Y034295D01*
X042271Y034245D01*
X042140Y034245D02*
X042090Y034295D01*
X041990Y034295D01*
X041940Y034245D01*
X041940Y034045D01*
X041990Y033995D01*
X042090Y033995D01*
X042140Y034045D01*
X040939Y034085D02*
X040939Y034135D01*
X040889Y034185D01*
X040789Y034185D01*
X040739Y034135D01*
X040608Y034135D02*
X040608Y033935D01*
X040558Y033885D01*
X040458Y033885D01*
X040408Y033935D01*
X040408Y034135D01*
X040458Y034185D01*
X040558Y034185D01*
X040608Y034135D01*
X040508Y033985D02*
X040608Y033885D01*
X040739Y033885D02*
X040939Y034085D01*
X040939Y033885D02*
X040739Y033885D01*
X041082Y032786D02*
X041318Y032786D01*
X040597Y035450D02*
X040497Y035450D01*
X040447Y035500D01*
X040316Y035500D02*
X040266Y035450D01*
X040166Y035450D01*
X040116Y035500D01*
X040116Y035700D01*
X040166Y035750D01*
X040266Y035750D01*
X040316Y035700D01*
X040316Y035500D01*
X040316Y035450D02*
X040216Y035550D01*
X040447Y035700D02*
X040497Y035750D01*
X040597Y035750D01*
X040647Y035700D01*
X040647Y035650D01*
X040597Y035600D01*
X040647Y035550D01*
X040647Y035500D01*
X040597Y035450D01*
X040597Y035600D02*
X040547Y035600D01*
X041770Y035780D02*
X042070Y035780D01*
X042070Y035980D01*
X042070Y036111D02*
X042070Y036312D01*
X042070Y036443D02*
X042070Y036593D01*
X042020Y036643D01*
X041820Y036643D01*
X041770Y036593D01*
X041770Y036443D01*
X042070Y036443D01*
X041920Y036212D02*
X041920Y036111D01*
X041770Y036111D02*
X042070Y036111D01*
X041770Y036111D02*
X041770Y036312D01*
X041920Y036774D02*
X041920Y036975D01*
X042070Y036925D02*
X041770Y036925D01*
X041920Y036774D01*
X041309Y037155D02*
X041259Y037105D01*
X041159Y037105D01*
X041109Y037155D01*
X041109Y037255D02*
X041209Y037305D01*
X041259Y037305D01*
X041309Y037255D01*
X041309Y037155D01*
X041109Y037255D02*
X041109Y037405D01*
X041309Y037405D01*
X040977Y037355D02*
X040927Y037405D01*
X040827Y037405D01*
X040777Y037355D01*
X040646Y037355D02*
X040646Y037255D01*
X040596Y037205D01*
X040446Y037205D01*
X040546Y037205D02*
X040646Y037105D01*
X040617Y036985D02*
X040567Y036935D01*
X040617Y036985D02*
X040717Y036985D01*
X040767Y036935D01*
X040767Y036885D01*
X040567Y036685D01*
X040767Y036685D01*
X040899Y036735D02*
X040899Y036785D01*
X040949Y036835D01*
X041049Y036835D01*
X041099Y036785D01*
X041099Y036735D01*
X041049Y036685D01*
X040949Y036685D01*
X040899Y036735D01*
X040949Y036835D02*
X040899Y036885D01*
X040899Y036935D01*
X040949Y036985D01*
X041049Y036985D01*
X041099Y036935D01*
X041099Y036885D01*
X041049Y036835D01*
X040977Y037105D02*
X040777Y037105D01*
X040977Y037305D01*
X040977Y037355D01*
X040646Y037355D02*
X040596Y037405D01*
X040446Y037405D01*
X040446Y037105D01*
X040386Y036985D02*
X040286Y036985D01*
X040236Y036935D01*
X040236Y036735D01*
X040286Y036685D01*
X040386Y036685D01*
X040436Y036735D01*
X040436Y036935D02*
X040386Y036985D01*
X039109Y036755D02*
X038909Y036555D01*
X038959Y036505D01*
X039059Y036505D01*
X039109Y036555D01*
X039109Y036755D01*
X039059Y036805D01*
X038959Y036805D01*
X038909Y036755D01*
X038909Y036555D01*
X038777Y036505D02*
X038577Y036505D01*
X038777Y036705D01*
X038777Y036755D01*
X038727Y036805D01*
X038627Y036805D01*
X038577Y036755D01*
X038446Y036755D02*
X038396Y036805D01*
X038296Y036805D01*
X038246Y036755D01*
X038246Y036555D01*
X038296Y036505D01*
X038396Y036505D01*
X038446Y036555D01*
X038487Y037835D02*
X038687Y037835D01*
X038587Y037835D02*
X038587Y038135D01*
X038487Y038035D01*
X038356Y037985D02*
X038306Y037935D01*
X038156Y037935D01*
X038256Y037935D02*
X038356Y037835D01*
X038356Y037985D02*
X038356Y038085D01*
X038306Y038135D01*
X038156Y038135D01*
X038156Y037835D01*
X038027Y038335D02*
X038027Y038485D01*
X038077Y038535D01*
X038277Y038535D01*
X038327Y038485D01*
X038327Y038335D01*
X038027Y038335D01*
X038077Y038667D02*
X038027Y038717D01*
X038027Y038817D01*
X038077Y038867D01*
X038127Y038867D01*
X038327Y038667D01*
X038327Y038867D01*
X038402Y039275D02*
X038351Y039325D01*
X038351Y039375D01*
X038402Y039425D01*
X038502Y039425D01*
X038552Y039375D01*
X038552Y039325D01*
X038502Y039275D01*
X038402Y039275D01*
X038402Y039425D02*
X038351Y039475D01*
X038351Y039525D01*
X038402Y039575D01*
X038502Y039575D01*
X038552Y039525D01*
X038552Y039475D01*
X038502Y039425D01*
X038220Y039425D02*
X038170Y039375D01*
X038020Y039375D01*
X038020Y039275D02*
X038020Y039575D01*
X038170Y039575D01*
X038220Y039525D01*
X038220Y039425D01*
X038120Y039375D02*
X038220Y039275D01*
X038710Y039965D02*
X038910Y039965D01*
X039041Y039965D02*
X039242Y039965D01*
X039373Y039965D02*
X039523Y039965D01*
X039573Y040015D01*
X039573Y040215D01*
X039523Y040265D01*
X039373Y040265D01*
X039373Y039965D01*
X039566Y039847D02*
X039716Y039847D01*
X039766Y039797D01*
X039766Y039597D01*
X039716Y039547D01*
X039566Y039547D01*
X039566Y039847D01*
X039704Y039965D02*
X039905Y040165D01*
X039905Y040215D01*
X039855Y040265D01*
X039754Y040265D01*
X039704Y040215D01*
X039704Y039965D02*
X039905Y039965D01*
X039897Y039847D02*
X040097Y039847D01*
X040097Y039797D01*
X039897Y039597D01*
X039897Y039547D01*
X040261Y039543D02*
X040411Y039543D01*
X040462Y039593D01*
X040462Y039793D01*
X040411Y039843D01*
X040261Y039843D01*
X040261Y039543D01*
X040593Y039593D02*
X040643Y039543D01*
X040743Y039543D01*
X040793Y039593D01*
X040793Y039643D01*
X040743Y039693D01*
X040593Y039693D01*
X040593Y039593D01*
X040593Y039693D02*
X040693Y039793D01*
X040793Y039843D01*
X041385Y039192D02*
X041535Y039041D01*
X041535Y039242D01*
X041685Y039192D02*
X041385Y039192D01*
X041435Y038910D02*
X041535Y038910D01*
X041585Y038860D01*
X041585Y038710D01*
X041685Y038710D02*
X041385Y038710D01*
X041385Y038860D01*
X041435Y038910D01*
X041585Y038810D02*
X041685Y038910D01*
X041835Y038870D02*
X041885Y038920D01*
X041985Y038920D01*
X042035Y038870D01*
X042035Y038720D01*
X042135Y038720D02*
X041835Y038720D01*
X041835Y038870D01*
X042035Y038820D02*
X042135Y038920D01*
X042085Y039051D02*
X042135Y039102D01*
X042135Y039202D01*
X042085Y039252D01*
X042035Y039252D01*
X041985Y039202D01*
X041985Y039051D01*
X042085Y039051D01*
X041985Y039051D02*
X041885Y039152D01*
X041835Y039252D01*
X042335Y039252D02*
X042335Y039051D01*
X042485Y039051D01*
X042435Y039152D01*
X042435Y039202D01*
X042485Y039252D01*
X042585Y039252D01*
X042635Y039202D01*
X042635Y039102D01*
X042585Y039051D01*
X042635Y038920D02*
X042535Y038820D01*
X042535Y038870D02*
X042535Y038720D01*
X042635Y038720D02*
X042335Y038720D01*
X042335Y038870D01*
X042385Y038920D01*
X042485Y038920D01*
X042535Y038870D01*
X040049Y038605D02*
X040049Y038555D01*
X039849Y038355D01*
X039849Y038305D01*
X039717Y038305D02*
X039617Y038405D01*
X039667Y038405D02*
X039517Y038405D01*
X039517Y038305D02*
X039517Y038605D01*
X039667Y038605D01*
X039717Y038555D01*
X039717Y038455D01*
X039667Y038405D01*
X039849Y038605D02*
X040049Y038605D01*
X039019Y038085D02*
X038819Y037885D01*
X038869Y037835D01*
X038969Y037835D01*
X039019Y037885D01*
X039019Y038085D01*
X038969Y038135D01*
X038869Y038135D01*
X038819Y038085D01*
X038819Y037885D01*
X036975Y038320D02*
X036675Y038320D01*
X036675Y038470D01*
X036725Y038520D01*
X036825Y038520D01*
X036875Y038470D01*
X036875Y038320D01*
X036875Y038420D02*
X036975Y038520D01*
X036925Y038651D02*
X036975Y038702D01*
X036975Y038802D01*
X036925Y038852D01*
X036875Y038852D01*
X036825Y038802D01*
X036825Y038752D01*
X036825Y038802D02*
X036775Y038852D01*
X036725Y038852D01*
X036675Y038802D01*
X036675Y038702D01*
X036725Y038651D01*
X036032Y039125D02*
X036032Y039325D01*
X035982Y039375D01*
X035882Y039375D01*
X035831Y039325D01*
X035831Y039275D01*
X035882Y039225D01*
X036032Y039225D01*
X036032Y039125D02*
X035982Y039075D01*
X035882Y039075D01*
X035831Y039125D01*
X035700Y039075D02*
X035600Y039175D01*
X035650Y039175D02*
X035500Y039175D01*
X035500Y039075D02*
X035500Y039375D01*
X035650Y039375D01*
X035700Y039325D01*
X035700Y039225D01*
X035650Y039175D01*
X035662Y039740D02*
X035612Y039790D01*
X035612Y039990D01*
X035662Y040040D01*
X035762Y040040D01*
X035812Y039990D01*
X035812Y039790D01*
X035762Y039740D01*
X035662Y039740D01*
X035712Y039840D02*
X035812Y039740D01*
X035944Y039740D02*
X036144Y039740D01*
X036044Y039740D02*
X036044Y040040D01*
X035944Y039940D01*
X036126Y040585D02*
X036126Y040885D01*
X036276Y040885D01*
X036326Y040835D01*
X036326Y040735D01*
X036276Y040685D01*
X036126Y040685D01*
X036226Y040685D02*
X036326Y040585D01*
X036457Y040585D02*
X036657Y040585D01*
X036557Y040585D02*
X036557Y040885D01*
X036457Y040785D01*
X036789Y040785D02*
X036889Y040885D01*
X036889Y040585D01*
X036789Y040585D02*
X036989Y040585D01*
X038710Y040265D02*
X038710Y039965D01*
X039041Y039965D02*
X039041Y040265D01*
X039242Y040265D01*
X039142Y040115D02*
X039041Y040115D01*
X035380Y038083D02*
X035330Y038133D01*
X035230Y038133D01*
X035180Y038083D01*
X035048Y038083D02*
X034998Y038133D01*
X034898Y038133D01*
X034848Y038083D01*
X034848Y038033D01*
X034898Y037983D01*
X034998Y037983D01*
X035048Y037933D01*
X035048Y037883D01*
X034998Y037833D01*
X034898Y037833D01*
X034848Y037883D01*
X035180Y037833D02*
X035380Y038033D01*
X035380Y038083D01*
X035380Y037833D02*
X035180Y037833D01*
X036206Y036835D02*
X036156Y036785D01*
X036156Y036585D01*
X036206Y036535D01*
X036306Y036535D01*
X036356Y036585D01*
X036487Y036535D02*
X036687Y036535D01*
X036587Y036535D02*
X036587Y036835D01*
X036487Y036735D01*
X036356Y036785D02*
X036306Y036835D01*
X036206Y036835D01*
X036819Y036785D02*
X036819Y036735D01*
X036869Y036685D01*
X037019Y036685D01*
X037019Y036585D02*
X037019Y036785D01*
X036969Y036835D01*
X036869Y036835D01*
X036819Y036785D01*
X036819Y036585D02*
X036869Y036535D01*
X036969Y036535D01*
X037019Y036585D01*
X033755Y036499D02*
X033455Y036499D01*
X033605Y036349D01*
X033605Y036549D01*
X033555Y036217D02*
X033505Y036217D01*
X033455Y036167D01*
X033455Y036067D01*
X033505Y036017D01*
X033505Y035886D02*
X033605Y035886D01*
X033655Y035836D01*
X033655Y035686D01*
X033655Y035786D02*
X033755Y035886D01*
X033755Y036017D02*
X033555Y036217D01*
X033755Y036217D02*
X033755Y036017D01*
X033505Y035886D02*
X033455Y035836D01*
X033455Y035686D01*
X033755Y035686D01*
X033135Y035643D02*
X033135Y035543D01*
X033085Y035493D01*
X033135Y035362D02*
X033135Y035161D01*
X032935Y035362D01*
X032885Y035362D01*
X032835Y035312D01*
X032835Y035212D01*
X032885Y035161D01*
X032885Y035030D02*
X032985Y035030D01*
X033035Y034980D01*
X033035Y034830D01*
X033135Y034830D02*
X032835Y034830D01*
X032835Y034980D01*
X032885Y035030D01*
X033035Y034930D02*
X033135Y035030D01*
X032885Y035493D02*
X032835Y035543D01*
X032835Y035643D01*
X032885Y035693D01*
X032935Y035693D01*
X032985Y035643D01*
X033035Y035693D01*
X033085Y035693D01*
X033135Y035643D01*
X032985Y035643D02*
X032985Y035593D01*
X032495Y034529D02*
X032545Y034479D01*
X032545Y034379D01*
X032495Y034329D01*
X032445Y034329D01*
X032395Y034379D01*
X032395Y034479D01*
X032445Y034529D01*
X032495Y034529D01*
X032395Y034479D02*
X032345Y034529D01*
X032295Y034529D01*
X032245Y034479D01*
X032245Y034379D01*
X032295Y034329D01*
X032345Y034329D01*
X032395Y034379D01*
X032545Y034197D02*
X032545Y033997D01*
X032545Y034097D02*
X032245Y034097D01*
X032345Y033997D01*
X032295Y033866D02*
X032245Y033816D01*
X032245Y033716D01*
X032295Y033666D01*
X032495Y033666D01*
X032545Y033716D01*
X032545Y033816D01*
X032495Y033866D01*
X032375Y033463D02*
X032575Y033263D01*
X032625Y033263D01*
X032625Y033132D02*
X032625Y032931D01*
X032625Y033032D02*
X032325Y033032D01*
X032425Y032931D01*
X032375Y032800D02*
X032325Y032750D01*
X032325Y032650D01*
X032375Y032600D01*
X032575Y032600D01*
X032625Y032650D01*
X032625Y032750D01*
X032575Y032800D01*
X032325Y033263D02*
X032325Y033463D01*
X032375Y033463D01*
X029973Y032620D02*
X029772Y032620D01*
X029873Y032620D02*
X029873Y032920D01*
X029772Y032820D01*
X029641Y032870D02*
X029591Y032920D01*
X029491Y032920D01*
X029441Y032870D01*
X029441Y032670D01*
X029491Y032620D01*
X029591Y032620D01*
X029641Y032670D01*
X029320Y032620D02*
X029220Y032620D01*
X029270Y032620D02*
X029270Y032920D01*
X029220Y032920D02*
X029320Y032920D01*
X027923Y031477D02*
X027723Y031477D01*
X027673Y031427D01*
X027673Y031327D01*
X027723Y031277D01*
X027773Y031277D01*
X027823Y031327D01*
X027823Y031477D01*
X027923Y031477D02*
X027973Y031427D01*
X027973Y031327D01*
X027923Y031277D01*
X027923Y031145D02*
X027973Y031095D01*
X027973Y030995D01*
X027923Y030945D01*
X027723Y030945D01*
X027673Y030995D01*
X027673Y031095D01*
X027723Y031145D01*
X026336Y033132D02*
X026336Y033368D01*
X025864Y033368D02*
X025864Y033132D01*
X025785Y033137D02*
X025735Y033187D01*
X025785Y033137D02*
X025785Y033037D01*
X025735Y032987D01*
X025535Y032987D01*
X025485Y033037D01*
X025485Y033137D01*
X025535Y033187D01*
X025535Y033319D02*
X025585Y033319D01*
X025635Y033369D01*
X025635Y033469D01*
X025685Y033519D01*
X025735Y033519D01*
X025785Y033469D01*
X025785Y033369D01*
X025735Y033319D01*
X025685Y033319D01*
X025635Y033369D01*
X025635Y033469D02*
X025585Y033519D01*
X025535Y033519D01*
X025485Y033469D01*
X025485Y033369D01*
X025535Y033319D01*
X025864Y034332D02*
X025864Y034568D01*
X026336Y034568D02*
X026336Y034332D01*
X026316Y035932D02*
X026316Y036168D01*
X025844Y036168D02*
X025844Y035932D01*
X025699Y036065D02*
X025649Y036015D01*
X025549Y036015D01*
X025499Y036065D01*
X025499Y036165D02*
X025599Y036215D01*
X025649Y036215D01*
X025699Y036165D01*
X025699Y036065D01*
X025499Y036165D02*
X025499Y036315D01*
X025699Y036315D01*
X025709Y036575D02*
X025509Y036575D01*
X025609Y036575D02*
X025609Y036875D01*
X025509Y036775D01*
X025377Y036825D02*
X025327Y036875D01*
X025227Y036875D01*
X025177Y036825D01*
X025177Y036625D01*
X025227Y036575D01*
X025327Y036575D01*
X025377Y036625D01*
X025317Y036315D02*
X025217Y036315D01*
X025167Y036265D01*
X025167Y036065D01*
X025217Y036015D01*
X025317Y036015D01*
X025367Y036065D01*
X025367Y036265D02*
X025317Y036315D01*
X024618Y036186D02*
X024382Y036186D01*
X024145Y036367D02*
X024095Y036317D01*
X023895Y036317D01*
X023845Y036367D01*
X023845Y036467D01*
X023895Y036517D01*
X023845Y036649D02*
X023845Y036849D01*
X023895Y036849D01*
X024095Y036649D01*
X024145Y036649D01*
X024095Y036517D02*
X024145Y036467D01*
X024145Y036367D01*
X024382Y035714D02*
X024618Y035714D01*
X024145Y035629D02*
X024145Y035429D01*
X023945Y035629D01*
X023895Y035629D01*
X023845Y035579D01*
X023845Y035479D01*
X023895Y035429D01*
X023845Y035197D02*
X024145Y035197D01*
X024145Y035097D02*
X024145Y035297D01*
X023945Y035097D02*
X023845Y035197D01*
X023895Y034966D02*
X023845Y034916D01*
X023845Y034816D01*
X023895Y034766D01*
X024095Y034766D01*
X024145Y034816D01*
X024145Y034916D01*
X024095Y034966D01*
X023418Y035714D02*
X023182Y035714D01*
X023182Y036186D02*
X023418Y036186D01*
X025844Y037052D02*
X025844Y037288D01*
X026316Y037288D02*
X026316Y037052D01*
X027500Y037105D02*
X027500Y036905D01*
X027550Y036855D01*
X027650Y036855D01*
X027700Y036905D01*
X027831Y036905D02*
X027882Y036855D01*
X027982Y036855D01*
X028032Y036905D01*
X028032Y036955D01*
X027982Y037005D01*
X027831Y037005D01*
X027831Y036905D01*
X027831Y037005D02*
X027932Y037105D01*
X028032Y037155D01*
X027700Y037105D02*
X027650Y037155D01*
X027550Y037155D01*
X027500Y037105D01*
X026549Y039070D02*
X026349Y039070D01*
X026449Y039070D02*
X026449Y039370D01*
X026349Y039270D01*
X026217Y039320D02*
X026167Y039370D01*
X026017Y039370D01*
X026017Y039070D01*
X026167Y039070D01*
X026217Y039120D01*
X026217Y039320D01*
X024912Y039180D02*
X024912Y039130D01*
X024862Y039080D01*
X024912Y039030D01*
X024912Y038980D01*
X024862Y038930D01*
X024762Y038930D01*
X024711Y038980D01*
X024580Y038980D02*
X024580Y039180D01*
X024530Y039230D01*
X024380Y039230D01*
X024380Y038930D01*
X024530Y038930D01*
X024580Y038980D01*
X024711Y039180D02*
X024762Y039230D01*
X024862Y039230D01*
X024912Y039180D01*
X024862Y039080D02*
X024812Y039080D01*
X030786Y038095D02*
X030936Y038095D01*
X030986Y038045D01*
X030986Y037945D01*
X030936Y037895D01*
X030786Y037895D01*
X030886Y037895D02*
X030986Y037795D01*
X031117Y037795D02*
X031317Y037795D01*
X031217Y037795D02*
X031217Y038095D01*
X031117Y037995D01*
X031449Y037995D02*
X031449Y038045D01*
X031499Y038095D01*
X031599Y038095D01*
X031649Y038045D01*
X031649Y037995D01*
X031599Y037945D01*
X031499Y037945D01*
X031449Y037995D01*
X031499Y037945D02*
X031449Y037895D01*
X031449Y037845D01*
X031499Y037795D01*
X031599Y037795D01*
X031649Y037845D01*
X031649Y037895D01*
X031599Y037945D01*
X030786Y037795D02*
X030786Y038095D01*
X032365Y038266D02*
X032415Y038216D01*
X032615Y038216D01*
X032665Y038266D01*
X032665Y038366D01*
X032615Y038416D01*
X032665Y038547D02*
X032465Y038747D01*
X032415Y038747D01*
X032365Y038697D01*
X032365Y038597D01*
X032415Y038547D01*
X032415Y038416D02*
X032365Y038366D01*
X032365Y038266D01*
X032665Y038547D02*
X032665Y038747D01*
X032665Y038879D02*
X032615Y038879D01*
X032415Y039079D01*
X032365Y039079D01*
X032365Y038879D01*
X031722Y040680D02*
X031722Y040730D01*
X031923Y040930D01*
X031923Y040980D01*
X031722Y040980D01*
X031591Y040930D02*
X031541Y040980D01*
X031441Y040980D01*
X031391Y040930D01*
X031391Y040730D01*
X031441Y040680D01*
X031541Y040680D01*
X031591Y040730D01*
X031270Y040680D02*
X031170Y040680D01*
X031220Y040680D02*
X031220Y040980D01*
X031170Y040980D02*
X031270Y040980D01*
X036297Y033091D02*
X036397Y033091D01*
X036347Y033091D02*
X036347Y032791D01*
X036297Y032791D02*
X036397Y032791D01*
X036518Y032841D02*
X036568Y032791D01*
X036668Y032791D01*
X036718Y032841D01*
X036849Y032841D02*
X036899Y032791D01*
X036999Y032791D01*
X037049Y032841D01*
X037049Y032941D01*
X036999Y032991D01*
X036949Y032991D01*
X036849Y032941D01*
X036849Y033091D01*
X037049Y033091D01*
X036718Y033041D02*
X036668Y033091D01*
X036568Y033091D01*
X036518Y033041D01*
X036518Y032841D01*
X041380Y027855D02*
X041530Y027855D01*
X041580Y027805D01*
X041580Y027705D01*
X041530Y027655D01*
X041380Y027655D01*
X041380Y027555D02*
X041380Y027855D01*
X041480Y027655D02*
X041580Y027555D01*
X041711Y027555D02*
X041912Y027755D01*
X041912Y027805D01*
X041862Y027855D01*
X041762Y027855D01*
X041711Y027805D01*
X041711Y027555D02*
X041912Y027555D01*
X042043Y027605D02*
X042243Y027805D01*
X042243Y027605D01*
X042193Y027555D01*
X042093Y027555D01*
X042043Y027605D01*
X042043Y027805D01*
X042093Y027855D01*
X042193Y027855D01*
X042243Y027805D01*
X042845Y027543D02*
X043145Y027543D01*
X043145Y027443D02*
X043145Y027643D01*
X043375Y027553D02*
X043375Y027453D01*
X043425Y027403D01*
X043425Y027272D02*
X043375Y027222D01*
X043375Y027122D01*
X043425Y027071D01*
X043425Y026940D02*
X043525Y026940D01*
X043575Y026890D01*
X043575Y026740D01*
X043675Y026740D02*
X043375Y026740D01*
X043375Y026890D01*
X043425Y026940D01*
X043575Y026840D02*
X043675Y026940D01*
X043675Y027071D02*
X043475Y027272D01*
X043425Y027272D01*
X043675Y027272D02*
X043675Y027071D01*
X043675Y027403D02*
X043475Y027603D01*
X043425Y027603D01*
X043375Y027553D01*
X043675Y027603D02*
X043675Y027403D01*
X043145Y027312D02*
X043145Y027111D01*
X042945Y027312D01*
X042895Y027312D01*
X042845Y027262D01*
X042845Y027162D01*
X042895Y027111D01*
X042895Y026980D02*
X042995Y026980D01*
X043045Y026930D01*
X043045Y026780D01*
X043145Y026780D02*
X042845Y026780D01*
X042845Y026930D01*
X042895Y026980D01*
X043045Y026880D02*
X043145Y026980D01*
X043170Y026575D02*
X043170Y026374D01*
X043170Y026475D02*
X042870Y026475D01*
X042970Y026374D01*
X042920Y026243D02*
X042870Y026193D01*
X042870Y026043D01*
X043170Y026043D01*
X043170Y026193D01*
X043120Y026243D01*
X042920Y026243D01*
X042870Y025912D02*
X042870Y025711D01*
X043170Y025711D01*
X043170Y025912D01*
X043020Y025812D02*
X043020Y025711D01*
X043170Y025580D02*
X043170Y025380D01*
X042870Y025380D01*
X042945Y027443D02*
X042845Y027543D01*
X043422Y029209D02*
X043472Y029209D01*
X043522Y029259D01*
X043522Y029359D01*
X043573Y029409D01*
X043623Y029409D01*
X043673Y029359D01*
X043673Y029259D01*
X043623Y029209D01*
X043422Y029209D02*
X043372Y029259D01*
X043372Y029359D01*
X043422Y029409D01*
X043472Y029540D02*
X043372Y029640D01*
X043673Y029640D01*
X043673Y029540D02*
X043673Y029741D01*
X039607Y021829D02*
X039507Y021829D01*
X039457Y021779D01*
X039457Y021729D01*
X039507Y021679D01*
X039657Y021679D01*
X039657Y021579D02*
X039657Y021779D01*
X039607Y021829D01*
X039657Y021579D02*
X039607Y021529D01*
X039507Y021529D01*
X039457Y021579D01*
X039326Y021529D02*
X039125Y021529D01*
X039226Y021529D02*
X039226Y021829D01*
X039125Y021729D01*
X038994Y021679D02*
X038944Y021629D01*
X038794Y021629D01*
X038794Y021529D02*
X038794Y021829D01*
X038944Y021829D01*
X038994Y021779D01*
X038994Y021679D01*
X038894Y021629D02*
X038994Y021529D01*
X035485Y021545D02*
X035435Y021495D01*
X035334Y021495D01*
X035284Y021545D01*
X035153Y021545D02*
X035153Y021745D01*
X035103Y021795D01*
X034953Y021795D01*
X034953Y021495D01*
X035103Y021495D01*
X035153Y021545D01*
X035284Y021745D02*
X035334Y021795D01*
X035435Y021795D01*
X035485Y021745D01*
X035485Y021695D01*
X035435Y021645D01*
X035485Y021595D01*
X035485Y021545D01*
X035435Y021645D02*
X035385Y021645D01*
X034822Y021495D02*
X034621Y021495D01*
X034621Y021795D01*
X034822Y021795D01*
X034722Y021645D02*
X034621Y021645D01*
X034490Y021495D02*
X034290Y021495D01*
X034290Y021795D01*
X030495Y022530D02*
X030495Y022630D01*
X030445Y022680D01*
X030495Y022530D02*
X030445Y022480D01*
X030245Y022480D01*
X030195Y022530D01*
X030195Y022630D01*
X030245Y022680D01*
X030345Y022811D02*
X030345Y023012D01*
X030495Y022962D02*
X030195Y022962D01*
X030345Y022811D01*
D13*
X029912Y022700D02*
X029888Y022700D01*
X028820Y026378D02*
X028820Y026402D01*
X033000Y028538D02*
X033000Y028562D01*
X033000Y029038D02*
X033000Y029062D01*
X032942Y031720D02*
X032918Y031720D01*
X036600Y029232D02*
X036600Y029208D01*
X038000Y029228D02*
X038000Y029252D01*
X042100Y033138D02*
X042100Y033162D01*
X042100Y033738D02*
X042100Y033762D01*
X042400Y034538D02*
X042400Y034562D01*
X043288Y035250D02*
X043312Y035250D01*
X041312Y036250D02*
X041288Y036250D01*
X039600Y036578D02*
X039600Y036602D01*
X035912Y037150D02*
X035888Y037150D01*
X032370Y035322D02*
X032370Y035298D01*
X032112Y038550D02*
X032088Y038550D01*
X027812Y036350D02*
X027788Y036350D01*
X023700Y034542D02*
X023700Y034518D01*
X023450Y032862D02*
X023450Y032838D01*
X024400Y032838D02*
X024400Y032862D01*
X024600Y029662D02*
X024600Y029638D01*
X023400Y029638D02*
X023400Y029662D01*
X023400Y025062D02*
X023400Y025038D01*
X043200Y033538D02*
X043200Y033562D01*
D14*
X043200Y032950D03*
X041600Y031450D03*
X041600Y030850D03*
X041600Y030350D03*
X041600Y029850D03*
X041100Y031950D03*
X031200Y038350D03*
X037500Y040750D03*
X023200Y024150D03*
X038266Y021646D03*
D15*
X042500Y028150D03*
X043000Y028150D03*
X043500Y028150D03*
X033160Y036150D03*
X032660Y036150D03*
X036300Y038750D03*
X037280Y038750D03*
X037700Y039820D03*
X039300Y037850D03*
X039800Y037850D03*
X040700Y037850D03*
X041500Y038250D03*
X042000Y038250D03*
X042500Y038250D03*
X024900Y024050D03*
D16*
X027800Y029890D03*
X027800Y035390D03*
D17*
X029270Y036220D02*
X029270Y036527D01*
X029423Y036680D02*
X029270Y036834D01*
X029730Y036834D01*
X029730Y036987D02*
X029730Y036680D01*
X029500Y036373D02*
X029500Y036220D01*
X029730Y036220D02*
X029270Y036220D01*
X024990Y037300D02*
X023210Y037300D01*
X023210Y038800D02*
X024990Y038800D01*
D18*
X024329Y034270D02*
X024374Y034225D01*
X024374Y034180D01*
X024329Y034135D01*
X024374Y034090D01*
X024374Y034045D01*
X024329Y034000D01*
X024239Y034000D01*
X024194Y034045D01*
X024080Y034045D02*
X024035Y034000D01*
X023945Y034000D01*
X023900Y034045D01*
X023785Y034045D02*
X023740Y034000D01*
X023650Y034000D01*
X023605Y034045D01*
X023605Y034225D01*
X023650Y034270D01*
X023740Y034270D01*
X023785Y034225D01*
X023900Y034225D02*
X023945Y034270D01*
X024035Y034270D01*
X024080Y034225D01*
X024080Y034180D01*
X024035Y034135D01*
X024080Y034090D01*
X024080Y034045D01*
X024035Y034135D02*
X023990Y034135D01*
X024194Y034225D02*
X024239Y034270D01*
X024329Y034270D01*
X024329Y034135D02*
X024284Y034135D01*
X024935Y033201D02*
X024890Y033155D01*
X024890Y033065D01*
X024935Y033020D01*
X024935Y032906D02*
X024980Y032906D01*
X025025Y032861D01*
X025070Y032906D01*
X025115Y032906D01*
X025160Y032861D01*
X025160Y032771D01*
X025115Y032726D01*
X025115Y032611D02*
X025160Y032566D01*
X025160Y032476D01*
X025115Y032431D01*
X024935Y032431D01*
X024890Y032476D01*
X024890Y032566D01*
X024935Y032611D01*
X024935Y032726D02*
X024890Y032771D01*
X024890Y032861D01*
X024935Y032906D01*
X025025Y032861D02*
X025025Y032816D01*
X025160Y033020D02*
X024980Y033201D01*
X024935Y033201D01*
X025160Y033201D02*
X025160Y033020D01*
X024130Y032419D02*
X023860Y032419D01*
X023995Y032284D01*
X023995Y032464D01*
X024040Y032170D02*
X024085Y032170D01*
X024130Y032125D01*
X024130Y032035D01*
X024085Y031990D01*
X024085Y031875D02*
X024130Y031830D01*
X024130Y031740D01*
X024085Y031695D01*
X023905Y031695D01*
X023860Y031740D01*
X023860Y031830D01*
X023905Y031875D01*
X023905Y031990D02*
X023860Y032035D01*
X023860Y032125D01*
X023905Y032170D01*
X023950Y032170D01*
X023995Y032125D01*
X024040Y032170D01*
X023995Y032125D02*
X023995Y032080D01*
X025130Y029780D02*
X025085Y029735D01*
X025085Y029555D01*
X025130Y029510D01*
X025220Y029510D01*
X025265Y029555D01*
X025380Y029555D02*
X025425Y029510D01*
X025515Y029510D01*
X025560Y029555D01*
X025560Y029600D01*
X025515Y029645D01*
X025470Y029645D01*
X025515Y029645D02*
X025560Y029690D01*
X025560Y029735D01*
X025515Y029780D01*
X025425Y029780D01*
X025380Y029735D01*
X025265Y029735D02*
X025220Y029780D01*
X025130Y029780D01*
X025674Y029690D02*
X025764Y029780D01*
X025764Y029510D01*
X025674Y029510D02*
X025854Y029510D01*
X024130Y029165D02*
X024130Y029075D01*
X024085Y029030D01*
X023905Y029211D01*
X024085Y029211D01*
X024130Y029165D01*
X024085Y029030D02*
X023905Y029030D01*
X023860Y029075D01*
X023860Y029165D01*
X023905Y029211D01*
X023905Y028916D02*
X023950Y028916D01*
X023995Y028871D01*
X024040Y028916D01*
X024085Y028916D01*
X024130Y028871D01*
X024130Y028781D01*
X024085Y028736D01*
X024085Y028621D02*
X024130Y028576D01*
X024130Y028486D01*
X024085Y028441D01*
X023905Y028441D01*
X023860Y028486D01*
X023860Y028576D01*
X023905Y028621D01*
X023905Y028736D02*
X023860Y028781D01*
X023860Y028871D01*
X023905Y028916D01*
X023995Y028871D02*
X023995Y028826D01*
X023475Y024750D02*
X023385Y024750D01*
X023340Y024705D01*
X023340Y024660D01*
X023385Y024615D01*
X023521Y024615D01*
X023521Y024525D02*
X023521Y024705D01*
X023475Y024750D01*
X023521Y024525D02*
X023475Y024480D01*
X023385Y024480D01*
X023340Y024525D01*
X023226Y024480D02*
X023046Y024480D01*
X023226Y024660D01*
X023226Y024705D01*
X023181Y024750D01*
X023091Y024750D01*
X023046Y024705D01*
X022931Y024705D02*
X022886Y024750D01*
X022796Y024750D01*
X022751Y024705D01*
X022751Y024525D01*
X022796Y024480D01*
X022886Y024480D01*
X022931Y024525D01*
X032230Y028770D02*
X032275Y028725D01*
X032455Y028725D01*
X032500Y028770D01*
X032500Y028860D01*
X032455Y028905D01*
X032500Y029020D02*
X032320Y029200D01*
X032275Y029200D01*
X032230Y029155D01*
X032230Y029065D01*
X032275Y029020D01*
X032275Y028905D02*
X032230Y028860D01*
X032230Y028770D01*
X032500Y029020D02*
X032500Y029200D01*
X032500Y029314D02*
X032320Y029494D01*
X032275Y029494D01*
X032230Y029449D01*
X032230Y029359D01*
X032275Y029314D01*
X032500Y029314D02*
X032500Y029494D01*
X042311Y029867D02*
X042311Y032033D01*
X042312Y032050D01*
X042317Y032067D01*
X042324Y032082D01*
X042334Y032096D01*
X042346Y032108D01*
X042360Y032118D01*
X042375Y032125D01*
X042392Y032130D01*
X042409Y032131D01*
X042567Y032131D01*
X042705Y031541D02*
X043295Y031541D01*
X043295Y030359D01*
X042705Y030359D01*
X042705Y031541D01*
X043433Y032131D02*
X043591Y032131D01*
X043611Y032126D01*
X043630Y032117D01*
X043647Y032106D01*
X043662Y032091D01*
X043674Y032074D01*
X043683Y032055D01*
X043689Y032035D01*
X043691Y032014D01*
X043689Y031993D01*
X043689Y029867D01*
X043688Y029850D01*
X043683Y029833D01*
X043676Y029818D01*
X043666Y029804D01*
X043654Y029792D01*
X043640Y029782D01*
X043625Y029775D01*
X043608Y029770D01*
X043591Y029769D01*
X043433Y029769D01*
X042567Y029769D02*
X042409Y029769D01*
X042392Y029770D01*
X042375Y029775D01*
X042360Y029782D01*
X042346Y029792D01*
X042334Y029804D01*
X042324Y029818D01*
X042317Y029833D01*
X042312Y029850D01*
X042311Y029867D01*
X043475Y035725D02*
X043655Y035725D01*
X043700Y035770D01*
X043700Y035860D01*
X043655Y035905D01*
X043700Y036020D02*
X043700Y036200D01*
X043700Y036110D02*
X043430Y036110D01*
X043520Y036020D01*
X043475Y035905D02*
X043430Y035860D01*
X043430Y035770D01*
X043475Y035725D01*
X043475Y036314D02*
X043430Y036359D01*
X043430Y036449D01*
X043475Y036494D01*
X043655Y036314D01*
X043700Y036359D01*
X043700Y036449D01*
X043655Y036494D01*
X043475Y036494D01*
X043475Y036314D02*
X043655Y036314D01*
X037838Y038550D02*
X037602Y038550D01*
X034781Y038041D02*
X034781Y037883D01*
X034781Y038041D02*
X034780Y038058D01*
X034775Y038075D01*
X034768Y038090D01*
X034758Y038104D01*
X034746Y038116D01*
X034732Y038126D01*
X034717Y038133D01*
X034700Y038138D01*
X034683Y038139D01*
X032557Y038139D01*
X032536Y038141D01*
X032515Y038139D01*
X032495Y038133D01*
X032476Y038124D01*
X032459Y038112D01*
X032444Y038097D01*
X032433Y038080D01*
X032424Y038061D01*
X032419Y038041D01*
X032419Y037883D01*
X033009Y037745D02*
X033009Y037155D01*
X034191Y037155D01*
X034191Y037745D01*
X033009Y037745D01*
X032419Y037017D02*
X032419Y036859D01*
X032420Y036842D01*
X032425Y036825D01*
X032432Y036810D01*
X032442Y036796D01*
X032454Y036784D01*
X032468Y036774D01*
X032483Y036767D01*
X032500Y036762D01*
X032517Y036761D01*
X034683Y036761D01*
X034700Y036762D01*
X034717Y036767D01*
X034732Y036774D01*
X034746Y036784D01*
X034758Y036796D01*
X034768Y036810D01*
X034775Y036825D01*
X034780Y036842D01*
X034781Y036859D01*
X034781Y037017D01*
D19*
X030464Y032415D02*
X030315Y032294D01*
X030255Y032325D01*
X030191Y032346D01*
X030172Y032536D01*
X030028Y032536D01*
X030009Y032346D01*
X029945Y032325D01*
X029885Y032294D01*
X029736Y032415D01*
X029635Y032314D01*
X029756Y032165D01*
X029725Y032105D01*
X029704Y032041D01*
X029514Y032022D01*
X029514Y031878D01*
X029704Y031859D01*
X029725Y031795D01*
X029756Y031735D01*
X029635Y031586D01*
X029736Y031485D01*
X029885Y031606D01*
X029945Y031575D01*
X030009Y031554D01*
X030028Y031364D01*
X030172Y031364D01*
X030191Y031554D01*
X030255Y031575D01*
X030315Y031606D01*
X030464Y031485D01*
X030565Y031586D01*
X030444Y031735D01*
X030475Y031795D01*
X030271Y031879D01*
X030249Y031842D01*
X030220Y031810D01*
X030184Y031786D01*
X030143Y031771D01*
X030100Y031765D01*
X030056Y031771D01*
X030015Y031786D01*
X029978Y031811D01*
X029949Y031844D01*
X029928Y031883D01*
X029917Y031926D01*
X029917Y031970D01*
X029927Y032013D01*
X029947Y032052D01*
X029975Y032086D01*
X030011Y032112D01*
X030052Y032128D01*
X030096Y032134D01*
X030140Y032130D01*
X030182Y032115D01*
X030219Y032091D01*
X030249Y032059D01*
X030271Y032021D01*
X030475Y032105D01*
X030444Y032165D01*
X030565Y032314D01*
X030464Y032415D01*
X030521Y032358D02*
X030393Y032358D01*
X030323Y032301D02*
X030555Y032301D01*
X030508Y032243D02*
X029692Y032243D01*
X029645Y032301D02*
X029877Y032301D01*
X029897Y032301D02*
X030303Y032301D01*
X030190Y032358D02*
X030010Y032358D01*
X030016Y032416D02*
X030184Y032416D01*
X030178Y032473D02*
X030022Y032473D01*
X030027Y032531D02*
X030173Y032531D01*
X030146Y032128D02*
X030463Y032128D01*
X030461Y032186D02*
X029739Y032186D01*
X029737Y032128D02*
X030052Y032128D01*
X029962Y032070D02*
X029714Y032070D01*
X029514Y032013D02*
X029927Y032013D01*
X029917Y031955D02*
X029514Y031955D01*
X029514Y031898D02*
X029924Y031898D01*
X029952Y031840D02*
X029710Y031840D01*
X029731Y031783D02*
X030025Y031783D01*
X030176Y031783D02*
X030469Y031783D01*
X030452Y031725D02*
X029748Y031725D01*
X029701Y031668D02*
X030499Y031668D01*
X030546Y031610D02*
X029654Y031610D01*
X029669Y031552D02*
X029820Y031552D01*
X029749Y031495D02*
X029726Y031495D01*
X030009Y031552D02*
X030191Y031552D01*
X030185Y031495D02*
X030015Y031495D01*
X030021Y031437D02*
X030179Y031437D01*
X030174Y031380D02*
X030026Y031380D01*
X030380Y031552D02*
X030531Y031552D01*
X030474Y031495D02*
X030451Y031495D01*
X030365Y031840D02*
X030248Y031840D01*
X030238Y032070D02*
X030391Y032070D01*
X029807Y032358D02*
X029679Y032358D01*
M02*
