<?xml version="1.0" encoding="UTF-8"?>
<svg xmlns="http://www.w3.org/2000/svg" xmlns:xlink="http://www.w3.org/1999/xlink" fill-opacity="1" color-rendering="auto" color-interpolation="auto" stroke="black" text-rendering="auto" stroke-linecap="square" width="800" stroke-miterlimit="10" stroke-opacity="1" shape-rendering="auto" fill="black" stroke-dasharray="none" font-weight="normal" stroke-width="1" height="500" font-family="'Dialog'" font-style="normal" stroke-linejoin="miter" font-size="12" stroke-dashoffset="0" image-rendering="auto">
  <!--Generated by ySVG-->
  <defs id="genericDefs"/>
  <g>
    <g fill="white" transform="scale(0.8959,0.8959) translate(-115,-73)" stroke="white">
      <rect x="115" width="893" height="559" y="73" clip-path="url(#clipPath2)" stroke="none"/>
    </g>
    <g fill="url(#linearGradient1)" stroke-miterlimit="1.45" transform="matrix(0.8959,0,0,0.8959,-103.0235,-65.3975)" stroke-linecap="butt" stroke="url(#linearGradient1)">
      <path d="M367.275 381 L447.275 381 L447.275 421 L367.275 421 Z" clip-path="url(#clipPath2)" stroke="none"/>
      <path fill="none" d="M367.275 381 L447.275 381 L447.275 421 L367.275 421 Z" clip-path="url(#clipPath2)" stroke="black"/>
      <text x="384.7603" y="398.1699" clip-path="url(#clipPath2)" fill="black" font-family="sans-serif" stroke="none" xml:space="preserve">5V LDO</text>
      <text x="377.9693" y="412.1387" clip-path="url(#clipPath2)" fill="black" font-family="sans-serif" stroke="none" xml:space="preserve">Regulator</text>
    </g>
    <g fill="url(#linearGradient2)" stroke-miterlimit="1.45" transform="matrix(0.8959,0,0,0.8959,-103.0235,-65.3975)" stroke-linecap="butt" stroke="url(#linearGradient2)">
      <path d="M367.275 254 L447.275 254 L447.275 294 L367.275 294 Z" clip-path="url(#clipPath2)" stroke="none"/>
      <path fill="none" d="M367.275 254 L447.275 254 L447.275 294 L367.275 294 Z" clip-path="url(#clipPath2)" stroke="black"/>
      <text x="375.0484" y="271.1699" clip-path="url(#clipPath2)" fill="black" font-family="sans-serif" stroke="none" xml:space="preserve">Resettable</text>
      <text x="383.3746" y="285.1387" clip-path="url(#clipPath2)" fill="black" font-family="sans-serif" stroke="none" xml:space="preserve">1A Fuse</text>
    </g>
    <g fill="url(#linearGradient3)" stroke-miterlimit="1.45" transform="matrix(0.8959,0,0,0.8959,-103.0235,-65.3975)" stroke-linecap="butt" stroke="url(#linearGradient3)">
      <path d="M616 254 L696 254 L696 294 L616 294 Z" clip-path="url(#clipPath2)" stroke="none"/>
      <path fill="none" d="M616 254 L696 254 L696 294 L616 294 Z" clip-path="url(#clipPath2)" stroke="black"/>
      <text x="628.7393" y="271.1699" clip-path="url(#clipPath2)" fill="black" font-family="sans-serif" stroke="none" xml:space="preserve">USB OTG</text>
      <text x="643.8916" y="285.1387" clip-path="url(#clipPath2)" fill="black" font-family="sans-serif" stroke="none" xml:space="preserve">Port</text>
    </g>
    <g fill="url(#linearGradient4)" stroke-miterlimit="1.45" transform="matrix(0.8959,0,0,0.8959,-103.0235,-65.3975)" stroke-linecap="butt" stroke="url(#linearGradient4)">
      <path d="M494.4 381 L574.4 381 L574.4 421 L494.4 421 Z" clip-path="url(#clipPath2)" stroke="none"/>
      <path fill="none" d="M494.4 381 L574.4 381 L574.4 421 L494.4 421 Z" clip-path="url(#clipPath2)" stroke="black"/>
      <text x="506.1607" y="398.1699" clip-path="url(#clipPath2)" fill="black" font-family="sans-serif" stroke="none" xml:space="preserve">3.3V LDO</text>
      <text x="505.0943" y="412.1387" clip-path="url(#clipPath2)" fill="black" font-family="sans-serif" stroke="none" xml:space="preserve">Regulator</text>
    </g>
    <g fill="url(#linearGradient5)" stroke-miterlimit="1.45" transform="matrix(0.8959,0,0,0.8959,-103.0235,-65.3975)" stroke-linecap="butt" stroke="url(#linearGradient5)">
      <path d="M616 367 L824 367 L824 541 L616 541 Z" clip-path="url(#clipPath2)" stroke="none"/>
      <path fill="none" d="M616 367 L824 367 L824 541 L616 541 Z" clip-path="url(#clipPath2)" stroke="black"/>
      <text x="693.5801" y="451.1699" clip-path="url(#clipPath2)" fill="black" font-family="sans-serif" stroke="none" xml:space="preserve">LPC1769</text>
      <text x="674.3936" y="465.1387" clip-path="url(#clipPath2)" fill="black" font-family="sans-serif" stroke="none" xml:space="preserve">Microprocessor</text>
    </g>
    <g fill="url(#linearGradient6)" stroke-miterlimit="1.45" transform="matrix(0.8959,0,0,0.8959,-103.0235,-65.3975)" stroke-linecap="butt" stroke="url(#linearGradient6)">
      <path d="M744 576.6667 L824 576.6667 L824 616.6667 L744 616.6667 Z" clip-path="url(#clipPath2)" stroke="none"/>
      <path fill="none" d="M744 576.6667 L824 576.6667 L824 616.6667 L744 616.6667 Z" clip-path="url(#clipPath2)" stroke="black"/>
      <text x="769.8115" y="600.821" clip-path="url(#clipPath2)" fill="black" font-family="sans-serif" stroke="none" xml:space="preserve">JTAG</text>
    </g>
    <g fill="url(#linearGradient7)" stroke-miterlimit="1.45" transform="matrix(0.8959,0,0,0.8959,-103.0235,-65.3975)" stroke-linecap="butt" stroke="url(#linearGradient7)">
      <path d="M447.275 501 L527.275 501 L527.275 541 L447.275 541 Z" clip-path="url(#clipPath2)" stroke="none"/>
      <path fill="none" d="M447.275 501 L527.275 501 L527.275 541 L447.275 541 Z" clip-path="url(#clipPath2)" stroke="black"/>
      <text x="474.4928" y="518.1699" clip-path="url(#clipPath2)" fill="black" font-family="sans-serif" stroke="none" xml:space="preserve">CAN</text>
      <text x="456.6305" y="532.1387" clip-path="url(#clipPath2)" fill="black" font-family="sans-serif" stroke="none" xml:space="preserve">Channel A</text>
    </g>
    <g fill="url(#linearGradient8)" stroke-miterlimit="1.45" transform="matrix(0.8959,0,0,0.8959,-103.0235,-65.3975)" stroke-linecap="butt" stroke="url(#linearGradient8)">
      <path d="M447.275 461 L527.275 461 L527.275 501 L447.275 501 Z" clip-path="url(#clipPath2)" stroke="none"/>
      <path fill="none" d="M447.275 461 L527.275 461 L527.275 501 L447.275 501 Z" clip-path="url(#clipPath2)" stroke="black"/>
      <text x="474.4928" y="478.1699" clip-path="url(#clipPath2)" fill="black" font-family="sans-serif" stroke="none" xml:space="preserve">CAN</text>
      <text x="456.6187" y="492.1387" clip-path="url(#clipPath2)" fill="black" font-family="sans-serif" stroke="none" xml:space="preserve">Channel B</text>
    </g>
    <g fill="url(#linearGradient9)" stroke-miterlimit="1.45" transform="matrix(0.8959,0,0,0.8959,-103.0235,-65.3975)" stroke-linecap="butt" stroke="url(#linearGradient9)">
      <path d="M744 254 L824 254 L824 294 L744 294 Z" clip-path="url(#clipPath2)" stroke="none"/>
      <path fill="none" d="M744 254 L824 254 L824 294 L744 294 Z" clip-path="url(#clipPath2)" stroke="black"/>
      <text x="767.708" y="271.1699" clip-path="url(#clipPath2)" fill="black" font-family="sans-serif" stroke="none" xml:space="preserve">RN41</text>
      <text x="754.873" y="285.1387" clip-path="url(#clipPath2)" fill="black" font-family="sans-serif" stroke="none" xml:space="preserve">Bluetooth</text>
    </g>
    <g fill="url(#linearGradient10)" stroke-miterlimit="1.45" transform="matrix(0.8959,0,0,0.8959,-103.0235,-65.3975)" stroke-linecap="butt" stroke="url(#linearGradient10)">
      <path d="M616 576.6667 L696 576.6667 L696 616.6667 L616 616.6667 Z" clip-path="url(#clipPath2)" stroke="none"/>
      <path fill="none" d="M616 576.6667 L696 576.6667 L696 616.6667 L616 616.6667 Z" clip-path="url(#clipPath2)" stroke="black"/>
      <text x="633.6084" y="593.8366" clip-path="url(#clipPath2)" fill="black" font-family="sans-serif" stroke="none" xml:space="preserve">ISP and</text>
      <text x="622.2529" y="607.8054" clip-path="url(#clipPath2)" fill="black" font-family="sans-serif" stroke="none" xml:space="preserve">Debug Port</text>
    </g>
    <g fill="url(#linearGradient11)" stroke-miterlimit="1.45" transform="matrix(0.8959,0,0,0.8959,-103.0235,-65.3975)" stroke-linecap="butt" stroke="url(#linearGradient11)">
      <path d="M367.275 461 L447.275 461 L447.275 541 L367.275 541 Z" clip-path="url(#clipPath2)" stroke="none"/>
      <path fill="none" d="M367.275 461 L447.275 461 L447.275 541 L367.275 541 Z" clip-path="url(#clipPath2)" stroke="black"/>
      <text x="378.8014" y="491.1855" clip-path="url(#clipPath2)" fill="black" font-family="sans-serif" stroke="none" xml:space="preserve">TJA1048T</text>
      <text x="378.8189" y="505.1543" clip-path="url(#clipPath2)" fill="black" font-family="sans-serif" stroke="none" xml:space="preserve">Dual CAN</text>
      <text x="372.1715" y="519.123" clip-path="url(#clipPath2)" fill="black" font-family="sans-serif" stroke="none" xml:space="preserve">Transceiver</text>
    </g>
    <g fill="url(#linearGradient12)" stroke-miterlimit="1.45" transform="matrix(0.8959,0,0,0.8959,-103.0235,-65.3975)" stroke-linecap="butt" stroke="url(#linearGradient12)">
      <path d="M130.4273 381 L210.4273 381 L210.4273 541 L130.4273 541 Z" clip-path="url(#clipPath2)" stroke="none"/>
      <path fill="none" d="M130.4273 381 L210.4273 381 L210.4273 541 L130.4273 541 Z" clip-path="url(#clipPath2)" stroke="black"/>
      <text x="148.5045" y="451.1855" clip-path="url(#clipPath2)" fill="black" font-family="sans-serif" stroke="none" xml:space="preserve">Vehicle</text>
      <text x="138.7369" y="465.1543" clip-path="url(#clipPath2)" fill="black" font-family="sans-serif" stroke="none" xml:space="preserve">Diagnostic</text>
      <text x="158.3189" y="479.123" clip-path="url(#clipPath2)" fill="black" font-family="sans-serif" stroke="none" xml:space="preserve">Port</text>
    </g>
    <g fill="url(#linearGradient13)" stroke-miterlimit="1.45" transform="matrix(0.8959,0,0,0.8959,-103.0235,-65.3975)" stroke-linecap="butt" stroke="url(#linearGradient13)">
      <path d="M210.4273 381 L290.4273 381 L290.4273 421 L210.4273 421 Z" clip-path="url(#clipPath2)" stroke="none"/>
      <path fill="none" d="M210.4273 381 L290.4273 381 L290.4273 421 L210.4273 421 Z" clip-path="url(#clipPath2)" stroke="black"/>
      <text x="233.6607" y="398.1699" clip-path="url(#clipPath2)" fill="black" font-family="sans-serif" stroke="none" xml:space="preserve">+12V</text>
      <text x="232.0728" y="412.1387" clip-path="url(#clipPath2)" fill="black" font-family="sans-serif" stroke="none" xml:space="preserve">Power</text>
    </g>
    <g fill="url(#linearGradient14)" stroke-miterlimit="1.45" transform="matrix(0.8959,0,0,0.8959,-103.0235,-65.3975)" stroke-linecap="butt" stroke="url(#linearGradient14)">
      <path d="M210.4273 501 L290.4273 501 L290.4273 541 L210.4273 541 Z" clip-path="url(#clipPath2)" stroke="none"/>
      <path fill="none" d="M210.4273 501 L290.4273 501 L290.4273 541 L210.4273 541 Z" clip-path="url(#clipPath2)" stroke="black"/>
      <text x="218.7369" y="518.1699" clip-path="url(#clipPath2)" fill="black" font-family="sans-serif" stroke="none" xml:space="preserve">Diagnostic</text>
      <text x="236.6373" y="532.1387" clip-path="url(#clipPath2)" fill="black" font-family="sans-serif" stroke="none" xml:space="preserve">High</text>
    </g>
    <g fill="url(#linearGradient15)" stroke-miterlimit="1.45" transform="matrix(0.8959,0,0,0.8959,-103.0235,-65.3975)" stroke-linecap="butt" stroke="url(#linearGradient15)">
      <path d="M210.4273 461 L290.4273 461 L290.4273 501 L210.4273 501 Z" clip-path="url(#clipPath2)" stroke="none"/>
      <path fill="none" d="M210.4273 461 L290.4273 461 L290.4273 501 L210.4273 501 Z" clip-path="url(#clipPath2)" stroke="black"/>
      <text x="218.7369" y="478.1699" clip-path="url(#clipPath2)" fill="black" font-family="sans-serif" stroke="none" xml:space="preserve">Diagnostic</text>
      <text x="226.4361" y="492.1387" clip-path="url(#clipPath2)" fill="black" font-family="sans-serif" stroke="none" xml:space="preserve">Medium</text>
    </g>
    <g fill="url(#linearGradient16)" stroke-miterlimit="1.45" transform="matrix(0.8959,0,0,0.8959,-103.0235,-65.3975)" stroke-linecap="butt" stroke="url(#linearGradient16)">
      <path d="M210.4273 421 L290.4273 421 L290.4273 461 L210.4273 461 Z" clip-path="url(#clipPath2)" stroke="none"/>
      <path fill="none" d="M210.4273 421 L290.4273 421 L290.4273 461 L210.4273 461 Z" clip-path="url(#clipPath2)" stroke="black"/>
      <text x="217.0728" y="445.1543" clip-path="url(#clipPath2)" fill="black" font-family="sans-serif" stroke="none" xml:space="preserve">Multimedia</text>
    </g>
    <g fill="url(#linearGradient17)" stroke-miterlimit="1.45" transform="matrix(0.8959,0,0,0.8959,-103.0235,-65.3975)" stroke-linecap="butt" stroke="url(#linearGradient17)">
      <path d="M912.725 254 L992.725 254 L992.725 294 L912.725 294 Z" clip-path="url(#clipPath2)" stroke="none"/>
      <path fill="none" d="M912.725 254 L992.725 254 L992.725 294 L912.725 294 Z" clip-path="url(#clipPath2)" stroke="black"/>
      <text x="923.598" y="271.1699" clip-path="url(#clipPath2)" fill="black" font-family="sans-serif" stroke="none" xml:space="preserve">Bluetooth</text>
      <text x="919.9447" y="285.1387" clip-path="url(#clipPath2)" fill="black" font-family="sans-serif" stroke="none" xml:space="preserve">Status LED</text>
    </g>
    <g fill="url(#linearGradient18)" stroke-miterlimit="1.45" transform="matrix(0.8959,0,0,0.8959,-103.0235,-65.3975)" stroke-linecap="butt" stroke="url(#linearGradient18)">
      <path d="M912.725 367 L992.725 367 L992.725 407 L912.725 407 Z" clip-path="url(#clipPath2)" stroke="none"/>
      <path fill="none" d="M912.725 367 L992.725 367 L992.725 407 L912.725 407 Z" clip-path="url(#clipPath2)" stroke="black"/>
      <text x="939.1605" y="384.1699" clip-path="url(#clipPath2)" fill="black" font-family="sans-serif" stroke="none" xml:space="preserve">Prog</text>
      <text x="932.6273" y="398.1387" clip-path="url(#clipPath2)" fill="black" font-family="sans-serif" stroke="none" xml:space="preserve">Button</text>
    </g>
    <g fill="url(#linearGradient19)" stroke-miterlimit="1.45" transform="matrix(0.8959,0,0,0.8959,-103.0235,-65.3975)" stroke-linecap="butt" stroke="url(#linearGradient19)">
      <path d="M912.725 434 L992.725 434 L992.725 474 L912.725 474 Z" clip-path="url(#clipPath2)" stroke="none"/>
      <path fill="none" d="M912.725 434 L992.725 434 L992.725 474 L912.725 474 Z" clip-path="url(#clipPath2)" stroke="black"/>
      <text x="935.6947" y="451.1699" clip-path="url(#clipPath2)" fill="black" font-family="sans-serif" stroke="none" xml:space="preserve">Reset</text>
      <text x="932.6273" y="465.1387" clip-path="url(#clipPath2)" fill="black" font-family="sans-serif" stroke="none" xml:space="preserve">Button</text>
    </g>
    <g fill="url(#linearGradient20)" stroke-miterlimit="1.45" transform="matrix(0.8959,0,0,0.8959,-103.0235,-65.3975)" stroke-linecap="butt" stroke="url(#linearGradient20)">
      <path d="M912.725 501 L992.725 501 L992.725 541 L912.725 541 Z" clip-path="url(#clipPath2)" stroke="none"/>
      <path fill="none" d="M912.725 501 L992.725 501 L992.725 541 L912.725 541 Z" clip-path="url(#clipPath2)" stroke="black"/>
      <text x="930.515" y="518.1699" clip-path="url(#clipPath2)" fill="black" font-family="sans-serif" stroke="none" xml:space="preserve">2x RGB</text>
      <text x="937.8451" y="532.1387" clip-path="url(#clipPath2)" fill="black" font-family="sans-serif" stroke="none" xml:space="preserve">LEDs</text>
    </g>
    <g fill="url(#linearGradient21)" stroke-miterlimit="1.45" transform="matrix(0.8959,0,0,0.8959,-103.0235,-65.3975)" stroke-linecap="butt" stroke="url(#linearGradient21)">
      <path d="M210.4273 254.6066 L290.4273 254.6066 L290.4273 294.6067 L210.4273 294.6067 Z" clip-path="url(#clipPath2)" stroke="none"/>
      <path fill="none" d="M210.4273 254.6066 L290.4273 254.6066 L290.4273 294.6067 L210.4273 294.6067 Z" clip-path="url(#clipPath2)" stroke="black"/>
      <text x="235.3629" y="271.7766" clip-path="url(#clipPath2)" fill="black" font-family="sans-serif" stroke="none" xml:space="preserve">Dock</text>
      <text x="210.3287" y="285.7453" clip-path="url(#clipPath2)" fill="black" font-family="sans-serif" stroke="none" xml:space="preserve">Power Switch</text>
    </g>
    <g transform="matrix(1.853,0,0,1.853,479.3362,13.4315)">
      <g clip-path="url(#clipPath3)">
        <svg xmlns:a="http://ns.adobe.com/AdobeSVGViewerExtensions/3.0/" xml:space="preserve" opacity="1" margin-top="0" indent="0" writing-mode="lr-tb" stop-color="rgb(0, 0, 0)" shape-rendering="auto" glyph-orientation-horizontal="0deg" color-profile="auto" lighting-color="rgb(255, 255, 255)" color="rgb(0, 0, 0)" font-weight="400" alignment-baseline="auto" font-style="normal" version="1.1" color-interpolation-filters="linearrgb" text-anchor="start" stroke-linecap="butt" color-interpolation="srgb" font-variant="normal" margin-left="0" solid-color="rgb(0, 0, 0)" word-spacing="normal" fill-opacity="1" text-rendering="auto" clip-path="none" text-decoration="none" letter-spacing="normal" viewBox="-0.064 -0.075 68 46" glyph-orientation-vertical="auto" margin-right="0" display="inline" font-size-adjust="none" margin-bottom="0" overflow="visible" fill="rgb(0, 0, 0)" font-stretch="normal" stroke-dasharray="none" stroke-miterlimit="4" stop-opacity="1" color-rendering="auto" font-size="12" pointer-events="visiblepainted" mask="none" direction="ltr" baseline-shift="baseline" enable-background="new -0.064 -0.075 68 46" fill-rule="nonzero" image-rendering="auto" solid-opacity="1" stroke-dashoffset="0" width="68px" marker-end="none" clip="auto" cursor="auto" stroke="none" filter="none" visibility="visible" kerning="auto" stroke-width="1" font-family="&quot;Arial&quot;,&quot;Helvetica&quot;,sans-serif" flood-opacity="1" clip-rule="nonzero" src="none" height="46px" text-align="inherit" line-height="normal" unicode-bidi="normal" stroke-linejoin="miter" stroke-opacity="1" flood-color="rgb(0, 0, 0)" dominant-baseline="auto" marker-start="none" x="0px" marker-mid="none" y="0px">
<defs>
<linearGradient x1="367.275" gradientUnits="userSpaceOnUse" x2="447.275" y1="381" y2="421" id="linearGradient1" spreadMethod="pad">
              <stop stop-opacity="1" stop-color="rgb(232,238,247)" offset="0%"/>
              <stop stop-opacity="1" stop-color="rgb(183,201,227)" offset="100%"/>
            </linearGradient>
            <linearGradient x1="367.275" gradientUnits="userSpaceOnUse" x2="447.275" y1="254" y2="294" id="linearGradient2" spreadMethod="pad">
              <stop stop-opacity="1" stop-color="rgb(232,238,247)" offset="0%"/>
              <stop stop-opacity="1" stop-color="rgb(183,201,227)" offset="100%"/>
            </linearGradient>
            <linearGradient x1="616" gradientUnits="userSpaceOnUse" x2="696" y1="254" y2="294" id="linearGradient3" spreadMethod="pad">
              <stop stop-opacity="1" stop-color="rgb(232,238,247)" offset="0%"/>
              <stop stop-opacity="1" stop-color="rgb(183,201,227)" offset="100%"/>
            </linearGradient>
            <linearGradient x1="494.4" gradientUnits="userSpaceOnUse" x2="574.4" y1="381" y2="421" id="linearGradient4" spreadMethod="pad">
              <stop stop-opacity="1" stop-color="rgb(232,238,247)" offset="0%"/>
              <stop stop-opacity="1" stop-color="rgb(183,201,227)" offset="100%"/>
            </linearGradient>
            <linearGradient x1="616" gradientUnits="userSpaceOnUse" x2="824" y1="367" y2="541" id="linearGradient5" spreadMethod="pad">
              <stop stop-opacity="1" stop-color="rgb(232,238,247)" offset="0%"/>
              <stop stop-opacity="1" stop-color="rgb(183,201,227)" offset="100%"/>
            </linearGradient>
            <linearGradient x1="744" gradientUnits="userSpaceOnUse" x2="824" y1="576.6667" y2="616.6667" id="linearGradient6" spreadMethod="pad">
              <stop stop-opacity="1" stop-color="rgb(232,238,247)" offset="0%"/>
              <stop stop-opacity="1" stop-color="rgb(183,201,227)" offset="100%"/>
            </linearGradient>
            <linearGradient x1="447.275" gradientUnits="userSpaceOnUse" x2="527.275" y1="501" y2="541" id="linearGradient7" spreadMethod="pad">
              <stop stop-opacity="1" stop-color="rgb(232,238,247)" offset="0%"/>
              <stop stop-opacity="1" stop-color="rgb(183,201,227)" offset="100%"/>
            </linearGradient>
            <linearGradient x1="447.275" gradientUnits="userSpaceOnUse" x2="527.275" y1="461" y2="501" id="linearGradient8" spreadMethod="pad">
              <stop stop-opacity="1" stop-color="rgb(232,238,247)" offset="0%"/>
              <stop stop-opacity="1" stop-color="rgb(183,201,227)" offset="100%"/>
            </linearGradient>
            <linearGradient x1="744" gradientUnits="userSpaceOnUse" x2="824" y1="254" y2="294" id="linearGradient9" spreadMethod="pad">
              <stop stop-opacity="1" stop-color="rgb(232,238,247)" offset="0%"/>
              <stop stop-opacity="1" stop-color="rgb(183,201,227)" offset="100%"/>
            </linearGradient>
            <linearGradient x1="616" gradientUnits="userSpaceOnUse" x2="696" y1="576.6667" y2="616.6667" id="linearGradient10" spreadMethod="pad">
              <stop stop-opacity="1" stop-color="rgb(232,238,247)" offset="0%"/>
              <stop stop-opacity="1" stop-color="rgb(183,201,227)" offset="100%"/>
            </linearGradient>
            <linearGradient x1="367.275" gradientUnits="userSpaceOnUse" x2="447.275" y1="461" y2="541" id="linearGradient11" spreadMethod="pad">
              <stop stop-opacity="1" stop-color="rgb(232,238,247)" offset="0%"/>
              <stop stop-opacity="1" stop-color="rgb(183,201,227)" offset="100%"/>
            </linearGradient>
            <linearGradient x1="130.4273" gradientUnits="userSpaceOnUse" x2="210.4273" y1="381" y2="541" id="linearGradient12" spreadMethod="pad">
              <stop stop-opacity="1" stop-color="rgb(232,238,247)" offset="0%"/>
              <stop stop-opacity="1" stop-color="rgb(183,201,227)" offset="100%"/>
            </linearGradient>
            <linearGradient x1="210.4273" gradientUnits="userSpaceOnUse" x2="290.4273" y1="381" y2="421" id="linearGradient13" spreadMethod="pad">
              <stop stop-opacity="1" stop-color="rgb(232,238,247)" offset="0%"/>
              <stop stop-opacity="1" stop-color="rgb(183,201,227)" offset="100%"/>
            </linearGradient>
            <linearGradient x1="210.4273" gradientUnits="userSpaceOnUse" x2="290.4273" y1="501" y2="541" id="linearGradient14" spreadMethod="pad">
              <stop stop-opacity="1" stop-color="rgb(232,238,247)" offset="0%"/>
              <stop stop-opacity="1" stop-color="rgb(183,201,227)" offset="100%"/>
            </linearGradient>
            <linearGradient x1="210.4273" gradientUnits="userSpaceOnUse" x2="290.4273" y1="461" y2="501" id="linearGradient15" spreadMethod="pad">
              <stop stop-opacity="1" stop-color="rgb(232,238,247)" offset="0%"/>
              <stop stop-opacity="1" stop-color="rgb(183,201,227)" offset="100%"/>
            </linearGradient>
            <linearGradient x1="210.4273" gradientUnits="userSpaceOnUse" x2="290.4273" y1="421" y2="461" id="linearGradient16" spreadMethod="pad">
              <stop stop-opacity="1" stop-color="rgb(232,238,247)" offset="0%"/>
              <stop stop-opacity="1" stop-color="rgb(183,201,227)" offset="100%"/>
            </linearGradient>
            <linearGradient x1="912.725" gradientUnits="userSpaceOnUse" x2="992.725" y1="254" y2="294" id="linearGradient17" spreadMethod="pad">
              <stop stop-opacity="1" stop-color="rgb(232,238,247)" offset="0%"/>
              <stop stop-opacity="1" stop-color="rgb(183,201,227)" offset="100%"/>
            </linearGradient>
            <linearGradient x1="912.725" gradientUnits="userSpaceOnUse" x2="992.725" y1="367" y2="407" id="linearGradient18" spreadMethod="pad">
              <stop stop-opacity="1" stop-color="rgb(232,238,247)" offset="0%"/>
              <stop stop-opacity="1" stop-color="rgb(183,201,227)" offset="100%"/>
            </linearGradient>
            <linearGradient x1="912.725" gradientUnits="userSpaceOnUse" x2="992.725" y1="434" y2="474" id="linearGradient19" spreadMethod="pad">
              <stop stop-opacity="1" stop-color="rgb(232,238,247)" offset="0%"/>
              <stop stop-opacity="1" stop-color="rgb(183,201,227)" offset="100%"/>
            </linearGradient>
            <linearGradient x1="912.725" gradientUnits="userSpaceOnUse" x2="992.725" y1="501" y2="541" id="linearGradient20" spreadMethod="pad">
              <stop stop-opacity="1" stop-color="rgb(232,238,247)" offset="0%"/>
              <stop stop-opacity="1" stop-color="rgb(183,201,227)" offset="100%"/>
            </linearGradient>
            <linearGradient x1="210.4273" gradientUnits="userSpaceOnUse" x2="290.4273" y1="254.6066" y2="294.6066" id="linearGradient21" spreadMethod="pad">
              <stop stop-opacity="1" stop-color="rgb(232,238,247)" offset="0%"/>
              <stop stop-opacity="1" stop-color="rgb(183,201,227)" offset="100%"/>
            </linearGradient>
            <clipPath clipPathUnits="userSpaceOnUse" id="clipPath1">
              <path d="M0 0 L800 0 L800 500 L0 500 L0 0 Z"/>
            </clipPath>
            <clipPath clipPathUnits="userSpaceOnUse" id="clipPath2">
              <path d="M115 73 L1008 73 L1008 631.125 L115 631.125 L115 73 Z"/>
            </clipPath>
            <clipPath clipPathUnits="userSpaceOnUse" id="clipPath3">
              <path d="M-258.6746 -7.2483 L173.0468 -7.2483 L173.0468 262.5775 L-258.6746 262.5775 L-258.6746 -7.2483 Z"/>
            </clipPath>
            <clipPath clipPathUnits="userSpaceOnUse" id="clipPath4">
              <path d="M-64.6362 -11.4507 L241.5495 -11.4507 L241.5495 179.9153 L-64.6362 179.9153 L-64.6362 -11.4507 Z"/>
            </clipPath>
          </defs>
<radialGradient gradientTransform="matrix(1.15 0 0 1 -526.6598 -1982.4023)" gradientUnits="userSpaceOnUse" r="21.6001" cx="478.8413" id="svg1.SVGID_1_" cy="1991.2729" xml:id="svg1.SVGID_1_">
	<stop offset="0" style="stop-color:#F2F2F2"/>
	<stop offset="1" style="stop-color:#8D8D8D"/>
</radialGradient>
<path fill="url(#svg1.SVGID_1_)" d="M10.263,1.903c0-0.987,0.807-1.794,1.794-1.794h43.279c0.986,0,1.795,0.807,1.795,1.794v26.978  c0,0.987-0.809,1.794-1.795,1.794h-43.28c-0.987,0-1.794-0.807-1.794-1.794L10.263,1.903L10.263,1.903z"/>
<path stroke-linecap="round" display="none" fill="none" stroke-linejoin="round" d="  M10.263,1.903c0-0.987,0.807-1.794,1.794-1.794h43.279c0.986,0,1.795,0.807,1.795,1.794v26.978c0,0.987-0.809,1.794-1.795,1.794  h-43.28c-0.987,0-1.794-0.807-1.794-1.794L10.263,1.903L10.263,1.903z" stroke="#3C89C9" stroke-width="0.2185" stroke-miterlimit="10"/>
<radialGradient gradientTransform="matrix(1.1935 0 0 1 -509.6731 -1982.4023)" gradientUnits="userSpaceOnUse" r="47.8462" cx="455.894" cy="1983.9624" id="svg1.SVGID_2_" fx="493.5344" fy="1977.5143" xml:id="svg1.SVGID_2_">
	<stop offset="0" style="stop-color:#4D4D4D"/>
	<stop offset="1" style="stop-color:#999999"/>
</radialGradient>
<path fill="url(#svg1.SVGID_2_)" d="M11.18,2.819c0-0.987,0.807-1.794,1.794-1.794h41.649c0.986,0,1.795,0.807,1.795,1.794v24.943  c0,0.985-0.809,1.794-1.795,1.794H12.974c-0.987,0-1.794-0.809-1.794-1.794V2.819z"/>
<radialGradient gradientTransform="matrix(1.1923 0 0 1 -510.1314 -1982.4023)" gradientUnits="userSpaceOnUse" r="30.6699" cx="456.8843" id="svg1.SVGID_3_" cy="1984.0386" xml:id="svg1.SVGID_3_">
	<stop offset="0" style="stop-color:#9CD7FF"/>
	<stop offset="1" style="stop-color:#3C89C9"/>
</radialGradient>
<path fill="url(#svg1.SVGID_3_)" d="M11.689,3.228c0-0.987,0.807-1.794,1.794-1.794h40.633c0.986,0,1.795,0.807,1.795,1.794v24.126  c0,0.986-0.809,1.794-1.795,1.794H13.483c-0.987,0-1.794-0.809-1.794-1.794V3.228z"/>
<path fill="#F2F2F2" opacity="0.24" d="M11.689,21.472V3.228c0-0.987,0.807-1.794,1.794-1.794h40.633  c0.986,0,1.795,0.807,1.795,1.794v9.454c0,0.987-10.518,5.21-18.256,6.795C29.917,21.062,11.689,21.472,11.689,21.472z"/>
<linearGradient gradientTransform="matrix(1 0 0 -1 -97.6001 -165.0498)" x1="131.3501" x2="131.3501" gradientUnits="userSpaceOnUse" y1="-212.2612" y2="-170.6274" id="svg1.SVGID_4_" xml:id="svg1.SVGID_4_">
	<stop offset="0" style="stop-color:#4D4D4D"/>
	<stop offset="0.0667" style="stop-color:#717171"/>
	<stop offset="0.069" style="stop-color:#757575"/>
	<stop offset="0.0831" style="stop-color:#8C8C8C"/>
	<stop offset="0.0996" style="stop-color:#9E9E9E"/>
	<stop offset="0.1196" style="stop-color:#AAAAAA"/>
	<stop offset="0.1466" style="stop-color:#B1B1B1"/>
	<stop offset="0.2121" style="stop-color:#B3B3B3"/>
	<stop offset="1" style="stop-color:#C5C5C5"/>
</linearGradient>
<path fill="url(#svg1.SVGID_4_)" d="M58.385,32.234c-0.689-0.856-2.154-1.559-3.254-1.559H12c-1.1,0-2.552,0.711-3.227,1.579  l-7.546,9.717C0,43.55,0.042,43.785,0,44.55v0.125c0.056,0.393,0.311,1.002,1.248,1.002h64.75c0.75,0.002,1.5-0.252,1.5-1.002V44.55  c0-0.813,0-0.813-1.254-2.559L58.385,32.234z"/>
<path fill="#F2F2F2" d="M58.385,32.234c-0.689-0.856-2.154-1.559-3.254-1.559H12  c-1.1,0-2.552,0.711-3.227,1.579l-7.055,9.085l58.098-7.33L58.385,32.234z" enable-background="new    " opacity="0.23"/>
<path fill="#6E6E6E" d="M59.75,37.205c0.344,0.431,0.172,0.783-0.377,0.783H8.249c-0.55,0-0.742-0.369-0.427-0.819l2.786-3.986  c0.315-0.45,1.023-0.819,1.573-0.819h42.729c0.551,0,1.279,0.354,1.623,0.783L59.75,37.205z"/>
<path fill="#6E6E6E" d="M40.43,41.906c0.072,0.217-0.057,0.395-0.285,0.395H26.727c-0.229,0-0.364-0.18-0.3-0.398l0.822-2.826  c0.064-0.221,0.303-0.399,0.532-0.399h11.167c0.229,0,0.475,0.179,0.547,0.396L40.43,41.906z"/>
</svg>
      </g>
    </g>
    <g stroke-miterlimit="1.45" font-family="sans-serif" transform="matrix(0.8959,0,0,0.8959,-103.0235,-65.3975)" stroke-linecap="butt">
      <text x="691.3096" xml:space="preserve" y="199.772" clip-path="url(#clipPath2)" stroke="none">Tablet/PC</text>
    </g>
    <g transform="matrix(2.6128,0,0,2.6128,168.881,29.9184)">
      <g clip-path="url(#clipPath4)">
        <svg xmlns:a="http://ns.adobe.com/AdobeSVGViewerExtensions/3.0/" xml:space="preserve" opacity="1" margin-top="0" indent="0" writing-mode="lr-tb" stop-color="rgb(0, 0, 0)" shape-rendering="auto" glyph-orientation-horizontal="0deg" color-profile="auto" lighting-color="rgb(255, 255, 255)" color="rgb(0, 0, 0)" font-weight="400" alignment-baseline="auto" font-style="normal" version="1.1" color-interpolation-filters="linearrgb" text-anchor="start" stroke-linecap="butt" color-interpolation="srgb" font-variant="normal" margin-left="0" solid-color="rgb(0, 0, 0)" word-spacing="normal" fill-opacity="1" text-rendering="auto" clip-path="none" text-decoration="none" letter-spacing="normal" viewBox="-0.998 -0.189 71 20" glyph-orientation-vertical="auto" margin-right="0" display="inline" font-size-adjust="none" margin-bottom="0" overflow="visible" fill="rgb(0, 0, 0)" font-stretch="normal" stroke-dasharray="none" stroke-miterlimit="4" stop-opacity="1" color-rendering="auto" font-size="12" pointer-events="visiblepainted" mask="none" direction="ltr" baseline-shift="baseline" enable-background="new -0.998 -0.189 71 20" fill-rule="nonzero" image-rendering="auto" solid-opacity="1" stroke-dashoffset="0" width="71px" marker-end="none" clip="auto" cursor="auto" stroke="none" filter="none" visibility="visible" kerning="auto" stroke-width="1" font-family="&quot;Arial&quot;,&quot;Helvetica&quot;,sans-serif" flood-opacity="1" clip-rule="nonzero" src="none" height="20px" text-align="inherit" line-height="normal" unicode-bidi="normal" stroke-linejoin="miter" stroke-opacity="1" flood-color="rgb(0, 0, 0)" dominant-baseline="auto" marker-start="none" x="0px" marker-mid="none" y="0px">
<defs>
</defs>
<linearGradient gradientTransform="matrix(1 0 0 -1 -97.6001 -245.2793)" x1="166.2588" x2="97.0793" gradientUnits="userSpaceOnUse" y1="-255.0679" y2="-255.0679" id="svg2.SVGID_1_" xml:id="svg2.SVGID_1_">
	<stop offset="0" style="stop-color:#6E6E6E"/>
	<stop offset="0.1059" style="stop-color:#707070"/>
	<stop offset="0.1647" style="stop-color:#787878"/>
	<stop offset="0.1939" style="stop-color:#808080"/>
	<stop offset="0.4146" style="stop-color:#838383"/>
	<stop offset="0.5499" style="stop-color:#8B8B8B"/>
	<stop offset="0.6622" style="stop-color:#999999"/>
	<stop offset="0.7614" style="stop-color:#AEAEAE"/>
	<stop offset="0.7818" style="stop-color:#B3B3B3"/>
</linearGradient>
<path fill="url(#svg2.SVGID_1_)" d="M67.531,7.236c0.005,0,0.017,0.002,0.017,0.002l-0.062-0.031c-0.027-0.015-0.055-0.027-0.082-0.041  l-11.06-5.477c-1.225-0.615-3.346-1.203-4.713-1.307c0,0-5.071-0.383-16.858-0.383C25.138,0,17.44,0.431,17.44,0.431  c-1.37,0.077-3.495,0.637-4.724,1.243L1.976,7.02h0.001C0.852,7.342,0,8.412,0,9.607v6.232c0,1.371,1.118,2.584,2.484,2.695  c0,0,12.681,1.037,32.001,1.043c19.943,0.006,32.001-1.031,32.001-1.031c1.365-0.118,2.481-1.336,2.481-2.707V9.607  C68.971,8.613,68.378,7.705,67.531,7.236z M34.96,5.869c-0.091,0-0.181,0-0.272,0c0.029,0,0.058,0,0.087,0  C34.837,5.869,34.898,5.869,34.96,5.869z M33.312,5.873c-0.047,0-0.094,0-0.141,0C33.218,5.873,33.265,5.873,33.312,5.873z"/>
<linearGradient gradientTransform="matrix(1 0 0 -1 -97.6001 -245.2793)" x1="161.5615" x2="102.6104" gradientUnits="userSpaceOnUse" y1="-258.8867" y2="-258.8867" id="svg2.SVGID_2_" xml:id="svg2.SVGID_2_">
	<stop offset="0" style="stop-color:#3C89C9"/>
	<stop offset="0.0948" style="stop-color:#579FD8"/>
	<stop offset="0.2096" style="stop-color:#70B3E6"/>
	<stop offset="0.338" style="stop-color:#84C3F1"/>
	<stop offset="0.4855" style="stop-color:#92CFF9"/>
	<stop offset="0.6692" style="stop-color:#9AD5FE"/>
	<stop offset="1" style="stop-color:#9CD7FF"/>
</linearGradient>
<path fill="url(#svg2.SVGID_2_)" stroke-width="0.3116" d="M62.746,9.363  c-0.643-0.209-18.186-0.222-28.259-0.222C26.25,9.142,6.7,9.177,6.7,9.177h0.001c-0.961,0.274-1.689,1.19-1.689,2.212v3.878  c0,1.172,0.956,2.209,2.124,2.304c0,0,10.837,0.498,27.351,0.504c17.047,0.004,27.355-0.494,27.355-0.494  c1.167-0.101,2.121-1.142,2.121-2.313V11.39C63.962,10.539,63.389,9.572,62.746,9.363z" stroke-miterlimit="10" stroke="#8D8D8D"/>
<path fill="#FFFFFF" d="M62.746,9.363c-0.643-0.209-18.186-0.222-28.259-0.222  C26.25,9.142,6.7,9.177,6.7,9.177h0.001c-0.961,0.274-1.689,1.19-1.689,2.212v3.878l58.95-2.039v-1.839  C63.962,10.539,63.389,9.572,62.746,9.363z" enable-background="new    " opacity="0.29"/>
<rect x="66.322" y="10.801" fill="#C8FF00" width="2.805" height="1.143" stroke="#717171" stroke-width="0.0623" stroke-miterlimit="10"/>
<polygon fill="#4D4D4D" stroke-width="0.3739" stroke-miterlimit="10" points="49.29,10.748 42.436,10.748   42.436,15.734 44.512,15.734 44.512,16.412 47.213,16.412 47.212,15.734 49.29,15.734 " stroke="#D9F1FF"/>
<polygon fill="#4D4D4D" stroke-width="0.3739" stroke-miterlimit="10" points="37.79,10.748 30.935,10.748   30.935,15.734 33.012,15.734 33.012,16.412 35.713,16.412 35.712,15.734 37.79,15.734 " stroke="#D9F1FF"/>
<polygon fill="#4D4D4D" stroke-width="0.3739" stroke-miterlimit="10" points="26.29,10.748 19.435,10.748   19.435,15.734 21.512,15.734 21.512,16.412 24.213,16.412 24.212,15.734 26.29,15.734 " stroke="#D9F1FF"/>
<polygon fill="#4D4D4D" stroke-width="0.3739" stroke-miterlimit="10" points="14.79,10.748 7.935,10.748   7.935,15.734 10.012,15.734 10.012,16.412 12.713,16.412 12.712,15.734 14.79,15.734 " stroke="#D9F1FF"/>
<polygon fill="#4D4D4D" stroke-width="0.3739" stroke-miterlimit="10" points="60.79,10.748 53.936,10.748   53.936,15.734 56.012,15.734 56.012,16.412 58.713,16.412 58.712,15.734 60.79,15.734 " stroke="#D9F1FF"/>
</svg>
      </g>
    </g>
    <g stroke-miterlimit="1.45" font-family="sans-serif" transform="matrix(0.8959,0,0,0.8959,-103.0235,-65.3975)" stroke-linecap="butt">
      <text x="364.0709" xml:space="preserve" y="181.2007" clip-path="url(#clipPath2)" stroke="none">Open XC Dock</text>
    </g>
    <g stroke-width="4" stroke-miterlimit="1.45" transform="matrix(0.8959,0,0,0.8959,-103.0235,-65.3975)" stroke-linecap="butt">
      <path fill="none" d="M407.275 370.0012 L407.275 304.9843" clip-path="url(#clipPath2)"/>
      <path d="M407.275 381.0012 L414.15 364.5012 L407.275 368.6262 L400.4 364.5012 Z" clip-path="url(#clipPath2)" stroke="none"/>
      <path d="M407.275 293.9843 L400.4 310.4843 L407.275 306.3593 L414.15 310.4843 Z" clip-path="url(#clipPath2)" stroke="none"/>
      <path fill="none" d="M458.2617 274 L605.0207 274" clip-path="url(#clipPath2)"/>
      <path d="M447.2617 274 L463.7617 280.875 L459.6367 274 L463.7617 267.125 Z" clip-path="url(#clipPath2)" stroke="none"/>
      <path d="M616.0207 274 L599.5207 267.125 L603.6457 274 L599.5207 280.875 Z" clip-path="url(#clipPath2)" stroke="none"/>
      <path fill="none" stroke-width="5" d="M447.2809 401 L482.3712 401" clip-path="url(#clipPath2)"/>
      <path stroke-width="5" d="M494.3712 401 L476.3712 393.5 L480.8712 401 L476.3712 408.5 Z" clip-path="url(#clipPath2)" stroke="none"/>
      <path fill="none" stroke-width="5" d="M574.3774 401 L603.9881 401" clip-path="url(#clipPath2)"/>
      <path stroke-width="5" d="M615.9881 401 L597.9881 393.5 L602.4881 401 L597.9881 408.5 Z" clip-path="url(#clipPath2)" stroke="none"/>
      <path fill="none" stroke-width="1" d="M656 302.0244 L656 358.9931" clip-path="url(#clipPath2)"/>
      <path stroke-width="1" d="M656 294.0244 L651 306.0244 L656 303.0244 L661 306.0244 Z" clip-path="url(#clipPath2)" stroke="none"/>
      <path stroke-width="1" d="M656 366.9931 L661 354.9931 L656 357.9931 L651 354.9931 Z" clip-path="url(#clipPath2)" stroke="none"/>
      <text x="627.3672" y="334.6543" clip-path="url(#clipPath2)" font-family="sans-serif" stroke="none" stroke-width="1" xml:space="preserve">USB</text>
      <path fill="none" stroke-width="1" d="M784 576.6426 L784 549.0231" clip-path="url(#clipPath2)"/>
      <path stroke-width="1" d="M784 541.0231 L779 553.0231 L784 550.0231 L789 553.0231 Z" clip-path="url(#clipPath2)" stroke="none"/>
      <text x="751.623" y="562.9876" clip-path="url(#clipPath2)" font-family="sans-serif" stroke="none" stroke-width="1" xml:space="preserve">JTAG</text>
      <path fill="none" stroke-width="1" d="M527.2891 521 L607.9807 521" clip-path="url(#clipPath2)"/>
      <path stroke-width="1" d="M615.9807 521 L603.9807 516 L606.9807 521 L603.9807 526 Z" clip-path="url(#clipPath2)" stroke="none"/>
      <text x="555.0379" y="514.1699" clip-path="url(#clipPath2)" font-family="sans-serif" stroke="none" stroke-width="1" xml:space="preserve">CAN1</text>
      <path fill="none" stroke-width="1" d="M527.2841 481 L607.9647 481" clip-path="url(#clipPath2)"/>
      <path stroke-width="1" d="M615.9647 481 L603.9647 476 L606.9647 481 L603.9647 486 Z" clip-path="url(#clipPath2)" stroke="none"/>
      <text x="555.0379" y="474.1699" clip-path="url(#clipPath2)" font-family="sans-serif" stroke="none" stroke-width="1" xml:space="preserve">CAN2</text>
      <path fill="none" stroke-width="1" d="M784 302.0214 L784 358.9793" clip-path="url(#clipPath2)"/>
      <path stroke-width="1" d="M784 294.0214 L779 306.0214 L784 303.0214 L789 306.0214 Z" clip-path="url(#clipPath2)" stroke="none"/>
      <path stroke-width="1" d="M784 366.9793 L789 354.9793 L784 357.9793 L779 354.9793 Z" clip-path="url(#clipPath2)" stroke="none"/>
      <text x="739.7051" y="334.6543" clip-path="url(#clipPath2)" font-family="sans-serif" stroke="none" stroke-width="1" xml:space="preserve">UART1</text>
      <path fill="none" stroke-width="1" d="M656 576.6829 L656 549.0189" clip-path="url(#clipPath2)"/>
      <path stroke-width="1" d="M656 541.0189 L651 553.0189 L656 550.0189 L661 553.0189 Z" clip-path="url(#clipPath2)" stroke="none"/>
      <text x="611.7051" y="562.9876" clip-path="url(#clipPath2)" font-family="sans-serif" stroke="none" stroke-width="1" xml:space="preserve">UART0</text>
      <path fill="none" stroke-width="5" d="M290.4434 401 L355.2567 401" clip-path="url(#clipPath2)"/>
      <path stroke-width="5" d="M367.2567 401 L349.2567 393.5 L353.7567 401 L349.2567 408.5 Z" clip-path="url(#clipPath2)" stroke="none"/>
      <path fill="none" stroke-width="1" d="M290.4409 521 L359.2455 521" clip-path="url(#clipPath2)"/>
      <path stroke-width="1" d="M367.2455 521 L355.2455 516 L358.2455 521 L355.2455 526 Z" clip-path="url(#clipPath2)" stroke="none"/>
      <path fill="none" stroke-width="1" d="M290.4212 481 L359.248 481" clip-path="url(#clipPath2)"/>
      <path stroke-width="1" d="M367.248 481 L355.248 476 L358.248 481 L355.248 486 Z" clip-path="url(#clipPath2)" stroke="none"/>
      <path fill="none" stroke-width="1" stroke-dasharray="6,2" d="M290.4474 441 L330.0786 441 L330.0786 481 L359.2777 481" clip-path="url(#clipPath2)"/>
      <path stroke-width="1" stroke-dasharray="6,2" d="M367.2777 481 L355.2777 476 L358.2777 481 L355.2777 486 Z" clip-path="url(#clipPath2)" stroke="none"/>
      <path fill="none" stroke-width="1" d="M823.998 274 L904.7178 274" clip-path="url(#clipPath2)"/>
      <path stroke-width="1" d="M912.7178 274 L900.7178 269 L903.7178 274 L900.7178 279 Z" clip-path="url(#clipPath2)" stroke="none"/>
      <path fill="none" stroke-width="1" d="M912.7076 387 L832.0085 387" clip-path="url(#clipPath2)"/>
      <path stroke-width="1" d="M824.0085 387 L836.0085 392 L833.0085 387 L836.0085 382 Z" clip-path="url(#clipPath2)" stroke="none"/>
      <text x="851.3849" y="380.1699" clip-path="url(#clipPath2)" font-family="sans-serif" stroke="none" stroke-width="1" xml:space="preserve">P2.12</text>
      <path fill="none" stroke-width="1" d="M912.697 454 L832.0168 454" clip-path="url(#clipPath2)"/>
      <path stroke-width="1" d="M824.0168 454 L836.0168 459 L833.0168 454 L836.0168 449 Z" clip-path="url(#clipPath2)" stroke="none"/>
      <text x="851.3322" y="447.1699" clip-path="url(#clipPath2)" font-family="sans-serif" stroke="none" stroke-width="1" xml:space="preserve">Reset</text>
      <path fill="none" stroke-width="1" d="M823.9983 521 L904.7179 521" clip-path="url(#clipPath2)"/>
      <path stroke-width="1" d="M912.7179 521 L900.7179 516 L903.7179 521 L900.7179 526 Z" clip-path="url(#clipPath2)" stroke="none"/>
      <text x="832.3859" y="514.1699" clip-path="url(#clipPath2)" font-family="sans-serif" stroke="none" stroke-width="1" xml:space="preserve">PWM1.1-1.6</text>
      <path fill="none" stroke-width="5" d="M250.4273 380.9733 L250.4273 306.6283" clip-path="url(#clipPath2)"/>
      <path stroke-width="5" d="M250.4273 294.6283 L242.9273 312.6283 L250.4273 308.1283 L257.9273 312.6283 Z" clip-path="url(#clipPath2)" stroke="none"/>
      <path fill="none" stroke-width="1" d="M615.9758 367.0271 L573.1254 331.2006 L363.4745 331.2006 L297.5173 298.181" clip-path="url(#clipPath2)"/>
      <path stroke-width="1" d="M290.3637 294.5997 L298.8558 304.4426 L298.4115 298.6286 L303.3324 295.5006 Z" clip-path="url(#clipPath2)" stroke="none"/>
      <text x="451.3224" y="324.3705" clip-path="url(#clipPath2)" font-family="sans-serif" stroke="none" stroke-width="1" xml:space="preserve">P2.13</text>
      <path fill="none" stroke-width="1" d="M662.671 246.1966 L676.0478 190.444" clip-path="url(#clipPath2)"/>
      <path stroke-width="1" d="M660.8045 253.9758 L668.4662 243.4736 L662.9043 245.2242 L658.7422 241.1405 Z" clip-path="url(#clipPath2)" stroke="none"/>
      <path stroke-width="1" d="M677.9142 182.6648 L670.2525 193.1671 L675.8145 191.4164 L679.9766 195.5002 Z" clip-path="url(#clipPath2)" stroke="none"/>
      <text x="638.5718" y="222.471" clip-path="url(#clipPath2)" font-family="sans-serif" stroke="none" stroke-width="1" xml:space="preserve">USB</text>
      <path fill="none" stroke-width="1" d="M776.8156 246.2265 L762.372 190.3903" clip-path="url(#clipPath2)"/>
      <path stroke-width="1" d="M778.8191 253.9715 L780.6545 241.1018 L776.5652 245.2583 L770.9732 243.6061 Z" clip-path="url(#clipPath2)" stroke="none"/>
      <path stroke-width="1" d="M760.3685 182.6452 L758.5331 195.515 L762.6224 191.3584 L768.2144 193.0106 Z" clip-path="url(#clipPath2)" stroke="none"/>
      <text x="771.4565" y="222.471" clip-path="url(#clipPath2)" font-family="sans-serif" stroke="none" stroke-width="1" xml:space="preserve">Bluetooth</text>
      <path fill="none" stroke-width="5" d="M261.5277 254.583 L307.4638 171.7203" clip-path="url(#clipPath2)"/>
      <path stroke-width="5" d="M313.2819 161.2251 L297.9952 173.3316 L306.7365 173.0322 L311.1142 180.6043 Z" clip-path="url(#clipPath2)" stroke="none"/>
      <path fill="none" stroke-width="1" d="M511.5957 166.3581 L609.869 249.048" clip-path="url(#clipPath2)"/>
      <path stroke-width="1" d="M505.4744 161.2074 L511.4372 172.7592 L512.3608 167.0019 L517.8755 165.1076 Z" clip-path="url(#clipPath2)" stroke="none"/>
      <path stroke-width="1" d="M615.9904 254.1987 L610.0275 242.6469 L609.1039 248.4042 L603.5892 250.2985 Z" clip-path="url(#clipPath2)" stroke="none"/>
      <text x="522.7526" y="212.9769" clip-path="url(#clipPath2)" font-family="sans-serif" stroke="none" stroke-width="1" xml:space="preserve">USB</text>
    </g>
  </g>
</svg>
